%TF.GenerationSoftware,KiCad,Pcbnew,9.0.6-9.0.6~ubuntu24.04.1*%
%TF.CreationDate,2025-12-01T15:32:00+03:00*%
%TF.ProjectId,canfilter_g4,63616e66-696c-4746-9572-5f67342e6b69,rev?*%
%TF.SameCoordinates,Original*%
%TF.FileFunction,Copper,L2,Inr*%
%TF.FilePolarity,Positive*%
%FSLAX46Y46*%
G04 Gerber Fmt 4.6, Leading zero omitted, Abs format (unit mm)*
G04 Created by KiCad (PCBNEW 9.0.6-9.0.6~ubuntu24.04.1) date 2025-12-01 15:32:00*
%MOMM*%
%LPD*%
G01*
G04 APERTURE LIST*
%TA.AperFunction,ComponentPad*%
%ADD10C,0.800000*%
%TD*%
%TA.AperFunction,ComponentPad*%
%ADD11C,6.400000*%
%TD*%
%TA.AperFunction,ComponentPad*%
%ADD12R,1.700000X1.700000*%
%TD*%
%TA.AperFunction,HeatsinkPad*%
%ADD13O,1.000000X2.100000*%
%TD*%
%TA.AperFunction,HeatsinkPad*%
%ADD14O,1.000000X1.600000*%
%TD*%
%TA.AperFunction,ComponentPad*%
%ADD15C,1.700000*%
%TD*%
%TA.AperFunction,ViaPad*%
%ADD16C,0.600000*%
%TD*%
G04 APERTURE END LIST*
D10*
%TO.N,GND*%
%TO.C,H104*%
X168600000Y-109500000D03*
X169302944Y-107802944D03*
X169302944Y-111197056D03*
X171000000Y-107100000D03*
D11*
X171000000Y-109500000D03*
D10*
X171000000Y-111900000D03*
X172697056Y-107802944D03*
X172697056Y-111197056D03*
X173400000Y-109500000D03*
%TD*%
%TO.N,GND*%
%TO.C,H101*%
X121600000Y-85000000D03*
X122302944Y-83302944D03*
X122302944Y-86697056D03*
X124000000Y-82600000D03*
D11*
X124000000Y-85000000D03*
D10*
X124000000Y-87400000D03*
X125697056Y-83302944D03*
X125697056Y-86697056D03*
X126400000Y-85000000D03*
%TD*%
%TO.N,GND*%
%TO.C,H103*%
X168600000Y-85000000D03*
X169302944Y-83302944D03*
X169302944Y-86697056D03*
X171000000Y-82600000D03*
D11*
X171000000Y-85000000D03*
D10*
X171000000Y-87400000D03*
X172697056Y-83302944D03*
X172697056Y-86697056D03*
X173400000Y-85000000D03*
%TD*%
D12*
%TO.N,GND*%
%TO.C,J105*%
X122500000Y-100400000D03*
%TD*%
D13*
%TO.N,GND*%
%TO.C,J601*%
X166270000Y-86755000D03*
D14*
X166270000Y-82575000D03*
D13*
X157630000Y-86755000D03*
D14*
X157630000Y-82575000D03*
%TD*%
D12*
%TO.N,/CAN2_L*%
%TO.C,J102*%
X172000000Y-104100000D03*
D15*
%TO.N,/CAN2_H*%
X172000000Y-101560000D03*
%TD*%
D12*
%TO.N,/CAN1_L*%
%TO.C,J101*%
X122500000Y-90400000D03*
D15*
%TO.N,/CAN1_H*%
X122500000Y-92940000D03*
%TD*%
D12*
%TO.N,/VIN*%
%TO.C,J104*%
X122500000Y-104000000D03*
%TD*%
D10*
%TO.N,GND*%
%TO.C,H102*%
X121600000Y-109500000D03*
X122302944Y-107802944D03*
X122302944Y-111197056D03*
X124000000Y-107100000D03*
D11*
X124000000Y-109500000D03*
D10*
X124000000Y-111900000D03*
X125697056Y-107802944D03*
X125697056Y-111197056D03*
X126400000Y-109500000D03*
%TD*%
D12*
%TO.N,/CAN3_L*%
%TO.C,J103*%
X172000000Y-92950000D03*
D15*
%TO.N,/CAN3_H*%
X172000000Y-90410000D03*
%TD*%
D16*
%TO.N,GND*%
X163500000Y-111850000D03*
X135950000Y-90000000D03*
X138750000Y-89150000D03*
X155000000Y-93800000D03*
X162950000Y-82750000D03*
X133050000Y-100000000D03*
X147350000Y-95200000D03*
X133750000Y-108600000D03*
X161950000Y-89000000D03*
X146750000Y-105350000D03*
X139350000Y-98450000D03*
X140150000Y-102600000D03*
X148800000Y-105300000D03*
X141350000Y-103750000D03*
X166600000Y-93250000D03*
X138150000Y-96050000D03*
X142400000Y-91400000D03*
X132150000Y-101350000D03*
X172900000Y-98300000D03*
X130850000Y-101350000D03*
X139850000Y-83750000D03*
X133400000Y-82700000D03*
X159550000Y-82750000D03*
X126300000Y-91900000D03*
X164200000Y-93850000D03*
X131250000Y-111750000D03*
X128250000Y-88800000D03*
X161900000Y-101800000D03*
X129350000Y-90300000D03*
X125600000Y-96900000D03*
X152750000Y-111650000D03*
X133700000Y-95450000D03*
X143200000Y-94400000D03*
X133700000Y-94450000D03*
X166450000Y-88750000D03*
X132400000Y-95500000D03*
X156900000Y-111650000D03*
X142500000Y-111400000D03*
X137250000Y-103600000D03*
X156400000Y-101000000D03*
X135300000Y-103750000D03*
X165900000Y-111850000D03*
X132400000Y-94500000D03*
X136000000Y-108550000D03*
X155500000Y-111650000D03*
X156600000Y-92200000D03*
X144950000Y-83800000D03*
X152750000Y-90100000D03*
X147450000Y-97000000D03*
X151800000Y-99200000D03*
X132700000Y-108600000D03*
X157950000Y-97150000D03*
X135450000Y-98800000D03*
X163450000Y-97600000D03*
X158150000Y-111650000D03*
X164200000Y-91850000D03*
X128000000Y-96950000D03*
X149800000Y-99200000D03*
X165350000Y-88450000D03*
X126750000Y-96900000D03*
X168150000Y-104300000D03*
X138700000Y-111000000D03*
X172900000Y-96250000D03*
X143200000Y-93450000D03*
X131500000Y-101350000D03*
X128750000Y-111250000D03*
X158750000Y-88650000D03*
X134800000Y-108600000D03*
X164600000Y-82750000D03*
X143550000Y-100700000D03*
X150650000Y-104900000D03*
X142500000Y-112200000D03*
X157400000Y-88800000D03*
X128800000Y-109050000D03*
X147300000Y-93200000D03*
X143000000Y-105350000D03*
X154050000Y-111650000D03*
X129600000Y-111750000D03*
X150450000Y-83800000D03*
X141100000Y-111000000D03*
X137600000Y-89150000D03*
X161250000Y-82750000D03*
X128800000Y-109700000D03*
X128800000Y-110500000D03*
X130400000Y-111750000D03*
%TO.N,/5V*%
X141050000Y-110000000D03*
X146950000Y-84975000D03*
X141450000Y-84975000D03*
X141100000Y-107850000D03*
X143800000Y-107800000D03*
X158100000Y-98700000D03*
X138700000Y-107850000D03*
X143900000Y-109950000D03*
X138700000Y-110000000D03*
X154800000Y-82550000D03*
X137600000Y-93750000D03*
X154250000Y-108900000D03*
X138349000Y-98800000D03*
X129550000Y-86600000D03*
%TO.N,/3V3*%
X148800000Y-107400000D03*
X145050000Y-91000000D03*
X165350000Y-101750000D03*
X145400000Y-102400000D03*
X132150000Y-87000000D03*
X148800000Y-108300000D03*
X153650000Y-100250000D03*
X148800000Y-106500000D03*
X155550000Y-102550000D03*
X141550000Y-87375000D03*
X139650000Y-100350000D03*
X147650000Y-106450000D03*
X153800000Y-91250000D03*
X146550000Y-106450000D03*
X160500000Y-108750000D03*
%TO.N,/RST*%
X143400000Y-97000000D03*
X130925813Y-86009437D03*
%TO.N,/UART1_TX*%
X155034456Y-96807772D03*
X136000000Y-85900000D03*
%TO.N,/UART1_RX*%
X134700000Y-86050000D03*
X155750000Y-96450000D03*
%TO.N,/SWD_CLK*%
X134600000Y-90050000D03*
X149925000Y-88000000D03*
%TO.N,/SWD_IO*%
X133450000Y-90100000D03*
X149950000Y-87150000D03*
%TO.N,/CAN3_RX*%
X159450000Y-100150000D03*
X150775303Y-93749758D03*
%TO.N,/CAN3_S*%
X150300000Y-90750000D03*
X164350000Y-96200000D03*
%TO.N,/CAN3_TX*%
X159300000Y-96250000D03*
X151400000Y-93250000D03*
%TD*%
%TA.AperFunction,Conductor*%
%TO.N,GND*%
G36*
X154288770Y-81720185D02*
G01*
X154334525Y-81772989D01*
X154344469Y-81842147D01*
X154315444Y-81905703D01*
X154294373Y-81924292D01*
X154294419Y-81924347D01*
X154292880Y-81925609D01*
X154290621Y-81927603D01*
X154289708Y-81928212D01*
X154178213Y-82039707D01*
X154178210Y-82039711D01*
X154090609Y-82170814D01*
X154090602Y-82170827D01*
X154030264Y-82316498D01*
X154030261Y-82316510D01*
X153999500Y-82471153D01*
X153999500Y-82628846D01*
X154030261Y-82783489D01*
X154030264Y-82783501D01*
X154090602Y-82929172D01*
X154090609Y-82929185D01*
X154178210Y-83060288D01*
X154178213Y-83060292D01*
X154289707Y-83171786D01*
X154289711Y-83171789D01*
X154420814Y-83259390D01*
X154420827Y-83259397D01*
X154496799Y-83290865D01*
X154566503Y-83319737D01*
X154721153Y-83350499D01*
X154721156Y-83350500D01*
X154721158Y-83350500D01*
X154878844Y-83350500D01*
X154878845Y-83350499D01*
X155033497Y-83319737D01*
X155179179Y-83259394D01*
X155310289Y-83171789D01*
X155421789Y-83060289D01*
X155509394Y-82929179D01*
X155569737Y-82783497D01*
X155600500Y-82628842D01*
X155600500Y-82471158D01*
X155600500Y-82471155D01*
X155600499Y-82471153D01*
X155574450Y-82340198D01*
X155569737Y-82316503D01*
X155549534Y-82267728D01*
X155509397Y-82170827D01*
X155509390Y-82170814D01*
X155421789Y-82039711D01*
X155421786Y-82039707D01*
X155310291Y-81928212D01*
X155309379Y-81927603D01*
X155309008Y-81927160D01*
X155305581Y-81924347D01*
X155306114Y-81923696D01*
X155264573Y-81873990D01*
X155255866Y-81804666D01*
X155286020Y-81741638D01*
X155345463Y-81704918D01*
X155378269Y-81700500D01*
X170984108Y-81700500D01*
X171046754Y-81700500D01*
X171053243Y-81700669D01*
X171393631Y-81718509D01*
X171406539Y-81719866D01*
X171739993Y-81772680D01*
X171752657Y-81775371D01*
X172078782Y-81862756D01*
X172091114Y-81866763D01*
X172406300Y-81987751D01*
X172418142Y-81993023D01*
X172718976Y-82146306D01*
X172730191Y-82152782D01*
X172982300Y-82316503D01*
X173013333Y-82336656D01*
X173023834Y-82344285D01*
X173286206Y-82556749D01*
X173295851Y-82565434D01*
X173534565Y-82804148D01*
X173543250Y-82813793D01*
X173755714Y-83076165D01*
X173763343Y-83086666D01*
X173947214Y-83369802D01*
X173953700Y-83381035D01*
X174106971Y-83681846D01*
X174112250Y-83693704D01*
X174233235Y-84008882D01*
X174237246Y-84021226D01*
X174324624Y-84347326D01*
X174327322Y-84360021D01*
X174380133Y-84693460D01*
X174381490Y-84706368D01*
X174399330Y-85046756D01*
X174399500Y-85053246D01*
X174399500Y-109646753D01*
X174399330Y-109653243D01*
X174381490Y-109993631D01*
X174380133Y-110006539D01*
X174327322Y-110339978D01*
X174324624Y-110352673D01*
X174237246Y-110678773D01*
X174233235Y-110691117D01*
X174112250Y-111006295D01*
X174106971Y-111018153D01*
X173953700Y-111318964D01*
X173947210Y-111330204D01*
X173763343Y-111613333D01*
X173755714Y-111623834D01*
X173543250Y-111886206D01*
X173534565Y-111895851D01*
X173295851Y-112134565D01*
X173286206Y-112143250D01*
X173023834Y-112355714D01*
X173013333Y-112363343D01*
X172730204Y-112547210D01*
X172718964Y-112553700D01*
X172418153Y-112706971D01*
X172406295Y-112712250D01*
X172091117Y-112833235D01*
X172078773Y-112837246D01*
X171752673Y-112924624D01*
X171739978Y-112927322D01*
X171406539Y-112980133D01*
X171393631Y-112981490D01*
X171053244Y-112999330D01*
X171046754Y-112999500D01*
X124003246Y-112999500D01*
X123996756Y-112999330D01*
X123656368Y-112981490D01*
X123643460Y-112980133D01*
X123310021Y-112927322D01*
X123297326Y-112924624D01*
X122971226Y-112837246D01*
X122958882Y-112833235D01*
X122643704Y-112712250D01*
X122631846Y-112706971D01*
X122331029Y-112553696D01*
X122319802Y-112547214D01*
X122036666Y-112363343D01*
X122026165Y-112355714D01*
X121763793Y-112143250D01*
X121754148Y-112134565D01*
X121515434Y-111895851D01*
X121506749Y-111886206D01*
X121294285Y-111623834D01*
X121286656Y-111613333D01*
X121154048Y-111409135D01*
X121102782Y-111330191D01*
X121096306Y-111318976D01*
X120943023Y-111018142D01*
X120937749Y-111006295D01*
X120846942Y-110769735D01*
X120816763Y-110691114D01*
X120812756Y-110678782D01*
X120725371Y-110352657D01*
X120722680Y-110339993D01*
X120669866Y-110006539D01*
X120668509Y-109993630D01*
X120664732Y-109921555D01*
X120664711Y-109921153D01*
X137899500Y-109921153D01*
X137899500Y-110078846D01*
X137930261Y-110233489D01*
X137930264Y-110233501D01*
X137990602Y-110379172D01*
X137990609Y-110379185D01*
X138078210Y-110510288D01*
X138078213Y-110510292D01*
X138189707Y-110621786D01*
X138189711Y-110621789D01*
X138320814Y-110709390D01*
X138320827Y-110709397D01*
X138420060Y-110750500D01*
X138466503Y-110769737D01*
X138621153Y-110800499D01*
X138621156Y-110800500D01*
X138621158Y-110800500D01*
X138778844Y-110800500D01*
X138778845Y-110800499D01*
X138933497Y-110769737D01*
X139079179Y-110709394D01*
X139210289Y-110621789D01*
X139321789Y-110510289D01*
X139409394Y-110379179D01*
X139469737Y-110233497D01*
X139500500Y-110078842D01*
X139500500Y-109921158D01*
X139500500Y-109921155D01*
X139500499Y-109921153D01*
X140249500Y-109921153D01*
X140249500Y-110078846D01*
X140280261Y-110233489D01*
X140280264Y-110233501D01*
X140340602Y-110379172D01*
X140340609Y-110379185D01*
X140428210Y-110510288D01*
X140428213Y-110510292D01*
X140539707Y-110621786D01*
X140539711Y-110621789D01*
X140670814Y-110709390D01*
X140670827Y-110709397D01*
X140770060Y-110750500D01*
X140816503Y-110769737D01*
X140971153Y-110800499D01*
X140971156Y-110800500D01*
X140971158Y-110800500D01*
X141128844Y-110800500D01*
X141128845Y-110800499D01*
X141283497Y-110769737D01*
X141429179Y-110709394D01*
X141560289Y-110621789D01*
X141671789Y-110510289D01*
X141759394Y-110379179D01*
X141819737Y-110233497D01*
X141850500Y-110078842D01*
X141850500Y-109921158D01*
X141850500Y-109921155D01*
X141844155Y-109889258D01*
X141844155Y-109889257D01*
X141840554Y-109871153D01*
X143099500Y-109871153D01*
X143099500Y-110028846D01*
X143130261Y-110183489D01*
X143130264Y-110183501D01*
X143190602Y-110329172D01*
X143190609Y-110329185D01*
X143278210Y-110460288D01*
X143278213Y-110460292D01*
X143389707Y-110571786D01*
X143389711Y-110571789D01*
X143520814Y-110659390D01*
X143520827Y-110659397D01*
X143666498Y-110719735D01*
X143666503Y-110719737D01*
X143821153Y-110750499D01*
X143821156Y-110750500D01*
X143821158Y-110750500D01*
X143978844Y-110750500D01*
X143978845Y-110750499D01*
X144133497Y-110719737D01*
X144279179Y-110659394D01*
X144410289Y-110571789D01*
X144521789Y-110460289D01*
X144609394Y-110329179D01*
X144669737Y-110183497D01*
X144700500Y-110028842D01*
X144700500Y-109871158D01*
X144700500Y-109871155D01*
X144700499Y-109871153D01*
X144679684Y-109766510D01*
X144669737Y-109716503D01*
X144669735Y-109716498D01*
X144609397Y-109570827D01*
X144609390Y-109570814D01*
X144521789Y-109439711D01*
X144521786Y-109439707D01*
X144410292Y-109328213D01*
X144410288Y-109328210D01*
X144279185Y-109240609D01*
X144279172Y-109240602D01*
X144133501Y-109180264D01*
X144133489Y-109180261D01*
X143978845Y-109149500D01*
X143978842Y-109149500D01*
X143821158Y-109149500D01*
X143821155Y-109149500D01*
X143666510Y-109180261D01*
X143666498Y-109180264D01*
X143520827Y-109240602D01*
X143520814Y-109240609D01*
X143389711Y-109328210D01*
X143389707Y-109328213D01*
X143278213Y-109439707D01*
X143278210Y-109439711D01*
X143190609Y-109570814D01*
X143190602Y-109570827D01*
X143130264Y-109716498D01*
X143130261Y-109716510D01*
X143099500Y-109871153D01*
X141840554Y-109871153D01*
X141819738Y-109766510D01*
X141819737Y-109766503D01*
X141819735Y-109766498D01*
X141759397Y-109620827D01*
X141759390Y-109620814D01*
X141671789Y-109489711D01*
X141671786Y-109489707D01*
X141560292Y-109378213D01*
X141560288Y-109378210D01*
X141429185Y-109290609D01*
X141429172Y-109290602D01*
X141283501Y-109230264D01*
X141283489Y-109230261D01*
X141128845Y-109199500D01*
X141128842Y-109199500D01*
X140971158Y-109199500D01*
X140971155Y-109199500D01*
X140816510Y-109230261D01*
X140816498Y-109230264D01*
X140670827Y-109290602D01*
X140670814Y-109290609D01*
X140539711Y-109378210D01*
X140539707Y-109378213D01*
X140428213Y-109489707D01*
X140428210Y-109489711D01*
X140340609Y-109620814D01*
X140340602Y-109620827D01*
X140280264Y-109766498D01*
X140280261Y-109766510D01*
X140249500Y-109921153D01*
X139500499Y-109921153D01*
X139490553Y-109871153D01*
X139469737Y-109766503D01*
X139469735Y-109766498D01*
X139409397Y-109620827D01*
X139409390Y-109620814D01*
X139321789Y-109489711D01*
X139321786Y-109489707D01*
X139210292Y-109378213D01*
X139210288Y-109378210D01*
X139079185Y-109290609D01*
X139079172Y-109290602D01*
X138933501Y-109230264D01*
X138933489Y-109230261D01*
X138778845Y-109199500D01*
X138778842Y-109199500D01*
X138621158Y-109199500D01*
X138621155Y-109199500D01*
X138466510Y-109230261D01*
X138466498Y-109230264D01*
X138320827Y-109290602D01*
X138320814Y-109290609D01*
X138189711Y-109378210D01*
X138189707Y-109378213D01*
X138078213Y-109489707D01*
X138078210Y-109489711D01*
X137990609Y-109620814D01*
X137990602Y-109620827D01*
X137930264Y-109766498D01*
X137930261Y-109766510D01*
X137899500Y-109921153D01*
X120664711Y-109921153D01*
X120650670Y-109653243D01*
X120650500Y-109646753D01*
X120650500Y-107771153D01*
X137899500Y-107771153D01*
X137899500Y-107928846D01*
X137930261Y-108083489D01*
X137930264Y-108083501D01*
X137990602Y-108229172D01*
X137990609Y-108229185D01*
X138078210Y-108360288D01*
X138078213Y-108360292D01*
X138189707Y-108471786D01*
X138189711Y-108471789D01*
X138320814Y-108559390D01*
X138320827Y-108559397D01*
X138420060Y-108600500D01*
X138466503Y-108619737D01*
X138621153Y-108650499D01*
X138621156Y-108650500D01*
X138621158Y-108650500D01*
X138778844Y-108650500D01*
X138778845Y-108650499D01*
X138933497Y-108619737D01*
X139079179Y-108559394D01*
X139210289Y-108471789D01*
X139321789Y-108360289D01*
X139409394Y-108229179D01*
X139412719Y-108221153D01*
X139430102Y-108179185D01*
X139469737Y-108083497D01*
X139500500Y-107928842D01*
X139500500Y-107771158D01*
X139500500Y-107771155D01*
X139500499Y-107771153D01*
X140299500Y-107771153D01*
X140299500Y-107928846D01*
X140330261Y-108083489D01*
X140330264Y-108083501D01*
X140390602Y-108229172D01*
X140390609Y-108229185D01*
X140478210Y-108360288D01*
X140478213Y-108360292D01*
X140589707Y-108471786D01*
X140589711Y-108471789D01*
X140720814Y-108559390D01*
X140720827Y-108559397D01*
X140820060Y-108600500D01*
X140866503Y-108619737D01*
X141021153Y-108650499D01*
X141021156Y-108650500D01*
X141021158Y-108650500D01*
X141178844Y-108650500D01*
X141178845Y-108650499D01*
X141333497Y-108619737D01*
X141479179Y-108559394D01*
X141610289Y-108471789D01*
X141721789Y-108360289D01*
X141809394Y-108229179D01*
X141812719Y-108221153D01*
X141830102Y-108179185D01*
X141869737Y-108083497D01*
X141900500Y-107928842D01*
X141900500Y-107771158D01*
X141900500Y-107771155D01*
X141894155Y-107739258D01*
X141894155Y-107739257D01*
X141890554Y-107721153D01*
X142999500Y-107721153D01*
X142999500Y-107878846D01*
X143030261Y-108033489D01*
X143030264Y-108033501D01*
X143090602Y-108179172D01*
X143090609Y-108179185D01*
X143178210Y-108310288D01*
X143178213Y-108310292D01*
X143289707Y-108421786D01*
X143289711Y-108421789D01*
X143420814Y-108509390D01*
X143420827Y-108509397D01*
X143566498Y-108569735D01*
X143566503Y-108569737D01*
X143721153Y-108600499D01*
X143721156Y-108600500D01*
X143721158Y-108600500D01*
X143878844Y-108600500D01*
X143878845Y-108600499D01*
X144033497Y-108569737D01*
X144151592Y-108520821D01*
X144179172Y-108509397D01*
X144179172Y-108509396D01*
X144179179Y-108509394D01*
X144310289Y-108421789D01*
X144421789Y-108310289D01*
X144509394Y-108179179D01*
X144569737Y-108033497D01*
X144600500Y-107878842D01*
X144600500Y-107721158D01*
X144600500Y-107721155D01*
X144600499Y-107721153D01*
X144579684Y-107616510D01*
X144569737Y-107566503D01*
X144530102Y-107470814D01*
X144509397Y-107420827D01*
X144509390Y-107420814D01*
X144421789Y-107289711D01*
X144421786Y-107289707D01*
X144310292Y-107178213D01*
X144310288Y-107178210D01*
X144179185Y-107090609D01*
X144179172Y-107090602D01*
X144033501Y-107030264D01*
X144033489Y-107030261D01*
X143878845Y-106999500D01*
X143878842Y-106999500D01*
X143721158Y-106999500D01*
X143721155Y-106999500D01*
X143566510Y-107030261D01*
X143566498Y-107030264D01*
X143420827Y-107090602D01*
X143420814Y-107090609D01*
X143289711Y-107178210D01*
X143289707Y-107178213D01*
X143178213Y-107289707D01*
X143178210Y-107289711D01*
X143090609Y-107420814D01*
X143090602Y-107420827D01*
X143030264Y-107566498D01*
X143030261Y-107566510D01*
X142999500Y-107721153D01*
X141890554Y-107721153D01*
X141873117Y-107633497D01*
X141869737Y-107616503D01*
X141869735Y-107616498D01*
X141809397Y-107470827D01*
X141809390Y-107470814D01*
X141721789Y-107339711D01*
X141721786Y-107339707D01*
X141610292Y-107228213D01*
X141610288Y-107228210D01*
X141479185Y-107140609D01*
X141479172Y-107140602D01*
X141333501Y-107080264D01*
X141333489Y-107080261D01*
X141178845Y-107049500D01*
X141178842Y-107049500D01*
X141021158Y-107049500D01*
X141021155Y-107049500D01*
X140866510Y-107080261D01*
X140866498Y-107080264D01*
X140720827Y-107140602D01*
X140720814Y-107140609D01*
X140589711Y-107228210D01*
X140589707Y-107228213D01*
X140478213Y-107339707D01*
X140478210Y-107339711D01*
X140390609Y-107470814D01*
X140390602Y-107470827D01*
X140330264Y-107616498D01*
X140330261Y-107616510D01*
X140299500Y-107771153D01*
X139500499Y-107771153D01*
X139473117Y-107633497D01*
X139469737Y-107616503D01*
X139469735Y-107616498D01*
X139409397Y-107470827D01*
X139409390Y-107470814D01*
X139321789Y-107339711D01*
X139321786Y-107339707D01*
X139210292Y-107228213D01*
X139210288Y-107228210D01*
X139079185Y-107140609D01*
X139079172Y-107140602D01*
X138933501Y-107080264D01*
X138933489Y-107080261D01*
X138778845Y-107049500D01*
X138778842Y-107049500D01*
X138621158Y-107049500D01*
X138621155Y-107049500D01*
X138466510Y-107080261D01*
X138466498Y-107080264D01*
X138320827Y-107140602D01*
X138320814Y-107140609D01*
X138189711Y-107228210D01*
X138189707Y-107228213D01*
X138078213Y-107339707D01*
X138078210Y-107339711D01*
X137990609Y-107470814D01*
X137990602Y-107470827D01*
X137930264Y-107616498D01*
X137930261Y-107616510D01*
X137899500Y-107771153D01*
X120650500Y-107771153D01*
X120650500Y-106371153D01*
X145749500Y-106371153D01*
X145749500Y-106528846D01*
X145780261Y-106683489D01*
X145780264Y-106683501D01*
X145840602Y-106829172D01*
X145840609Y-106829185D01*
X145928210Y-106960288D01*
X145928213Y-106960292D01*
X146039707Y-107071786D01*
X146039711Y-107071789D01*
X146170814Y-107159390D01*
X146170827Y-107159397D01*
X146216254Y-107178213D01*
X146316503Y-107219737D01*
X146471153Y-107250499D01*
X146471156Y-107250500D01*
X146471158Y-107250500D01*
X146628844Y-107250500D01*
X146628845Y-107250499D01*
X146783497Y-107219737D01*
X146929179Y-107159394D01*
X147031111Y-107091284D01*
X147097786Y-107070408D01*
X147165166Y-107088892D01*
X147168847Y-107091257D01*
X147270821Y-107159394D01*
X147270823Y-107159395D01*
X147270827Y-107159397D01*
X147316254Y-107178213D01*
X147416503Y-107219737D01*
X147571153Y-107250499D01*
X147571156Y-107250500D01*
X147571158Y-107250500D01*
X147728844Y-107250500D01*
X147851308Y-107226140D01*
X147920900Y-107232367D01*
X147976077Y-107275230D01*
X147999322Y-107341120D01*
X147999500Y-107347757D01*
X147999500Y-107478846D01*
X148030261Y-107633489D01*
X148030264Y-107633501D01*
X148090604Y-107779177D01*
X148090605Y-107779179D01*
X148091899Y-107781115D01*
X148092264Y-107782282D01*
X148093476Y-107784549D01*
X148093045Y-107784778D01*
X148112773Y-107847794D01*
X148094285Y-107915173D01*
X148091899Y-107918885D01*
X148090605Y-107920820D01*
X148090604Y-107920822D01*
X148030264Y-108066498D01*
X148030261Y-108066510D01*
X147999500Y-108221153D01*
X147999500Y-108378846D01*
X148030261Y-108533489D01*
X148030264Y-108533501D01*
X148090602Y-108679172D01*
X148090609Y-108679185D01*
X148178210Y-108810288D01*
X148178213Y-108810292D01*
X148289707Y-108921786D01*
X148289711Y-108921789D01*
X148420814Y-109009390D01*
X148420827Y-109009397D01*
X148566498Y-109069735D01*
X148566503Y-109069737D01*
X148721153Y-109100499D01*
X148721156Y-109100500D01*
X148721158Y-109100500D01*
X148878844Y-109100500D01*
X148878845Y-109100499D01*
X149033497Y-109069737D01*
X149179179Y-109009394D01*
X149310289Y-108921789D01*
X149410925Y-108821153D01*
X153449500Y-108821153D01*
X153449500Y-108978846D01*
X153480261Y-109133489D01*
X153480264Y-109133501D01*
X153540602Y-109279172D01*
X153540609Y-109279185D01*
X153628210Y-109410288D01*
X153628213Y-109410292D01*
X153739707Y-109521786D01*
X153739711Y-109521789D01*
X153870814Y-109609390D01*
X153870827Y-109609397D01*
X154016498Y-109669735D01*
X154016503Y-109669737D01*
X154171153Y-109700499D01*
X154171156Y-109700500D01*
X154171158Y-109700500D01*
X154328844Y-109700500D01*
X154328845Y-109700499D01*
X154483497Y-109669737D01*
X154601592Y-109620821D01*
X154629172Y-109609397D01*
X154629172Y-109609396D01*
X154629179Y-109609394D01*
X154760289Y-109521789D01*
X154871789Y-109410289D01*
X154959394Y-109279179D01*
X155019737Y-109133497D01*
X155050500Y-108978842D01*
X155050500Y-108821158D01*
X155050500Y-108821155D01*
X155050499Y-108821153D01*
X155024264Y-108689257D01*
X155020662Y-108671153D01*
X159699500Y-108671153D01*
X159699500Y-108828846D01*
X159730261Y-108983489D01*
X159730264Y-108983501D01*
X159790602Y-109129172D01*
X159790609Y-109129185D01*
X159878210Y-109260288D01*
X159878213Y-109260292D01*
X159989707Y-109371786D01*
X159989711Y-109371789D01*
X160120814Y-109459390D01*
X160120827Y-109459397D01*
X160194013Y-109489711D01*
X160266503Y-109519737D01*
X160421153Y-109550499D01*
X160421156Y-109550500D01*
X160421158Y-109550500D01*
X160578844Y-109550500D01*
X160578845Y-109550499D01*
X160733497Y-109519737D01*
X160879179Y-109459394D01*
X161010289Y-109371789D01*
X161121789Y-109260289D01*
X161209394Y-109129179D01*
X161269737Y-108983497D01*
X161300500Y-108828842D01*
X161300500Y-108671158D01*
X161300500Y-108671155D01*
X161300499Y-108671153D01*
X161280326Y-108569737D01*
X161269737Y-108516503D01*
X161251215Y-108471786D01*
X161209397Y-108370827D01*
X161209390Y-108370814D01*
X161121789Y-108239711D01*
X161121786Y-108239707D01*
X161010292Y-108128213D01*
X161010288Y-108128210D01*
X160879185Y-108040609D01*
X160879172Y-108040602D01*
X160733501Y-107980264D01*
X160733489Y-107980261D01*
X160578845Y-107949500D01*
X160578842Y-107949500D01*
X160421158Y-107949500D01*
X160421155Y-107949500D01*
X160266510Y-107980261D01*
X160266498Y-107980264D01*
X160120827Y-108040602D01*
X160120814Y-108040609D01*
X159989711Y-108128210D01*
X159989707Y-108128213D01*
X159878213Y-108239707D01*
X159878210Y-108239711D01*
X159790609Y-108370814D01*
X159790602Y-108370827D01*
X159730264Y-108516498D01*
X159730261Y-108516510D01*
X159699500Y-108671153D01*
X155020662Y-108671153D01*
X155019738Y-108666507D01*
X155019735Y-108666498D01*
X154959397Y-108520827D01*
X154959390Y-108520814D01*
X154871789Y-108389711D01*
X154871786Y-108389707D01*
X154760292Y-108278213D01*
X154760288Y-108278210D01*
X154629185Y-108190609D01*
X154629172Y-108190602D01*
X154483501Y-108130264D01*
X154483489Y-108130261D01*
X154328845Y-108099500D01*
X154328842Y-108099500D01*
X154171158Y-108099500D01*
X154171155Y-108099500D01*
X154016510Y-108130261D01*
X154016498Y-108130264D01*
X153870827Y-108190602D01*
X153870814Y-108190609D01*
X153739711Y-108278210D01*
X153739707Y-108278213D01*
X153628213Y-108389707D01*
X153628210Y-108389711D01*
X153540609Y-108520814D01*
X153540602Y-108520827D01*
X153480264Y-108666498D01*
X153480261Y-108666510D01*
X153449500Y-108821153D01*
X149410925Y-108821153D01*
X149421789Y-108810289D01*
X149509394Y-108679179D01*
X149512719Y-108671153D01*
X149541984Y-108600499D01*
X149569737Y-108533497D01*
X149600500Y-108378842D01*
X149600500Y-108221158D01*
X149600500Y-108221155D01*
X149600499Y-108221153D01*
X149582012Y-108128213D01*
X149569737Y-108066503D01*
X149569735Y-108066498D01*
X149509397Y-107920827D01*
X149509394Y-107920822D01*
X149509394Y-107920821D01*
X149508103Y-107918889D01*
X149507737Y-107917723D01*
X149506525Y-107915454D01*
X149506955Y-107915223D01*
X149487226Y-107852214D01*
X149505710Y-107784834D01*
X149508100Y-107781115D01*
X149509394Y-107779179D01*
X149512719Y-107771153D01*
X149569735Y-107633501D01*
X149569737Y-107633497D01*
X149600500Y-107478842D01*
X149600500Y-107321158D01*
X149600500Y-107321155D01*
X149600499Y-107321153D01*
X149582012Y-107228213D01*
X149569737Y-107166503D01*
X149565251Y-107155672D01*
X149509397Y-107020827D01*
X149509395Y-107020824D01*
X149509394Y-107020821D01*
X149508103Y-107018889D01*
X149507737Y-107017723D01*
X149506525Y-107015454D01*
X149506955Y-107015223D01*
X149487226Y-106952214D01*
X149505710Y-106884834D01*
X149508077Y-106881149D01*
X149509394Y-106879179D01*
X149569737Y-106733497D01*
X149600500Y-106578842D01*
X149600500Y-106421158D01*
X149600500Y-106421155D01*
X149600499Y-106421153D01*
X149569738Y-106266510D01*
X149569737Y-106266503D01*
X149569735Y-106266498D01*
X149509397Y-106120827D01*
X149509390Y-106120814D01*
X149421789Y-105989711D01*
X149421786Y-105989707D01*
X149310292Y-105878213D01*
X149310288Y-105878210D01*
X149179185Y-105790609D01*
X149179172Y-105790602D01*
X149033501Y-105730264D01*
X149033489Y-105730261D01*
X148878845Y-105699500D01*
X148878842Y-105699500D01*
X148721158Y-105699500D01*
X148721155Y-105699500D01*
X148566510Y-105730261D01*
X148566498Y-105730264D01*
X148420827Y-105790602D01*
X148420814Y-105790609D01*
X148326715Y-105853485D01*
X148260037Y-105874363D01*
X148192657Y-105855878D01*
X148170143Y-105838064D01*
X148160292Y-105828213D01*
X148160288Y-105828210D01*
X148029185Y-105740609D01*
X148029172Y-105740602D01*
X147883501Y-105680264D01*
X147883489Y-105680261D01*
X147728845Y-105649500D01*
X147728842Y-105649500D01*
X147571158Y-105649500D01*
X147571155Y-105649500D01*
X147416510Y-105680261D01*
X147416498Y-105680264D01*
X147270827Y-105740602D01*
X147270814Y-105740609D01*
X147168891Y-105808713D01*
X147102213Y-105829591D01*
X147034833Y-105811107D01*
X147031109Y-105808713D01*
X146929185Y-105740609D01*
X146929172Y-105740602D01*
X146783501Y-105680264D01*
X146783489Y-105680261D01*
X146628845Y-105649500D01*
X146628842Y-105649500D01*
X146471158Y-105649500D01*
X146471155Y-105649500D01*
X146316510Y-105680261D01*
X146316498Y-105680264D01*
X146170827Y-105740602D01*
X146170814Y-105740609D01*
X146039711Y-105828210D01*
X146039707Y-105828213D01*
X145928213Y-105939707D01*
X145928210Y-105939711D01*
X145840609Y-106070814D01*
X145840602Y-106070827D01*
X145780264Y-106216498D01*
X145780261Y-106216510D01*
X145749500Y-106371153D01*
X120650500Y-106371153D01*
X120650500Y-103102135D01*
X121149500Y-103102135D01*
X121149500Y-104897870D01*
X121149501Y-104897876D01*
X121155908Y-104957483D01*
X121206202Y-105092328D01*
X121206206Y-105092335D01*
X121292452Y-105207544D01*
X121292455Y-105207547D01*
X121407664Y-105293793D01*
X121407671Y-105293797D01*
X121542517Y-105344091D01*
X121542516Y-105344091D01*
X121549444Y-105344835D01*
X121602127Y-105350500D01*
X123397872Y-105350499D01*
X123457483Y-105344091D01*
X123592331Y-105293796D01*
X123707546Y-105207546D01*
X123793796Y-105092331D01*
X123844091Y-104957483D01*
X123850500Y-104897873D01*
X123850499Y-103102128D01*
X123844091Y-103042517D01*
X123831094Y-103007671D01*
X123793797Y-102907671D01*
X123793793Y-102907664D01*
X123707547Y-102792455D01*
X123707544Y-102792452D01*
X123592335Y-102706206D01*
X123592328Y-102706202D01*
X123457482Y-102655908D01*
X123457483Y-102655908D01*
X123397883Y-102649501D01*
X123397881Y-102649500D01*
X123397873Y-102649500D01*
X123397864Y-102649500D01*
X121602129Y-102649500D01*
X121602123Y-102649501D01*
X121542516Y-102655908D01*
X121407671Y-102706202D01*
X121407664Y-102706206D01*
X121292455Y-102792452D01*
X121292452Y-102792455D01*
X121206206Y-102907664D01*
X121206202Y-102907671D01*
X121155908Y-103042517D01*
X121149501Y-103102116D01*
X121149501Y-103102123D01*
X121149500Y-103102135D01*
X120650500Y-103102135D01*
X120650500Y-102321153D01*
X144599500Y-102321153D01*
X144599500Y-102478846D01*
X144630261Y-102633489D01*
X144630264Y-102633501D01*
X144690602Y-102779172D01*
X144690609Y-102779185D01*
X144778210Y-102910288D01*
X144778213Y-102910292D01*
X144889707Y-103021786D01*
X144889711Y-103021789D01*
X145020814Y-103109390D01*
X145020827Y-103109397D01*
X145166498Y-103169735D01*
X145166503Y-103169737D01*
X145321153Y-103200499D01*
X145321156Y-103200500D01*
X145321158Y-103200500D01*
X145478844Y-103200500D01*
X145478845Y-103200499D01*
X145633497Y-103169737D01*
X145779179Y-103109394D01*
X145910289Y-103021789D01*
X146021789Y-102910289D01*
X146109394Y-102779179D01*
X146118503Y-102757189D01*
X146148677Y-102684341D01*
X146169737Y-102633497D01*
X146200500Y-102478842D01*
X146200500Y-102471153D01*
X154749500Y-102471153D01*
X154749500Y-102628846D01*
X154780261Y-102783489D01*
X154780264Y-102783501D01*
X154840602Y-102929172D01*
X154840609Y-102929185D01*
X154928210Y-103060288D01*
X154928213Y-103060292D01*
X155039707Y-103171786D01*
X155039711Y-103171789D01*
X155170814Y-103259390D01*
X155170827Y-103259397D01*
X155316498Y-103319735D01*
X155316503Y-103319737D01*
X155471153Y-103350499D01*
X155471156Y-103350500D01*
X155471158Y-103350500D01*
X155628844Y-103350500D01*
X155628845Y-103350499D01*
X155783497Y-103319737D01*
X155929179Y-103259394D01*
X156060289Y-103171789D01*
X156171789Y-103060289D01*
X156259394Y-102929179D01*
X156319737Y-102783497D01*
X156350500Y-102628842D01*
X156350500Y-102471158D01*
X156350500Y-102471155D01*
X156350499Y-102471153D01*
X156330734Y-102371789D01*
X156319737Y-102316503D01*
X156299572Y-102267820D01*
X156259397Y-102170827D01*
X156259390Y-102170814D01*
X156171789Y-102039711D01*
X156171786Y-102039707D01*
X156060292Y-101928213D01*
X156060288Y-101928210D01*
X155929185Y-101840609D01*
X155929172Y-101840602D01*
X155783501Y-101780264D01*
X155783489Y-101780261D01*
X155628845Y-101749500D01*
X155628842Y-101749500D01*
X155471158Y-101749500D01*
X155471155Y-101749500D01*
X155316510Y-101780261D01*
X155316498Y-101780264D01*
X155170827Y-101840602D01*
X155170814Y-101840609D01*
X155039711Y-101928210D01*
X155039707Y-101928213D01*
X154928213Y-102039707D01*
X154928210Y-102039711D01*
X154840609Y-102170814D01*
X154840602Y-102170827D01*
X154780264Y-102316498D01*
X154780261Y-102316510D01*
X154749500Y-102471153D01*
X146200500Y-102471153D01*
X146200500Y-102321158D01*
X146200500Y-102321155D01*
X146200499Y-102321153D01*
X146189890Y-102267820D01*
X146169737Y-102166503D01*
X146169735Y-102166498D01*
X146109397Y-102020827D01*
X146109390Y-102020814D01*
X146021789Y-101889711D01*
X146021786Y-101889707D01*
X145910292Y-101778213D01*
X145910288Y-101778210D01*
X145779185Y-101690609D01*
X145779172Y-101690602D01*
X145732217Y-101671153D01*
X164549500Y-101671153D01*
X164549500Y-101828846D01*
X164580261Y-101983489D01*
X164580264Y-101983501D01*
X164640602Y-102129172D01*
X164640609Y-102129185D01*
X164728210Y-102260288D01*
X164728213Y-102260292D01*
X164839707Y-102371786D01*
X164839711Y-102371789D01*
X164970814Y-102459390D01*
X164970827Y-102459397D01*
X165116498Y-102519735D01*
X165116503Y-102519737D01*
X165271153Y-102550499D01*
X165271156Y-102550500D01*
X165271158Y-102550500D01*
X165428844Y-102550500D01*
X165428845Y-102550499D01*
X165583497Y-102519737D01*
X165729179Y-102459394D01*
X165860289Y-102371789D01*
X165971789Y-102260289D01*
X166059394Y-102129179D01*
X166119737Y-101983497D01*
X166150500Y-101828842D01*
X166150500Y-101671158D01*
X166150500Y-101671155D01*
X166150499Y-101671153D01*
X166119738Y-101516510D01*
X166119737Y-101516503D01*
X166093729Y-101453713D01*
X170649500Y-101453713D01*
X170649500Y-101666287D01*
X170653351Y-101690602D01*
X170677109Y-101840606D01*
X170682754Y-101876243D01*
X170735868Y-102039711D01*
X170748444Y-102078414D01*
X170844951Y-102267820D01*
X170969890Y-102439786D01*
X171083430Y-102553326D01*
X171116915Y-102614649D01*
X171111931Y-102684341D01*
X171070059Y-102740274D01*
X171039083Y-102757189D01*
X170907669Y-102806203D01*
X170907664Y-102806206D01*
X170792455Y-102892452D01*
X170792452Y-102892455D01*
X170706206Y-103007664D01*
X170706202Y-103007671D01*
X170655908Y-103142517D01*
X170649675Y-103200499D01*
X170649501Y-103202123D01*
X170649500Y-103202135D01*
X170649500Y-104997870D01*
X170649501Y-104997876D01*
X170655908Y-105057483D01*
X170706202Y-105192328D01*
X170706206Y-105192335D01*
X170792452Y-105307544D01*
X170792455Y-105307547D01*
X170907664Y-105393793D01*
X170907671Y-105393797D01*
X171042517Y-105444091D01*
X171042516Y-105444091D01*
X171049444Y-105444835D01*
X171102127Y-105450500D01*
X172897872Y-105450499D01*
X172957483Y-105444091D01*
X173092331Y-105393796D01*
X173207546Y-105307546D01*
X173293796Y-105192331D01*
X173344091Y-105057483D01*
X173350500Y-104997873D01*
X173350499Y-103202128D01*
X173344091Y-103142517D01*
X173331735Y-103109390D01*
X173293797Y-103007671D01*
X173293793Y-103007664D01*
X173207547Y-102892455D01*
X173207544Y-102892452D01*
X173092335Y-102806206D01*
X173092328Y-102806202D01*
X172960917Y-102757189D01*
X172904983Y-102715318D01*
X172880566Y-102649853D01*
X172895418Y-102581580D01*
X172916563Y-102553332D01*
X173030104Y-102439792D01*
X173155051Y-102267816D01*
X173251557Y-102078412D01*
X173317246Y-101876243D01*
X173350500Y-101666287D01*
X173350500Y-101453713D01*
X173317246Y-101243757D01*
X173251557Y-101041588D01*
X173155051Y-100852184D01*
X173155049Y-100852181D01*
X173155048Y-100852179D01*
X173030109Y-100680213D01*
X172879786Y-100529890D01*
X172707820Y-100404951D01*
X172518414Y-100308444D01*
X172518413Y-100308443D01*
X172518412Y-100308443D01*
X172316243Y-100242754D01*
X172316241Y-100242753D01*
X172316240Y-100242753D01*
X172154957Y-100217208D01*
X172106287Y-100209500D01*
X171893713Y-100209500D01*
X171845042Y-100217208D01*
X171683760Y-100242753D01*
X171481585Y-100308444D01*
X171292179Y-100404951D01*
X171120213Y-100529890D01*
X170969890Y-100680213D01*
X170844951Y-100852179D01*
X170748444Y-101041585D01*
X170682753Y-101243760D01*
X170662630Y-101370814D01*
X170649500Y-101453713D01*
X166093729Y-101453713D01*
X166088848Y-101441930D01*
X166059397Y-101370827D01*
X166059390Y-101370814D01*
X165971789Y-101239711D01*
X165971786Y-101239707D01*
X165860292Y-101128213D01*
X165860288Y-101128210D01*
X165729185Y-101040609D01*
X165729172Y-101040602D01*
X165583501Y-100980264D01*
X165583489Y-100980261D01*
X165428845Y-100949500D01*
X165428842Y-100949500D01*
X165271158Y-100949500D01*
X165271155Y-100949500D01*
X165116510Y-100980261D01*
X165116498Y-100980264D01*
X164970827Y-101040602D01*
X164970814Y-101040609D01*
X164839711Y-101128210D01*
X164839707Y-101128213D01*
X164728213Y-101239707D01*
X164728210Y-101239711D01*
X164640609Y-101370814D01*
X164640602Y-101370827D01*
X164580264Y-101516498D01*
X164580261Y-101516510D01*
X164549500Y-101671153D01*
X145732217Y-101671153D01*
X145633501Y-101630264D01*
X145633489Y-101630261D01*
X145478845Y-101599500D01*
X145478842Y-101599500D01*
X145321158Y-101599500D01*
X145321155Y-101599500D01*
X145166510Y-101630261D01*
X145166498Y-101630264D01*
X145020827Y-101690602D01*
X145020814Y-101690609D01*
X144889711Y-101778210D01*
X144889707Y-101778213D01*
X144778213Y-101889707D01*
X144778210Y-101889711D01*
X144690609Y-102020814D01*
X144690602Y-102020827D01*
X144630264Y-102166498D01*
X144630261Y-102166510D01*
X144599500Y-102321153D01*
X120650500Y-102321153D01*
X120650500Y-100271153D01*
X138849500Y-100271153D01*
X138849500Y-100428846D01*
X138880261Y-100583489D01*
X138880264Y-100583501D01*
X138940602Y-100729172D01*
X138940609Y-100729185D01*
X139028210Y-100860288D01*
X139028213Y-100860292D01*
X139139707Y-100971786D01*
X139139711Y-100971789D01*
X139270814Y-101059390D01*
X139270827Y-101059397D01*
X139416498Y-101119735D01*
X139416503Y-101119737D01*
X139571153Y-101150499D01*
X139571156Y-101150500D01*
X139571158Y-101150500D01*
X139728844Y-101150500D01*
X139728845Y-101150499D01*
X139883497Y-101119737D01*
X140029179Y-101059394D01*
X140160289Y-100971789D01*
X140271789Y-100860289D01*
X140359394Y-100729179D01*
X140419737Y-100583497D01*
X140450500Y-100428842D01*
X140450500Y-100271158D01*
X140450500Y-100271155D01*
X140434209Y-100189258D01*
X140434209Y-100189257D01*
X140430608Y-100171153D01*
X152849500Y-100171153D01*
X152849500Y-100328846D01*
X152880261Y-100483489D01*
X152880264Y-100483501D01*
X152940602Y-100629172D01*
X152940609Y-100629185D01*
X153028210Y-100760288D01*
X153028213Y-100760292D01*
X153139707Y-100871786D01*
X153139711Y-100871789D01*
X153270814Y-100959390D01*
X153270827Y-100959397D01*
X153416498Y-101019735D01*
X153416503Y-101019737D01*
X153526340Y-101041585D01*
X153571153Y-101050499D01*
X153571156Y-101050500D01*
X153571158Y-101050500D01*
X153728844Y-101050500D01*
X153728845Y-101050499D01*
X153883497Y-101019737D01*
X154029179Y-100959394D01*
X154160289Y-100871789D01*
X154271789Y-100760289D01*
X154359394Y-100629179D01*
X154419737Y-100483497D01*
X154450500Y-100328842D01*
X154450500Y-100171158D01*
X154450500Y-100171155D01*
X154434209Y-100089258D01*
X154434209Y-100089257D01*
X154430608Y-100071153D01*
X158649500Y-100071153D01*
X158649500Y-100228846D01*
X158680261Y-100383489D01*
X158680264Y-100383501D01*
X158740602Y-100529172D01*
X158740609Y-100529185D01*
X158828210Y-100660288D01*
X158828213Y-100660292D01*
X158939707Y-100771786D01*
X158939711Y-100771789D01*
X159070814Y-100859390D01*
X159070827Y-100859397D01*
X159216498Y-100919735D01*
X159216503Y-100919737D01*
X159366131Y-100949500D01*
X159371153Y-100950499D01*
X159371156Y-100950500D01*
X159371158Y-100950500D01*
X159528844Y-100950500D01*
X159528845Y-100950499D01*
X159683497Y-100919737D01*
X159829179Y-100859394D01*
X159960289Y-100771789D01*
X160071789Y-100660289D01*
X160159394Y-100529179D01*
X160219737Y-100383497D01*
X160250500Y-100228842D01*
X160250500Y-100071158D01*
X160250500Y-100071155D01*
X160250499Y-100071153D01*
X160230543Y-99970827D01*
X160219737Y-99916503D01*
X160187929Y-99839711D01*
X160159397Y-99770827D01*
X160159390Y-99770814D01*
X160071789Y-99639711D01*
X160071786Y-99639707D01*
X159960292Y-99528213D01*
X159960288Y-99528210D01*
X159829185Y-99440609D01*
X159829172Y-99440602D01*
X159683501Y-99380264D01*
X159683489Y-99380261D01*
X159528845Y-99349500D01*
X159528842Y-99349500D01*
X159371158Y-99349500D01*
X159371155Y-99349500D01*
X159216510Y-99380261D01*
X159216498Y-99380264D01*
X159070827Y-99440602D01*
X159070814Y-99440609D01*
X158939711Y-99528210D01*
X158939707Y-99528213D01*
X158828213Y-99639707D01*
X158828210Y-99639711D01*
X158740609Y-99770814D01*
X158740602Y-99770827D01*
X158680264Y-99916498D01*
X158680261Y-99916510D01*
X158649500Y-100071153D01*
X154430608Y-100071153D01*
X154419738Y-100016510D01*
X154419737Y-100016503D01*
X154378314Y-99916498D01*
X154359397Y-99870827D01*
X154359390Y-99870814D01*
X154271789Y-99739711D01*
X154271786Y-99739707D01*
X154160292Y-99628213D01*
X154160288Y-99628210D01*
X154029185Y-99540609D01*
X154029172Y-99540602D01*
X153883501Y-99480264D01*
X153883489Y-99480261D01*
X153728845Y-99449500D01*
X153728842Y-99449500D01*
X153571158Y-99449500D01*
X153571155Y-99449500D01*
X153416510Y-99480261D01*
X153416498Y-99480264D01*
X153270827Y-99540602D01*
X153270814Y-99540609D01*
X153139711Y-99628210D01*
X153139707Y-99628213D01*
X153028213Y-99739707D01*
X153028210Y-99739711D01*
X152940609Y-99870814D01*
X152940602Y-99870827D01*
X152880264Y-100016498D01*
X152880261Y-100016510D01*
X152849500Y-100171153D01*
X140430608Y-100171153D01*
X140419738Y-100116510D01*
X140419737Y-100116503D01*
X140408452Y-100089258D01*
X140359397Y-99970827D01*
X140359390Y-99970814D01*
X140271789Y-99839711D01*
X140271786Y-99839707D01*
X140160292Y-99728213D01*
X140160288Y-99728210D01*
X140029185Y-99640609D01*
X140029172Y-99640602D01*
X139883501Y-99580264D01*
X139883489Y-99580261D01*
X139728845Y-99549500D01*
X139728842Y-99549500D01*
X139571158Y-99549500D01*
X139571155Y-99549500D01*
X139416510Y-99580261D01*
X139416498Y-99580264D01*
X139270827Y-99640602D01*
X139270814Y-99640609D01*
X139139711Y-99728210D01*
X139139707Y-99728213D01*
X139028213Y-99839707D01*
X139028210Y-99839711D01*
X138940609Y-99970814D01*
X138940602Y-99970827D01*
X138880264Y-100116498D01*
X138880261Y-100116510D01*
X138849500Y-100271153D01*
X120650500Y-100271153D01*
X120650500Y-98721153D01*
X137548500Y-98721153D01*
X137548500Y-98878846D01*
X137579261Y-99033489D01*
X137579264Y-99033501D01*
X137639602Y-99179172D01*
X137639609Y-99179185D01*
X137727210Y-99310288D01*
X137727213Y-99310292D01*
X137838707Y-99421786D01*
X137838711Y-99421789D01*
X137969814Y-99509390D01*
X137969827Y-99509397D01*
X138045181Y-99540609D01*
X138115503Y-99569737D01*
X138270153Y-99600499D01*
X138270156Y-99600500D01*
X138270158Y-99600500D01*
X138427844Y-99600500D01*
X138427845Y-99600499D01*
X138582497Y-99569737D01*
X138728179Y-99509394D01*
X138859289Y-99421789D01*
X138970789Y-99310289D01*
X139058394Y-99179179D01*
X139118737Y-99033497D01*
X139149500Y-98878842D01*
X139149500Y-98721158D01*
X139149500Y-98721155D01*
X139133209Y-98639258D01*
X139133209Y-98639257D01*
X139129608Y-98621153D01*
X157299500Y-98621153D01*
X157299500Y-98778846D01*
X157330261Y-98933489D01*
X157330264Y-98933501D01*
X157390602Y-99079172D01*
X157390609Y-99079185D01*
X157478210Y-99210288D01*
X157478213Y-99210292D01*
X157589707Y-99321786D01*
X157589711Y-99321789D01*
X157720814Y-99409390D01*
X157720827Y-99409397D01*
X157796181Y-99440609D01*
X157866503Y-99469737D01*
X158021153Y-99500499D01*
X158021156Y-99500500D01*
X158021158Y-99500500D01*
X158178844Y-99500500D01*
X158178845Y-99500499D01*
X158333497Y-99469737D01*
X158479179Y-99409394D01*
X158610289Y-99321789D01*
X158721789Y-99210289D01*
X158809394Y-99079179D01*
X158869737Y-98933497D01*
X158900500Y-98778842D01*
X158900500Y-98621158D01*
X158900500Y-98621155D01*
X158900499Y-98621153D01*
X158869738Y-98466510D01*
X158869737Y-98466503D01*
X158850812Y-98420814D01*
X158809397Y-98320827D01*
X158809390Y-98320814D01*
X158721789Y-98189711D01*
X158721786Y-98189707D01*
X158610292Y-98078213D01*
X158610288Y-98078210D01*
X158479185Y-97990609D01*
X158479172Y-97990602D01*
X158333501Y-97930264D01*
X158333489Y-97930261D01*
X158178845Y-97899500D01*
X158178842Y-97899500D01*
X158021158Y-97899500D01*
X158021155Y-97899500D01*
X157866510Y-97930261D01*
X157866498Y-97930264D01*
X157720827Y-97990602D01*
X157720814Y-97990609D01*
X157589711Y-98078210D01*
X157589707Y-98078213D01*
X157478213Y-98189707D01*
X157478210Y-98189711D01*
X157390609Y-98320814D01*
X157390602Y-98320827D01*
X157330264Y-98466498D01*
X157330261Y-98466510D01*
X157299500Y-98621153D01*
X139129608Y-98621153D01*
X139118738Y-98566510D01*
X139118737Y-98566503D01*
X139077314Y-98466498D01*
X139058397Y-98420827D01*
X139058390Y-98420814D01*
X138970789Y-98289711D01*
X138970786Y-98289707D01*
X138859292Y-98178213D01*
X138859288Y-98178210D01*
X138728185Y-98090609D01*
X138728172Y-98090602D01*
X138582501Y-98030264D01*
X138582489Y-98030261D01*
X138427845Y-97999500D01*
X138427842Y-97999500D01*
X138270158Y-97999500D01*
X138270155Y-97999500D01*
X138115510Y-98030261D01*
X138115498Y-98030264D01*
X137969827Y-98090602D01*
X137969814Y-98090609D01*
X137838711Y-98178210D01*
X137838707Y-98178213D01*
X137727213Y-98289707D01*
X137727210Y-98289711D01*
X137639609Y-98420814D01*
X137639602Y-98420827D01*
X137579264Y-98566498D01*
X137579261Y-98566510D01*
X137548500Y-98721153D01*
X120650500Y-98721153D01*
X120650500Y-96921153D01*
X142599500Y-96921153D01*
X142599500Y-97078846D01*
X142630261Y-97233489D01*
X142630264Y-97233501D01*
X142690602Y-97379172D01*
X142690609Y-97379185D01*
X142778210Y-97510288D01*
X142778213Y-97510292D01*
X142889707Y-97621786D01*
X142889711Y-97621789D01*
X143020814Y-97709390D01*
X143020827Y-97709397D01*
X143166498Y-97769735D01*
X143166503Y-97769737D01*
X143321153Y-97800499D01*
X143321156Y-97800500D01*
X143321158Y-97800500D01*
X143478844Y-97800500D01*
X143478845Y-97800499D01*
X143633497Y-97769737D01*
X143779179Y-97709394D01*
X143910289Y-97621789D01*
X144021789Y-97510289D01*
X144109394Y-97379179D01*
X144169737Y-97233497D01*
X144200500Y-97078842D01*
X144200500Y-96921158D01*
X144200500Y-96921155D01*
X144200499Y-96921153D01*
X144198159Y-96909390D01*
X144169737Y-96766503D01*
X144154172Y-96728925D01*
X154233956Y-96728925D01*
X154233956Y-96886618D01*
X154264717Y-97041261D01*
X154264720Y-97041273D01*
X154325058Y-97186944D01*
X154325065Y-97186957D01*
X154412666Y-97318060D01*
X154412669Y-97318064D01*
X154524163Y-97429558D01*
X154524167Y-97429561D01*
X154655270Y-97517162D01*
X154655283Y-97517169D01*
X154800954Y-97577507D01*
X154800959Y-97577509D01*
X154955609Y-97608271D01*
X154955612Y-97608272D01*
X154955614Y-97608272D01*
X155113300Y-97608272D01*
X155113301Y-97608271D01*
X155267953Y-97577509D01*
X155413635Y-97517166D01*
X155544745Y-97429561D01*
X155656245Y-97318061D01*
X155664564Y-97305609D01*
X155718175Y-97260805D01*
X155767667Y-97250500D01*
X155828844Y-97250500D01*
X155828845Y-97250499D01*
X155983497Y-97219737D01*
X156129179Y-97159394D01*
X156260289Y-97071789D01*
X156371789Y-96960289D01*
X156459394Y-96829179D01*
X156519737Y-96683497D01*
X156550500Y-96528842D01*
X156550500Y-96371158D01*
X156550500Y-96371155D01*
X156550499Y-96371153D01*
X156519737Y-96216503D01*
X156500955Y-96171158D01*
X156500953Y-96171153D01*
X158499500Y-96171153D01*
X158499500Y-96328846D01*
X158530261Y-96483489D01*
X158530264Y-96483501D01*
X158590602Y-96629172D01*
X158590609Y-96629185D01*
X158678210Y-96760288D01*
X158678213Y-96760292D01*
X158789707Y-96871786D01*
X158789711Y-96871789D01*
X158920814Y-96959390D01*
X158920827Y-96959397D01*
X159020060Y-97000500D01*
X159066503Y-97019737D01*
X159221153Y-97050499D01*
X159221156Y-97050500D01*
X159221158Y-97050500D01*
X159378844Y-97050500D01*
X159378845Y-97050499D01*
X159533497Y-97019737D01*
X159679179Y-96959394D01*
X159810289Y-96871789D01*
X159921789Y-96760289D01*
X160009394Y-96629179D01*
X160012854Y-96620827D01*
X160030102Y-96579185D01*
X160069737Y-96483497D01*
X160100500Y-96328842D01*
X160100500Y-96171158D01*
X160100500Y-96171155D01*
X160094155Y-96139258D01*
X160094155Y-96139257D01*
X160090554Y-96121153D01*
X163549500Y-96121153D01*
X163549500Y-96278846D01*
X163580261Y-96433489D01*
X163580264Y-96433501D01*
X163640602Y-96579172D01*
X163640609Y-96579185D01*
X163728210Y-96710288D01*
X163728213Y-96710292D01*
X163839707Y-96821786D01*
X163839711Y-96821789D01*
X163970814Y-96909390D01*
X163970827Y-96909397D01*
X164116498Y-96969735D01*
X164116503Y-96969737D01*
X164271153Y-97000499D01*
X164271156Y-97000500D01*
X164271158Y-97000500D01*
X164428844Y-97000500D01*
X164428845Y-97000499D01*
X164583497Y-96969737D01*
X164729179Y-96909394D01*
X164860289Y-96821789D01*
X164971789Y-96710289D01*
X165059394Y-96579179D01*
X165119737Y-96433497D01*
X165150500Y-96278842D01*
X165150500Y-96121158D01*
X165150500Y-96121155D01*
X165150499Y-96121153D01*
X165133966Y-96038036D01*
X165119737Y-95966503D01*
X165119735Y-95966498D01*
X165059397Y-95820827D01*
X165059390Y-95820814D01*
X164971789Y-95689711D01*
X164971786Y-95689707D01*
X164860292Y-95578213D01*
X164860288Y-95578210D01*
X164729185Y-95490609D01*
X164729172Y-95490602D01*
X164583501Y-95430264D01*
X164583489Y-95430261D01*
X164428845Y-95399500D01*
X164428842Y-95399500D01*
X164271158Y-95399500D01*
X164271155Y-95399500D01*
X164116510Y-95430261D01*
X164116498Y-95430264D01*
X163970827Y-95490602D01*
X163970814Y-95490609D01*
X163839711Y-95578210D01*
X163839707Y-95578213D01*
X163728213Y-95689707D01*
X163728210Y-95689711D01*
X163640609Y-95820814D01*
X163640602Y-95820827D01*
X163580264Y-95966498D01*
X163580261Y-95966510D01*
X163549500Y-96121153D01*
X160090554Y-96121153D01*
X160074020Y-96038035D01*
X160069737Y-96016503D01*
X160069735Y-96016498D01*
X160009397Y-95870827D01*
X160009390Y-95870814D01*
X159921789Y-95739711D01*
X159921786Y-95739707D01*
X159810292Y-95628213D01*
X159810288Y-95628210D01*
X159679185Y-95540609D01*
X159679172Y-95540602D01*
X159533501Y-95480264D01*
X159533489Y-95480261D01*
X159378845Y-95449500D01*
X159378842Y-95449500D01*
X159221158Y-95449500D01*
X159221155Y-95449500D01*
X159066510Y-95480261D01*
X159066498Y-95480264D01*
X158920827Y-95540602D01*
X158920814Y-95540609D01*
X158789711Y-95628210D01*
X158789707Y-95628213D01*
X158678213Y-95739707D01*
X158678210Y-95739711D01*
X158590609Y-95870814D01*
X158590602Y-95870827D01*
X158530264Y-96016498D01*
X158530261Y-96016510D01*
X158499500Y-96171153D01*
X156500953Y-96171153D01*
X156459397Y-96070827D01*
X156459390Y-96070814D01*
X156371789Y-95939711D01*
X156371786Y-95939707D01*
X156260292Y-95828213D01*
X156260288Y-95828210D01*
X156129185Y-95740609D01*
X156129172Y-95740602D01*
X155983501Y-95680264D01*
X155983489Y-95680261D01*
X155828845Y-95649500D01*
X155828842Y-95649500D01*
X155671158Y-95649500D01*
X155671155Y-95649500D01*
X155516510Y-95680261D01*
X155516498Y-95680264D01*
X155370827Y-95740602D01*
X155370814Y-95740609D01*
X155239711Y-95828210D01*
X155239707Y-95828213D01*
X155128214Y-95939706D01*
X155128211Y-95939711D01*
X155119891Y-95952162D01*
X155066281Y-95996967D01*
X155016789Y-96007272D01*
X154955611Y-96007272D01*
X154800966Y-96038033D01*
X154800954Y-96038036D01*
X154655283Y-96098374D01*
X154655270Y-96098381D01*
X154524167Y-96185982D01*
X154524163Y-96185985D01*
X154412669Y-96297479D01*
X154412666Y-96297483D01*
X154325065Y-96428586D01*
X154325058Y-96428599D01*
X154264720Y-96574270D01*
X154264717Y-96574282D01*
X154233956Y-96728925D01*
X144154172Y-96728925D01*
X144135352Y-96683489D01*
X144109397Y-96620827D01*
X144109390Y-96620814D01*
X144021789Y-96489711D01*
X144021786Y-96489707D01*
X143910292Y-96378213D01*
X143910288Y-96378210D01*
X143779185Y-96290609D01*
X143779172Y-96290602D01*
X143633501Y-96230264D01*
X143633489Y-96230261D01*
X143478845Y-96199500D01*
X143478842Y-96199500D01*
X143321158Y-96199500D01*
X143321155Y-96199500D01*
X143166510Y-96230261D01*
X143166498Y-96230264D01*
X143020827Y-96290602D01*
X143020814Y-96290609D01*
X142889711Y-96378210D01*
X142889707Y-96378213D01*
X142778213Y-96489707D01*
X142778210Y-96489711D01*
X142690609Y-96620814D01*
X142690602Y-96620827D01*
X142630264Y-96766498D01*
X142630261Y-96766510D01*
X142599500Y-96921153D01*
X120650500Y-96921153D01*
X120650500Y-89502135D01*
X121149500Y-89502135D01*
X121149500Y-91297870D01*
X121149501Y-91297876D01*
X121155908Y-91357483D01*
X121206202Y-91492328D01*
X121206206Y-91492335D01*
X121292452Y-91607544D01*
X121292455Y-91607547D01*
X121407664Y-91693793D01*
X121407671Y-91693797D01*
X121539082Y-91742810D01*
X121595016Y-91784681D01*
X121619433Y-91850145D01*
X121604582Y-91918418D01*
X121583431Y-91946673D01*
X121469889Y-92060215D01*
X121344951Y-92232179D01*
X121248444Y-92421585D01*
X121182753Y-92623760D01*
X121149500Y-92833713D01*
X121149500Y-93046286D01*
X121180135Y-93239711D01*
X121182754Y-93256243D01*
X121219904Y-93370579D01*
X121248444Y-93458414D01*
X121344951Y-93647820D01*
X121469890Y-93819786D01*
X121620213Y-93970109D01*
X121792179Y-94095048D01*
X121792181Y-94095049D01*
X121792184Y-94095051D01*
X121981588Y-94191557D01*
X122183757Y-94257246D01*
X122393713Y-94290500D01*
X122393714Y-94290500D01*
X122606286Y-94290500D01*
X122606287Y-94290500D01*
X122816243Y-94257246D01*
X123018412Y-94191557D01*
X123207816Y-94095051D01*
X123280374Y-94042335D01*
X123379786Y-93970109D01*
X123379788Y-93970106D01*
X123379792Y-93970104D01*
X123530104Y-93819792D01*
X123530106Y-93819788D01*
X123530109Y-93819786D01*
X123638096Y-93671153D01*
X136799500Y-93671153D01*
X136799500Y-93828846D01*
X136830261Y-93983489D01*
X136830264Y-93983501D01*
X136890602Y-94129172D01*
X136890609Y-94129185D01*
X136978210Y-94260288D01*
X136978213Y-94260292D01*
X137089707Y-94371786D01*
X137089711Y-94371789D01*
X137220814Y-94459390D01*
X137220827Y-94459397D01*
X137365914Y-94519493D01*
X137366503Y-94519737D01*
X137519936Y-94550257D01*
X137521153Y-94550499D01*
X137521156Y-94550500D01*
X137521158Y-94550500D01*
X137678844Y-94550500D01*
X137678845Y-94550499D01*
X137833497Y-94519737D01*
X137979179Y-94459394D01*
X138110289Y-94371789D01*
X138221789Y-94260289D01*
X138309394Y-94129179D01*
X138369737Y-93983497D01*
X138400500Y-93828842D01*
X138400500Y-93671158D01*
X138400500Y-93671154D01*
X138400452Y-93670911D01*
X149974803Y-93670911D01*
X149974803Y-93828604D01*
X150005564Y-93983247D01*
X150005567Y-93983259D01*
X150065905Y-94128930D01*
X150065912Y-94128943D01*
X150153513Y-94260046D01*
X150153516Y-94260050D01*
X150265010Y-94371544D01*
X150265014Y-94371547D01*
X150396117Y-94459148D01*
X150396130Y-94459155D01*
X150541801Y-94519493D01*
X150541806Y-94519495D01*
X150696456Y-94550257D01*
X150696459Y-94550258D01*
X150696461Y-94550258D01*
X150854147Y-94550258D01*
X150854148Y-94550257D01*
X151008800Y-94519495D01*
X151153898Y-94459394D01*
X151154475Y-94459155D01*
X151154475Y-94459154D01*
X151154482Y-94459152D01*
X151285592Y-94371547D01*
X151397092Y-94260047D01*
X151484697Y-94128937D01*
X151495265Y-94103422D01*
X151539104Y-94049019D01*
X151585632Y-94029257D01*
X151633497Y-94019737D01*
X151779179Y-93959394D01*
X151910289Y-93871789D01*
X152021789Y-93760289D01*
X152109394Y-93629179D01*
X152169737Y-93483497D01*
X152200500Y-93328842D01*
X152200500Y-93171158D01*
X152200500Y-93171155D01*
X152200499Y-93171153D01*
X152191957Y-93128210D01*
X152169737Y-93016503D01*
X152169735Y-93016498D01*
X152109397Y-92870827D01*
X152109390Y-92870814D01*
X152021789Y-92739711D01*
X152021786Y-92739707D01*
X151910292Y-92628213D01*
X151910288Y-92628210D01*
X151779185Y-92540609D01*
X151779172Y-92540602D01*
X151633501Y-92480264D01*
X151633489Y-92480261D01*
X151478845Y-92449500D01*
X151478842Y-92449500D01*
X151321158Y-92449500D01*
X151321155Y-92449500D01*
X151166510Y-92480261D01*
X151166498Y-92480264D01*
X151020827Y-92540602D01*
X151020814Y-92540609D01*
X150889711Y-92628210D01*
X150889707Y-92628213D01*
X150778213Y-92739707D01*
X150778210Y-92739711D01*
X150690609Y-92870814D01*
X150690604Y-92870823D01*
X150680035Y-92896339D01*
X150636192Y-92950741D01*
X150589667Y-92970500D01*
X150541811Y-92980019D01*
X150541801Y-92980022D01*
X150396130Y-93040360D01*
X150396117Y-93040367D01*
X150265014Y-93127968D01*
X150265010Y-93127971D01*
X150153516Y-93239465D01*
X150153513Y-93239469D01*
X150065912Y-93370572D01*
X150065905Y-93370585D01*
X150005567Y-93516256D01*
X150005564Y-93516268D01*
X149974803Y-93670911D01*
X138400452Y-93670911D01*
X138369738Y-93516510D01*
X138369737Y-93516503D01*
X138345675Y-93458412D01*
X138309397Y-93370827D01*
X138309390Y-93370814D01*
X138221789Y-93239711D01*
X138221786Y-93239707D01*
X138110292Y-93128213D01*
X138110288Y-93128210D01*
X137979185Y-93040609D01*
X137979172Y-93040602D01*
X137833501Y-92980264D01*
X137833489Y-92980261D01*
X137678845Y-92949500D01*
X137678842Y-92949500D01*
X137521158Y-92949500D01*
X137521155Y-92949500D01*
X137366510Y-92980261D01*
X137366498Y-92980264D01*
X137220827Y-93040602D01*
X137220814Y-93040609D01*
X137089711Y-93128210D01*
X137089707Y-93128213D01*
X136978213Y-93239707D01*
X136978210Y-93239711D01*
X136890609Y-93370814D01*
X136890602Y-93370827D01*
X136830264Y-93516498D01*
X136830261Y-93516510D01*
X136799500Y-93671153D01*
X123638096Y-93671153D01*
X123638268Y-93670916D01*
X123655051Y-93647816D01*
X123751557Y-93458412D01*
X123817246Y-93256243D01*
X123850500Y-93046287D01*
X123850500Y-92833713D01*
X123817246Y-92623757D01*
X123751557Y-92421588D01*
X123655051Y-92232184D01*
X123655049Y-92232181D01*
X123655048Y-92232179D01*
X123530109Y-92060213D01*
X123416569Y-91946673D01*
X123383084Y-91885350D01*
X123388068Y-91815658D01*
X123429940Y-91759725D01*
X123460915Y-91742810D01*
X123592331Y-91693796D01*
X123707546Y-91607546D01*
X123793796Y-91492331D01*
X123844091Y-91357483D01*
X123850500Y-91297873D01*
X123850500Y-90921153D01*
X144249500Y-90921153D01*
X144249500Y-91078846D01*
X144280261Y-91233489D01*
X144280264Y-91233501D01*
X144340602Y-91379172D01*
X144340609Y-91379185D01*
X144428210Y-91510288D01*
X144428213Y-91510292D01*
X144539707Y-91621786D01*
X144539711Y-91621789D01*
X144670814Y-91709390D01*
X144670827Y-91709397D01*
X144816498Y-91769735D01*
X144816503Y-91769737D01*
X144971153Y-91800499D01*
X144971156Y-91800500D01*
X144971158Y-91800500D01*
X145128844Y-91800500D01*
X145128845Y-91800499D01*
X145283497Y-91769737D01*
X145429179Y-91709394D01*
X145560289Y-91621789D01*
X145671789Y-91510289D01*
X145759394Y-91379179D01*
X145819737Y-91233497D01*
X145850500Y-91078842D01*
X145850500Y-90921158D01*
X145850500Y-90921155D01*
X145850499Y-90921153D01*
X145830326Y-90819736D01*
X145819737Y-90766503D01*
X145780242Y-90671153D01*
X149499500Y-90671153D01*
X149499500Y-90828846D01*
X149530261Y-90983489D01*
X149530264Y-90983501D01*
X149590602Y-91129172D01*
X149590609Y-91129185D01*
X149678210Y-91260288D01*
X149678213Y-91260292D01*
X149789707Y-91371786D01*
X149789711Y-91371789D01*
X149920814Y-91459390D01*
X149920827Y-91459397D01*
X150066498Y-91519735D01*
X150066503Y-91519737D01*
X150221153Y-91550499D01*
X150221156Y-91550500D01*
X150221158Y-91550500D01*
X150378844Y-91550500D01*
X150378845Y-91550499D01*
X150533497Y-91519737D01*
X150679179Y-91459394D01*
X150810289Y-91371789D01*
X150921789Y-91260289D01*
X150981348Y-91171153D01*
X152999500Y-91171153D01*
X152999500Y-91328846D01*
X153030261Y-91483489D01*
X153030264Y-91483501D01*
X153090602Y-91629172D01*
X153090609Y-91629185D01*
X153178210Y-91760288D01*
X153178213Y-91760292D01*
X153289707Y-91871786D01*
X153289711Y-91871789D01*
X153420814Y-91959390D01*
X153420827Y-91959397D01*
X153566498Y-92019735D01*
X153566503Y-92019737D01*
X153721153Y-92050499D01*
X153721156Y-92050500D01*
X153721158Y-92050500D01*
X153878844Y-92050500D01*
X153878845Y-92050499D01*
X154033497Y-92019737D01*
X154179179Y-91959394D01*
X154310289Y-91871789D01*
X154421789Y-91760289D01*
X154509394Y-91629179D01*
X154518503Y-91607189D01*
X154548677Y-91534341D01*
X154569737Y-91483497D01*
X154600500Y-91328842D01*
X154600500Y-91171158D01*
X154600500Y-91171155D01*
X154600499Y-91171153D01*
X154589890Y-91117820D01*
X154569737Y-91016503D01*
X154530242Y-90921153D01*
X154509397Y-90870827D01*
X154509390Y-90870814D01*
X154421789Y-90739711D01*
X154421786Y-90739707D01*
X154310292Y-90628213D01*
X154310288Y-90628210D01*
X154179185Y-90540609D01*
X154179172Y-90540602D01*
X154033501Y-90480264D01*
X154033489Y-90480261D01*
X153878845Y-90449500D01*
X153878842Y-90449500D01*
X153721158Y-90449500D01*
X153721155Y-90449500D01*
X153566510Y-90480261D01*
X153566498Y-90480264D01*
X153420827Y-90540602D01*
X153420814Y-90540609D01*
X153289711Y-90628210D01*
X153289707Y-90628213D01*
X153178213Y-90739707D01*
X153178210Y-90739711D01*
X153090609Y-90870814D01*
X153090602Y-90870827D01*
X153030264Y-91016498D01*
X153030261Y-91016510D01*
X152999500Y-91171153D01*
X150981348Y-91171153D01*
X151009394Y-91129179D01*
X151069737Y-90983497D01*
X151100500Y-90828842D01*
X151100500Y-90671158D01*
X151100500Y-90671155D01*
X151100499Y-90671153D01*
X151078447Y-90560292D01*
X151069737Y-90516503D01*
X151069647Y-90516286D01*
X151009397Y-90370827D01*
X151009389Y-90370813D01*
X151007329Y-90367729D01*
X150964554Y-90303713D01*
X170649500Y-90303713D01*
X170649500Y-90516287D01*
X170649534Y-90516503D01*
X170682048Y-90721789D01*
X170682754Y-90726243D01*
X170746084Y-90921153D01*
X170748444Y-90928414D01*
X170844951Y-91117820D01*
X170969890Y-91289786D01*
X171083430Y-91403326D01*
X171116915Y-91464649D01*
X171111931Y-91534341D01*
X171070059Y-91590274D01*
X171039083Y-91607189D01*
X170907669Y-91656203D01*
X170907664Y-91656206D01*
X170792455Y-91742452D01*
X170792452Y-91742455D01*
X170706206Y-91857664D01*
X170706202Y-91857671D01*
X170655908Y-91992517D01*
X170652982Y-92019737D01*
X170649501Y-92052123D01*
X170649500Y-92052135D01*
X170649500Y-93847870D01*
X170649501Y-93847876D01*
X170655908Y-93907483D01*
X170706202Y-94042328D01*
X170706206Y-94042335D01*
X170792452Y-94157544D01*
X170792455Y-94157547D01*
X170907664Y-94243793D01*
X170907671Y-94243797D01*
X171042517Y-94294091D01*
X171042516Y-94294091D01*
X171049444Y-94294835D01*
X171102127Y-94300500D01*
X172897872Y-94300499D01*
X172957483Y-94294091D01*
X173092331Y-94243796D01*
X173207546Y-94157546D01*
X173293796Y-94042331D01*
X173344091Y-93907483D01*
X173350500Y-93847873D01*
X173350499Y-92052128D01*
X173344091Y-91992517D01*
X173331735Y-91959390D01*
X173293797Y-91857671D01*
X173293793Y-91857664D01*
X173207547Y-91742455D01*
X173207544Y-91742452D01*
X173092335Y-91656206D01*
X173092328Y-91656202D01*
X172960917Y-91607189D01*
X172904983Y-91565318D01*
X172880566Y-91499853D01*
X172895418Y-91431580D01*
X172916563Y-91403332D01*
X173030104Y-91289792D01*
X173071005Y-91233497D01*
X173155048Y-91117820D01*
X173155047Y-91117820D01*
X173155051Y-91117816D01*
X173251557Y-90928412D01*
X173317246Y-90726243D01*
X173350500Y-90516287D01*
X173350500Y-90303713D01*
X173317246Y-90093757D01*
X173251557Y-89891588D01*
X173155051Y-89702184D01*
X173155049Y-89702181D01*
X173155048Y-89702179D01*
X173030109Y-89530213D01*
X172879786Y-89379890D01*
X172707820Y-89254951D01*
X172518414Y-89158444D01*
X172518413Y-89158443D01*
X172518412Y-89158443D01*
X172316243Y-89092754D01*
X172316241Y-89092753D01*
X172316240Y-89092753D01*
X172154957Y-89067208D01*
X172106287Y-89059500D01*
X171893713Y-89059500D01*
X171845042Y-89067208D01*
X171683760Y-89092753D01*
X171481585Y-89158444D01*
X171292179Y-89254951D01*
X171120213Y-89379890D01*
X170969890Y-89530213D01*
X170844951Y-89702179D01*
X170748444Y-89891585D01*
X170682753Y-90093760D01*
X170659637Y-90239711D01*
X170649500Y-90303713D01*
X150964554Y-90303713D01*
X150921789Y-90239711D01*
X150921786Y-90239707D01*
X150810292Y-90128213D01*
X150810288Y-90128210D01*
X150679185Y-90040609D01*
X150679172Y-90040602D01*
X150533501Y-89980264D01*
X150533489Y-89980261D01*
X150378845Y-89949500D01*
X150378842Y-89949500D01*
X150221158Y-89949500D01*
X150221155Y-89949500D01*
X150066510Y-89980261D01*
X150066498Y-89980264D01*
X149920827Y-90040602D01*
X149920814Y-90040609D01*
X149789711Y-90128210D01*
X149789707Y-90128213D01*
X149678213Y-90239707D01*
X149678210Y-90239711D01*
X149590609Y-90370814D01*
X149590602Y-90370827D01*
X149530264Y-90516498D01*
X149530261Y-90516510D01*
X149499500Y-90671153D01*
X145780242Y-90671153D01*
X145762455Y-90628210D01*
X145759397Y-90620827D01*
X145759390Y-90620814D01*
X145671789Y-90489711D01*
X145671786Y-90489707D01*
X145560292Y-90378213D01*
X145560288Y-90378210D01*
X145429185Y-90290609D01*
X145429172Y-90290602D01*
X145283501Y-90230264D01*
X145283489Y-90230261D01*
X145128845Y-90199500D01*
X145128842Y-90199500D01*
X144971158Y-90199500D01*
X144971155Y-90199500D01*
X144816510Y-90230261D01*
X144816498Y-90230264D01*
X144670827Y-90290602D01*
X144670814Y-90290609D01*
X144539711Y-90378210D01*
X144539707Y-90378213D01*
X144428213Y-90489707D01*
X144428210Y-90489711D01*
X144340609Y-90620814D01*
X144340602Y-90620827D01*
X144280264Y-90766498D01*
X144280261Y-90766510D01*
X144249500Y-90921153D01*
X123850500Y-90921153D01*
X123850499Y-90021153D01*
X132649500Y-90021153D01*
X132649500Y-90178846D01*
X132680261Y-90333489D01*
X132680264Y-90333501D01*
X132740602Y-90479172D01*
X132740609Y-90479185D01*
X132828210Y-90610288D01*
X132828213Y-90610292D01*
X132939707Y-90721786D01*
X132939711Y-90721789D01*
X133070814Y-90809390D01*
X133070827Y-90809397D01*
X133170060Y-90850500D01*
X133216503Y-90869737D01*
X133371153Y-90900499D01*
X133371156Y-90900500D01*
X133371158Y-90900500D01*
X133528844Y-90900500D01*
X133528845Y-90900499D01*
X133683497Y-90869737D01*
X133829179Y-90809394D01*
X133960289Y-90721789D01*
X133970140Y-90711938D01*
X134031462Y-90678451D01*
X134101153Y-90683433D01*
X134126713Y-90696512D01*
X134220821Y-90759394D01*
X134220823Y-90759395D01*
X134220827Y-90759397D01*
X134366498Y-90819735D01*
X134366503Y-90819737D01*
X134521153Y-90850499D01*
X134521156Y-90850500D01*
X134521158Y-90850500D01*
X134678844Y-90850500D01*
X134678845Y-90850499D01*
X134833497Y-90819737D01*
X134979179Y-90759394D01*
X135110289Y-90671789D01*
X135221789Y-90560289D01*
X135309394Y-90429179D01*
X135369737Y-90283497D01*
X135400500Y-90128842D01*
X135400500Y-89971158D01*
X135400500Y-89971155D01*
X135400499Y-89971153D01*
X135379684Y-89866510D01*
X135369737Y-89816503D01*
X135322383Y-89702179D01*
X135309397Y-89670827D01*
X135309390Y-89670814D01*
X135221789Y-89539711D01*
X135221786Y-89539707D01*
X135110292Y-89428213D01*
X135110288Y-89428210D01*
X134979185Y-89340609D01*
X134979172Y-89340602D01*
X134833501Y-89280264D01*
X134833489Y-89280261D01*
X134678845Y-89249500D01*
X134678842Y-89249500D01*
X134521158Y-89249500D01*
X134521155Y-89249500D01*
X134366510Y-89280261D01*
X134366498Y-89280264D01*
X134220827Y-89340602D01*
X134220814Y-89340609D01*
X134089711Y-89428210D01*
X134089705Y-89428215D01*
X134079853Y-89438067D01*
X134018529Y-89471550D01*
X133948837Y-89466563D01*
X133923284Y-89453485D01*
X133829184Y-89390609D01*
X133829172Y-89390602D01*
X133683501Y-89330264D01*
X133683489Y-89330261D01*
X133528845Y-89299500D01*
X133528842Y-89299500D01*
X133371158Y-89299500D01*
X133371155Y-89299500D01*
X133216510Y-89330261D01*
X133216498Y-89330264D01*
X133070827Y-89390602D01*
X133070814Y-89390609D01*
X132939711Y-89478210D01*
X132939707Y-89478213D01*
X132828213Y-89589707D01*
X132828210Y-89589711D01*
X132740609Y-89720814D01*
X132740602Y-89720827D01*
X132680264Y-89866498D01*
X132680261Y-89866510D01*
X132649500Y-90021153D01*
X123850499Y-90021153D01*
X123850499Y-89502128D01*
X123844091Y-89442517D01*
X123842431Y-89438067D01*
X123793797Y-89307671D01*
X123793793Y-89307664D01*
X123707547Y-89192455D01*
X123707544Y-89192452D01*
X123592335Y-89106206D01*
X123592328Y-89106202D01*
X123457482Y-89055908D01*
X123457483Y-89055908D01*
X123397883Y-89049501D01*
X123397881Y-89049500D01*
X123397873Y-89049500D01*
X123397864Y-89049500D01*
X121602129Y-89049500D01*
X121602123Y-89049501D01*
X121542516Y-89055908D01*
X121407671Y-89106202D01*
X121407664Y-89106206D01*
X121292455Y-89192452D01*
X121292452Y-89192455D01*
X121206206Y-89307664D01*
X121206202Y-89307671D01*
X121155908Y-89442517D01*
X121152071Y-89478210D01*
X121149501Y-89502123D01*
X121149500Y-89502135D01*
X120650500Y-89502135D01*
X120650500Y-86521153D01*
X128749500Y-86521153D01*
X128749500Y-86678846D01*
X128780261Y-86833489D01*
X128780264Y-86833501D01*
X128840602Y-86979172D01*
X128840609Y-86979185D01*
X128928210Y-87110288D01*
X128928213Y-87110292D01*
X129039707Y-87221786D01*
X129039711Y-87221789D01*
X129170814Y-87309390D01*
X129170827Y-87309397D01*
X129316498Y-87369735D01*
X129316503Y-87369737D01*
X129471153Y-87400499D01*
X129471156Y-87400500D01*
X129471158Y-87400500D01*
X129628844Y-87400500D01*
X129628845Y-87400499D01*
X129783497Y-87369737D01*
X129929179Y-87309394D01*
X130060289Y-87221789D01*
X130171789Y-87110289D01*
X130259394Y-86979179D01*
X130319737Y-86833497D01*
X130330284Y-86780475D01*
X130362668Y-86718564D01*
X130423384Y-86683990D01*
X130493153Y-86687729D01*
X130520793Y-86701565D01*
X130546625Y-86718826D01*
X130546640Y-86718834D01*
X130672133Y-86770814D01*
X130692316Y-86779174D01*
X130846966Y-86809936D01*
X130846969Y-86809937D01*
X130846971Y-86809937D01*
X131004657Y-86809937D01*
X131004658Y-86809936D01*
X131159310Y-86779174D01*
X131183028Y-86769349D01*
X131252494Y-86761881D01*
X131314974Y-86793155D01*
X131350627Y-86853244D01*
X131352097Y-86908100D01*
X131349500Y-86921157D01*
X131349500Y-87078846D01*
X131380261Y-87233489D01*
X131380264Y-87233501D01*
X131440602Y-87379172D01*
X131440609Y-87379185D01*
X131528210Y-87510288D01*
X131528213Y-87510292D01*
X131639707Y-87621786D01*
X131639711Y-87621789D01*
X131770814Y-87709390D01*
X131770827Y-87709397D01*
X131908683Y-87766498D01*
X131916503Y-87769737D01*
X132071153Y-87800499D01*
X132071156Y-87800500D01*
X132071158Y-87800500D01*
X132228844Y-87800500D01*
X132228845Y-87800499D01*
X132383497Y-87769737D01*
X132529179Y-87709394D01*
X132660289Y-87621789D01*
X132771789Y-87510289D01*
X132859394Y-87379179D01*
X132863306Y-87369735D01*
X132893784Y-87296153D01*
X140749500Y-87296153D01*
X140749500Y-87453846D01*
X140780261Y-87608489D01*
X140780264Y-87608501D01*
X140840602Y-87754172D01*
X140840609Y-87754185D01*
X140928210Y-87885288D01*
X140928213Y-87885292D01*
X141039707Y-87996786D01*
X141039711Y-87996789D01*
X141170814Y-88084390D01*
X141170827Y-88084397D01*
X141316498Y-88144735D01*
X141316503Y-88144737D01*
X141471153Y-88175499D01*
X141471156Y-88175500D01*
X141471158Y-88175500D01*
X141628844Y-88175500D01*
X141628845Y-88175499D01*
X141783497Y-88144737D01*
X141929179Y-88084394D01*
X142060289Y-87996789D01*
X142135925Y-87921153D01*
X149124500Y-87921153D01*
X149124500Y-88078846D01*
X149155261Y-88233489D01*
X149155264Y-88233501D01*
X149215602Y-88379172D01*
X149215609Y-88379185D01*
X149303210Y-88510288D01*
X149303213Y-88510292D01*
X149414707Y-88621786D01*
X149414711Y-88621789D01*
X149545814Y-88709390D01*
X149545827Y-88709397D01*
X149691498Y-88769735D01*
X149691503Y-88769737D01*
X149846153Y-88800499D01*
X149846156Y-88800500D01*
X149846158Y-88800500D01*
X150003844Y-88800500D01*
X150003845Y-88800499D01*
X150158497Y-88769737D01*
X150304179Y-88709394D01*
X150435289Y-88621789D01*
X150546789Y-88510289D01*
X150634394Y-88379179D01*
X150694737Y-88233497D01*
X150725500Y-88078842D01*
X150725500Y-87921158D01*
X150725500Y-87921155D01*
X150725499Y-87921153D01*
X150718365Y-87885288D01*
X150694737Y-87766503D01*
X150689632Y-87754179D01*
X150645892Y-87648578D01*
X150638423Y-87579109D01*
X150657353Y-87532232D01*
X150659394Y-87529179D01*
X150719737Y-87383497D01*
X150750500Y-87228842D01*
X150750500Y-87071158D01*
X150750500Y-87071155D01*
X150750499Y-87071153D01*
X150719737Y-86916503D01*
X150698283Y-86864707D01*
X150659397Y-86770827D01*
X150659390Y-86770814D01*
X150571789Y-86639711D01*
X150571786Y-86639707D01*
X150460292Y-86528213D01*
X150460288Y-86528210D01*
X150329185Y-86440609D01*
X150329172Y-86440602D01*
X150183501Y-86380264D01*
X150183489Y-86380261D01*
X150028845Y-86349500D01*
X150028842Y-86349500D01*
X149871158Y-86349500D01*
X149871155Y-86349500D01*
X149716510Y-86380261D01*
X149716498Y-86380264D01*
X149570827Y-86440602D01*
X149570814Y-86440609D01*
X149439711Y-86528210D01*
X149439707Y-86528213D01*
X149328213Y-86639707D01*
X149328210Y-86639711D01*
X149240609Y-86770814D01*
X149240602Y-86770827D01*
X149180264Y-86916498D01*
X149180261Y-86916510D01*
X149149500Y-87071153D01*
X149149500Y-87228846D01*
X149180261Y-87383489D01*
X149180264Y-87383501D01*
X149229107Y-87501420D01*
X149236576Y-87570890D01*
X149217656Y-87617751D01*
X149215612Y-87620809D01*
X149215602Y-87620828D01*
X149155264Y-87766498D01*
X149155261Y-87766510D01*
X149124500Y-87921153D01*
X142135925Y-87921153D01*
X142171789Y-87885289D01*
X142259394Y-87754179D01*
X142319737Y-87608497D01*
X142350500Y-87453842D01*
X142350500Y-87296158D01*
X142350500Y-87296155D01*
X142350499Y-87296153D01*
X142319738Y-87141510D01*
X142319737Y-87141503D01*
X142306808Y-87110289D01*
X142259397Y-86995827D01*
X142259390Y-86995814D01*
X142171789Y-86864711D01*
X142171786Y-86864707D01*
X142060292Y-86753213D01*
X142060288Y-86753210D01*
X141929185Y-86665609D01*
X141929172Y-86665602D01*
X141783501Y-86605264D01*
X141783489Y-86605261D01*
X141628845Y-86574500D01*
X141628842Y-86574500D01*
X141471158Y-86574500D01*
X141471155Y-86574500D01*
X141316510Y-86605261D01*
X141316498Y-86605264D01*
X141170827Y-86665602D01*
X141170814Y-86665609D01*
X141039711Y-86753210D01*
X141039707Y-86753213D01*
X140928213Y-86864707D01*
X140928210Y-86864711D01*
X140840609Y-86995814D01*
X140840602Y-86995827D01*
X140780264Y-87141498D01*
X140780261Y-87141510D01*
X140749500Y-87296153D01*
X132893784Y-87296153D01*
X132915958Y-87242621D01*
X132915958Y-87242619D01*
X132919737Y-87233497D01*
X132950500Y-87078842D01*
X132950500Y-86921158D01*
X132950500Y-86921157D01*
X132950500Y-86921155D01*
X132950499Y-86921153D01*
X132932467Y-86830500D01*
X132919737Y-86766503D01*
X132892398Y-86700500D01*
X132859397Y-86620827D01*
X132859390Y-86620814D01*
X132771789Y-86489711D01*
X132771786Y-86489707D01*
X132660292Y-86378213D01*
X132660288Y-86378210D01*
X132529185Y-86290609D01*
X132529172Y-86290602D01*
X132383501Y-86230264D01*
X132383489Y-86230261D01*
X132228845Y-86199500D01*
X132228842Y-86199500D01*
X132071158Y-86199500D01*
X132071155Y-86199500D01*
X131916510Y-86230261D01*
X131916503Y-86230263D01*
X131892782Y-86240088D01*
X131823313Y-86247554D01*
X131760834Y-86216277D01*
X131725184Y-86156187D01*
X131721393Y-86121678D01*
X131721711Y-86111411D01*
X131726313Y-86088279D01*
X131726313Y-85971153D01*
X133899500Y-85971153D01*
X133899500Y-86128846D01*
X133930261Y-86283489D01*
X133930264Y-86283501D01*
X133990602Y-86429172D01*
X133990609Y-86429185D01*
X134078210Y-86560288D01*
X134078213Y-86560292D01*
X134189707Y-86671786D01*
X134189711Y-86671789D01*
X134320814Y-86759390D01*
X134320827Y-86759397D01*
X134466498Y-86819735D01*
X134466503Y-86819737D01*
X134621153Y-86850499D01*
X134621156Y-86850500D01*
X134621158Y-86850500D01*
X134778844Y-86850500D01*
X134778845Y-86850499D01*
X134933497Y-86819737D01*
X135051592Y-86770821D01*
X135079172Y-86759397D01*
X135079172Y-86759396D01*
X135079179Y-86759394D01*
X135210289Y-86671789D01*
X135321789Y-86560289D01*
X135322505Y-86559217D01*
X135323026Y-86558781D01*
X135325653Y-86555581D01*
X135326259Y-86556078D01*
X135376108Y-86514406D01*
X135445432Y-86505689D01*
X135494506Y-86524993D01*
X135620814Y-86609390D01*
X135620827Y-86609397D01*
X135694013Y-86639711D01*
X135766503Y-86669737D01*
X135921153Y-86700499D01*
X135921156Y-86700500D01*
X135921158Y-86700500D01*
X136078844Y-86700500D01*
X136078845Y-86700499D01*
X136233497Y-86669737D01*
X136351592Y-86620821D01*
X136379172Y-86609397D01*
X136379172Y-86609396D01*
X136379179Y-86609394D01*
X136510289Y-86521789D01*
X136621789Y-86410289D01*
X136709394Y-86279179D01*
X136733567Y-86220821D01*
X136750793Y-86179234D01*
X158484500Y-86179234D01*
X158484500Y-86330766D01*
X158497213Y-86378211D01*
X158523719Y-86477136D01*
X158549133Y-86521153D01*
X158599485Y-86608365D01*
X158706635Y-86715515D01*
X158837865Y-86791281D01*
X158984234Y-86830500D01*
X158984236Y-86830500D01*
X159135764Y-86830500D01*
X159135766Y-86830500D01*
X159282135Y-86791281D01*
X159413365Y-86715515D01*
X159520515Y-86608365D01*
X159596281Y-86477135D01*
X159635500Y-86330766D01*
X159635500Y-86179234D01*
X164264500Y-86179234D01*
X164264500Y-86330766D01*
X164277213Y-86378211D01*
X164303719Y-86477136D01*
X164329133Y-86521153D01*
X164379485Y-86608365D01*
X164486635Y-86715515D01*
X164617865Y-86791281D01*
X164764234Y-86830500D01*
X164764236Y-86830500D01*
X164915764Y-86830500D01*
X164915766Y-86830500D01*
X165062135Y-86791281D01*
X165193365Y-86715515D01*
X165300515Y-86608365D01*
X165376281Y-86477135D01*
X165415500Y-86330766D01*
X165415500Y-86179234D01*
X165376281Y-86032865D01*
X165300515Y-85901635D01*
X165193365Y-85794485D01*
X165107201Y-85744738D01*
X165062136Y-85718719D01*
X164988950Y-85699109D01*
X164915766Y-85679500D01*
X164764234Y-85679500D01*
X164617863Y-85718719D01*
X164486635Y-85794485D01*
X164486632Y-85794487D01*
X164379487Y-85901632D01*
X164379485Y-85901635D01*
X164303719Y-86032863D01*
X164300940Y-86043235D01*
X164264500Y-86179234D01*
X159635500Y-86179234D01*
X159596281Y-86032865D01*
X159520515Y-85901635D01*
X159413365Y-85794485D01*
X159327201Y-85744738D01*
X159282136Y-85718719D01*
X159208950Y-85699109D01*
X159135766Y-85679500D01*
X158984234Y-85679500D01*
X158837863Y-85718719D01*
X158706635Y-85794485D01*
X158706632Y-85794487D01*
X158599487Y-85901632D01*
X158599485Y-85901635D01*
X158523719Y-86032863D01*
X158520940Y-86043235D01*
X158484500Y-86179234D01*
X136750793Y-86179234D01*
X136769737Y-86133497D01*
X136769738Y-86133493D01*
X136800499Y-85978846D01*
X136800500Y-85978844D01*
X136800500Y-85821155D01*
X136800499Y-85821153D01*
X136791506Y-85775944D01*
X136769737Y-85666503D01*
X136769735Y-85666498D01*
X136709397Y-85520827D01*
X136709390Y-85520814D01*
X136621789Y-85389711D01*
X136621786Y-85389707D01*
X136510292Y-85278213D01*
X136510288Y-85278210D01*
X136379185Y-85190609D01*
X136379172Y-85190602D01*
X136233501Y-85130264D01*
X136233489Y-85130261D01*
X136078845Y-85099500D01*
X136078842Y-85099500D01*
X135921158Y-85099500D01*
X135921155Y-85099500D01*
X135766510Y-85130261D01*
X135766498Y-85130264D01*
X135620827Y-85190602D01*
X135620814Y-85190609D01*
X135489711Y-85278210D01*
X135489707Y-85278213D01*
X135378217Y-85389704D01*
X135378211Y-85389711D01*
X135377476Y-85390811D01*
X135376943Y-85391255D01*
X135374353Y-85394413D01*
X135373753Y-85393920D01*
X135323856Y-85435607D01*
X135254530Y-85444304D01*
X135205493Y-85425006D01*
X135079185Y-85340609D01*
X135079172Y-85340602D01*
X134933501Y-85280264D01*
X134933489Y-85280261D01*
X134778845Y-85249500D01*
X134778842Y-85249500D01*
X134621158Y-85249500D01*
X134621155Y-85249500D01*
X134466510Y-85280261D01*
X134466498Y-85280264D01*
X134320827Y-85340602D01*
X134320814Y-85340609D01*
X134189711Y-85428210D01*
X134189707Y-85428213D01*
X134078213Y-85539707D01*
X134078210Y-85539711D01*
X133990609Y-85670814D01*
X133990602Y-85670827D01*
X133930264Y-85816498D01*
X133930261Y-85816510D01*
X133899500Y-85971153D01*
X131726313Y-85971153D01*
X131726313Y-85930595D01*
X131726313Y-85930592D01*
X131726312Y-85930590D01*
X131706356Y-85830264D01*
X131695550Y-85775940D01*
X131682626Y-85744738D01*
X131635210Y-85630264D01*
X131635203Y-85630251D01*
X131547602Y-85499148D01*
X131547599Y-85499144D01*
X131436105Y-85387650D01*
X131436101Y-85387647D01*
X131304998Y-85300046D01*
X131304985Y-85300039D01*
X131159314Y-85239701D01*
X131159302Y-85239698D01*
X131004658Y-85208937D01*
X131004655Y-85208937D01*
X130846971Y-85208937D01*
X130846968Y-85208937D01*
X130692323Y-85239698D01*
X130692311Y-85239701D01*
X130546640Y-85300039D01*
X130546627Y-85300046D01*
X130415524Y-85387647D01*
X130415520Y-85387650D01*
X130304026Y-85499144D01*
X130304023Y-85499148D01*
X130216422Y-85630251D01*
X130216415Y-85630264D01*
X130156077Y-85775935D01*
X130156074Y-85775944D01*
X130145528Y-85828963D01*
X130113142Y-85890874D01*
X130052426Y-85925447D01*
X129982656Y-85921706D01*
X129955020Y-85907872D01*
X129929184Y-85890609D01*
X129929172Y-85890602D01*
X129783501Y-85830264D01*
X129783489Y-85830261D01*
X129628845Y-85799500D01*
X129628842Y-85799500D01*
X129471158Y-85799500D01*
X129471155Y-85799500D01*
X129316510Y-85830261D01*
X129316498Y-85830264D01*
X129170827Y-85890602D01*
X129170814Y-85890609D01*
X129039711Y-85978210D01*
X129039707Y-85978213D01*
X128928213Y-86089707D01*
X128928210Y-86089711D01*
X128840609Y-86220814D01*
X128840602Y-86220827D01*
X128780264Y-86366498D01*
X128780261Y-86366510D01*
X128749500Y-86521153D01*
X120650500Y-86521153D01*
X120650500Y-85053246D01*
X120650670Y-85046756D01*
X120658563Y-84896153D01*
X140649500Y-84896153D01*
X140649500Y-85053846D01*
X140680261Y-85208489D01*
X140680264Y-85208501D01*
X140740602Y-85354172D01*
X140740609Y-85354185D01*
X140828210Y-85485288D01*
X140828213Y-85485292D01*
X140939707Y-85596786D01*
X140939711Y-85596789D01*
X141070814Y-85684390D01*
X141070827Y-85684397D01*
X141216498Y-85744735D01*
X141216503Y-85744737D01*
X141371153Y-85775499D01*
X141371156Y-85775500D01*
X141371158Y-85775500D01*
X141528844Y-85775500D01*
X141528845Y-85775499D01*
X141683497Y-85744737D01*
X141829179Y-85684394D01*
X141960289Y-85596789D01*
X142071789Y-85485289D01*
X142159394Y-85354179D01*
X142219737Y-85208497D01*
X142250500Y-85053842D01*
X142250500Y-84896158D01*
X142250500Y-84896155D01*
X142250499Y-84896153D01*
X146149500Y-84896153D01*
X146149500Y-85053846D01*
X146180261Y-85208489D01*
X146180264Y-85208501D01*
X146240602Y-85354172D01*
X146240609Y-85354185D01*
X146328210Y-85485288D01*
X146328213Y-85485292D01*
X146439707Y-85596786D01*
X146439711Y-85596789D01*
X146570814Y-85684390D01*
X146570827Y-85684397D01*
X146716498Y-85744735D01*
X146716503Y-85744737D01*
X146871153Y-85775499D01*
X146871156Y-85775500D01*
X146871158Y-85775500D01*
X147028844Y-85775500D01*
X147028845Y-85775499D01*
X147183497Y-85744737D01*
X147329179Y-85684394D01*
X147460289Y-85596789D01*
X147571789Y-85485289D01*
X147659394Y-85354179D01*
X147719737Y-85208497D01*
X147750500Y-85053842D01*
X147750500Y-84896158D01*
X147750500Y-84896155D01*
X147750499Y-84896153D01*
X147747997Y-84883576D01*
X147719737Y-84741503D01*
X147699837Y-84693460D01*
X147659397Y-84595827D01*
X147659390Y-84595814D01*
X147571789Y-84464711D01*
X147571786Y-84464707D01*
X147460292Y-84353213D01*
X147460288Y-84353210D01*
X147329185Y-84265609D01*
X147329172Y-84265602D01*
X147183501Y-84205264D01*
X147183489Y-84205261D01*
X147028845Y-84174500D01*
X147028842Y-84174500D01*
X146871158Y-84174500D01*
X146871155Y-84174500D01*
X146716510Y-84205261D01*
X146716498Y-84205264D01*
X146570827Y-84265602D01*
X146570814Y-84265609D01*
X146439711Y-84353210D01*
X146439707Y-84353213D01*
X146328213Y-84464707D01*
X146328210Y-84464711D01*
X146240609Y-84595814D01*
X146240602Y-84595827D01*
X146180264Y-84741498D01*
X146180261Y-84741510D01*
X146149500Y-84896153D01*
X142250499Y-84896153D01*
X142247997Y-84883576D01*
X142219737Y-84741503D01*
X142199837Y-84693460D01*
X142159397Y-84595827D01*
X142159390Y-84595814D01*
X142071789Y-84464711D01*
X142071786Y-84464707D01*
X141960292Y-84353213D01*
X141960288Y-84353210D01*
X141829185Y-84265609D01*
X141829172Y-84265602D01*
X141683501Y-84205264D01*
X141683489Y-84205261D01*
X141528845Y-84174500D01*
X141528842Y-84174500D01*
X141371158Y-84174500D01*
X141371155Y-84174500D01*
X141216510Y-84205261D01*
X141216498Y-84205264D01*
X141070827Y-84265602D01*
X141070814Y-84265609D01*
X140939711Y-84353210D01*
X140939707Y-84353213D01*
X140828213Y-84464707D01*
X140828210Y-84464711D01*
X140740609Y-84595814D01*
X140740602Y-84595827D01*
X140680264Y-84741498D01*
X140680261Y-84741510D01*
X140649500Y-84896153D01*
X120658563Y-84896153D01*
X120659222Y-84883576D01*
X120668509Y-84706368D01*
X120669866Y-84693460D01*
X120722680Y-84360002D01*
X120725370Y-84347345D01*
X120812757Y-84021211D01*
X120816761Y-84008890D01*
X120937754Y-83693692D01*
X120943019Y-83681864D01*
X121096310Y-83381014D01*
X121102776Y-83369816D01*
X121286663Y-83086655D01*
X121294278Y-83076174D01*
X121506757Y-82813783D01*
X121515424Y-82804158D01*
X121754158Y-82565424D01*
X121763783Y-82556757D01*
X122026174Y-82344278D01*
X122036655Y-82336663D01*
X122319816Y-82152776D01*
X122331014Y-82146310D01*
X122631864Y-81993019D01*
X122643692Y-81987754D01*
X122958890Y-81866761D01*
X122971211Y-81862757D01*
X123297345Y-81775370D01*
X123310002Y-81772680D01*
X123643462Y-81719865D01*
X123656366Y-81718509D01*
X123996756Y-81700669D01*
X124003246Y-81700500D01*
X124065892Y-81700500D01*
X154221731Y-81700500D01*
X154288770Y-81720185D01*
G37*
%TD.AperFunction*%
%TD*%
M02*
