%TF.GenerationSoftware,KiCad,Pcbnew,9.0.6-9.0.6~ubuntu24.04.1*%
%TF.CreationDate,2025-12-01T15:53:01+03:00*%
%TF.ProjectId,canfilter_g4,63616e66-696c-4746-9572-5f67342e6b69,rev?*%
%TF.SameCoordinates,Original*%
%TF.FileFunction,Copper,L3,Inr*%
%TF.FilePolarity,Positive*%
%FSLAX46Y46*%
G04 Gerber Fmt 4.6, Leading zero omitted, Abs format (unit mm)*
G04 Created by KiCad (PCBNEW 9.0.6-9.0.6~ubuntu24.04.1) date 2025-12-01 15:53:01*
%MOMM*%
%LPD*%
G01*
G04 APERTURE LIST*
%TA.AperFunction,ComponentPad*%
%ADD10C,0.800000*%
%TD*%
%TA.AperFunction,ComponentPad*%
%ADD11C,6.400000*%
%TD*%
%TA.AperFunction,ComponentPad*%
%ADD12R,1.700000X1.700000*%
%TD*%
%TA.AperFunction,HeatsinkPad*%
%ADD13O,1.000000X2.100000*%
%TD*%
%TA.AperFunction,HeatsinkPad*%
%ADD14O,1.000000X1.600000*%
%TD*%
%TA.AperFunction,ComponentPad*%
%ADD15C,1.700000*%
%TD*%
%TA.AperFunction,ViaPad*%
%ADD16C,0.600000*%
%TD*%
%TA.AperFunction,Conductor*%
%ADD17C,1.000000*%
%TD*%
%TA.AperFunction,Conductor*%
%ADD18C,0.500000*%
%TD*%
%TA.AperFunction,Conductor*%
%ADD19C,0.400000*%
%TD*%
%TA.AperFunction,Conductor*%
%ADD20C,0.800000*%
%TD*%
G04 APERTURE END LIST*
D10*
%TO.N,GND*%
%TO.C,H104*%
X168600000Y-109500000D03*
X169302944Y-107802944D03*
X169302944Y-111197056D03*
X171000000Y-107100000D03*
D11*
X171000000Y-109500000D03*
D10*
X171000000Y-111900000D03*
X172697056Y-107802944D03*
X172697056Y-111197056D03*
X173400000Y-109500000D03*
%TD*%
%TO.N,GND*%
%TO.C,H101*%
X121600000Y-85000000D03*
X122302944Y-83302944D03*
X122302944Y-86697056D03*
X124000000Y-82600000D03*
D11*
X124000000Y-85000000D03*
D10*
X124000000Y-87400000D03*
X125697056Y-83302944D03*
X125697056Y-86697056D03*
X126400000Y-85000000D03*
%TD*%
%TO.N,GND*%
%TO.C,H103*%
X168600000Y-85000000D03*
X169302944Y-83302944D03*
X169302944Y-86697056D03*
X171000000Y-82600000D03*
D11*
X171000000Y-85000000D03*
D10*
X171000000Y-87400000D03*
X172697056Y-83302944D03*
X172697056Y-86697056D03*
X173400000Y-85000000D03*
%TD*%
D12*
%TO.N,GND*%
%TO.C,J105*%
X122500000Y-100400000D03*
%TD*%
D13*
%TO.N,GND*%
%TO.C,J601*%
X166270000Y-86755000D03*
D14*
X166270000Y-82575000D03*
D13*
X157630000Y-86755000D03*
D14*
X157630000Y-82575000D03*
%TD*%
D12*
%TO.N,/CAN2_L*%
%TO.C,J102*%
X172000000Y-104100000D03*
D15*
%TO.N,/CAN2_H*%
X172000000Y-101560000D03*
%TD*%
D12*
%TO.N,/CAN1_L*%
%TO.C,J101*%
X122500000Y-90400000D03*
D15*
%TO.N,/CAN1_H*%
X122500000Y-92940000D03*
%TD*%
D12*
%TO.N,/VIN*%
%TO.C,J104*%
X122500000Y-104000000D03*
%TD*%
D10*
%TO.N,GND*%
%TO.C,H102*%
X121600000Y-109500000D03*
X122302944Y-107802944D03*
X122302944Y-111197056D03*
X124000000Y-107100000D03*
D11*
X124000000Y-109500000D03*
D10*
X124000000Y-111900000D03*
X125697056Y-107802944D03*
X125697056Y-111197056D03*
X126400000Y-109500000D03*
%TD*%
D12*
%TO.N,/CAN3_L*%
%TO.C,J103*%
X172000000Y-92950000D03*
D15*
%TO.N,/CAN3_H*%
X172000000Y-90410000D03*
%TD*%
D16*
%TO.N,GND*%
X163500000Y-111850000D03*
X135950000Y-90000000D03*
X138750000Y-89150000D03*
X155000000Y-93800000D03*
X162950000Y-82750000D03*
X133050000Y-100000000D03*
X147350000Y-95200000D03*
X133750000Y-108600000D03*
X161950000Y-89000000D03*
X146750000Y-105350000D03*
X139350000Y-98450000D03*
X140150000Y-102600000D03*
X148800000Y-105300000D03*
X141350000Y-103750000D03*
X166600000Y-93250000D03*
X138150000Y-96050000D03*
X142400000Y-91400000D03*
X132150000Y-101350000D03*
X172900000Y-98300000D03*
X130850000Y-101350000D03*
X139850000Y-83750000D03*
X133400000Y-82700000D03*
X159550000Y-82750000D03*
X126300000Y-91900000D03*
X164200000Y-93850000D03*
X131250000Y-111750000D03*
X128250000Y-88800000D03*
X161900000Y-101800000D03*
X129350000Y-90300000D03*
X125600000Y-96900000D03*
X152750000Y-111650000D03*
X133700000Y-95450000D03*
X143200000Y-94400000D03*
X133700000Y-94450000D03*
X166450000Y-88750000D03*
X132400000Y-95500000D03*
X156900000Y-111650000D03*
X142500000Y-111400000D03*
X137250000Y-103600000D03*
X156400000Y-101000000D03*
X135300000Y-103750000D03*
X165900000Y-111850000D03*
X132400000Y-94500000D03*
X136000000Y-108550000D03*
X155500000Y-111650000D03*
X156600000Y-92200000D03*
X144950000Y-83800000D03*
X152750000Y-90100000D03*
X147450000Y-97000000D03*
X151800000Y-99200000D03*
X132700000Y-108600000D03*
X157950000Y-97150000D03*
X135450000Y-98800000D03*
X163450000Y-97600000D03*
X158150000Y-111650000D03*
X164200000Y-91850000D03*
X128000000Y-96950000D03*
X149800000Y-99200000D03*
X165350000Y-88450000D03*
X126750000Y-96900000D03*
X168150000Y-104300000D03*
X138700000Y-111000000D03*
X172900000Y-96250000D03*
X143200000Y-93450000D03*
X131500000Y-101350000D03*
X128750000Y-111250000D03*
X158750000Y-88650000D03*
X134800000Y-108600000D03*
X164600000Y-82750000D03*
X143550000Y-100700000D03*
X150650000Y-104900000D03*
X142500000Y-112200000D03*
X157400000Y-88800000D03*
X128800000Y-109050000D03*
X147300000Y-93200000D03*
X143000000Y-105350000D03*
X154050000Y-111650000D03*
X129600000Y-111750000D03*
X150450000Y-83800000D03*
X141100000Y-111000000D03*
X137600000Y-89150000D03*
X161250000Y-82750000D03*
X128800000Y-109700000D03*
X128800000Y-110500000D03*
X130400000Y-111750000D03*
%TO.N,/5V*%
X141050000Y-110000000D03*
X146950000Y-84975000D03*
X141450000Y-84975000D03*
X141100000Y-107850000D03*
X143800000Y-107800000D03*
X158100000Y-98700000D03*
X138700000Y-107850000D03*
X143900000Y-109950000D03*
X138700000Y-110000000D03*
X154800000Y-82550000D03*
X137600000Y-93750000D03*
X154250000Y-108900000D03*
X138349000Y-98800000D03*
X129550000Y-86600000D03*
%TO.N,/3V3*%
X148800000Y-107400000D03*
X145050000Y-91000000D03*
X165350000Y-101750000D03*
X145400000Y-102400000D03*
X132150000Y-87000000D03*
X148800000Y-108300000D03*
X153650000Y-100250000D03*
X148800000Y-106500000D03*
X155550000Y-102550000D03*
X141550000Y-87375000D03*
X139650000Y-100350000D03*
X147650000Y-106450000D03*
X153800000Y-91250000D03*
X146550000Y-106450000D03*
X160500000Y-108750000D03*
%TO.N,/RST*%
X143400000Y-97000000D03*
X130925813Y-86009437D03*
%TO.N,/UART1_TX*%
X155034456Y-96807772D03*
X136000000Y-85900000D03*
%TO.N,/UART1_RX*%
X134700000Y-86050000D03*
X155750000Y-96450000D03*
%TO.N,/SWD_CLK*%
X134600000Y-90050000D03*
X149925000Y-88000000D03*
%TO.N,/SWD_IO*%
X133450000Y-90100000D03*
X149950000Y-87150000D03*
%TO.N,/CAN3_RX*%
X159450000Y-100150000D03*
X150775303Y-93749758D03*
%TO.N,/CAN3_S*%
X150300000Y-90750000D03*
X164350000Y-96200000D03*
%TO.N,/CAN3_TX*%
X159300000Y-96250000D03*
X151400000Y-93250000D03*
%TD*%
D17*
%TO.N,/5V*%
X139100000Y-85000000D02*
X152350000Y-85000000D01*
X130500000Y-84000000D02*
X138100000Y-84000000D01*
X129550000Y-86600000D02*
X129550000Y-84950000D01*
X138700000Y-107850000D02*
X138349000Y-107499000D01*
X132775000Y-91825000D02*
X129550000Y-88600000D01*
D18*
X153200000Y-109950000D02*
X143900000Y-109950000D01*
D17*
X137600000Y-93750000D02*
X137600000Y-92300000D01*
X138349000Y-98800000D02*
X138349000Y-97949000D01*
X129550000Y-84950000D02*
X130500000Y-84000000D01*
X137100000Y-94250000D02*
X137100000Y-96700000D01*
X138349000Y-107499000D02*
X138349000Y-98800000D01*
X137600000Y-92300000D02*
X137125000Y-91825000D01*
D18*
X156500000Y-108900000D02*
X157950000Y-107450000D01*
D17*
X138349000Y-97949000D02*
X137100000Y-96700000D01*
D18*
X157950000Y-107450000D02*
X157950000Y-98850000D01*
D17*
X137600000Y-93750000D02*
X137100000Y-94250000D01*
X129550000Y-88600000D02*
X129550000Y-86600000D01*
X152350000Y-85000000D02*
X154800000Y-82550000D01*
D18*
X157950000Y-98850000D02*
X158100000Y-98700000D01*
X154250000Y-108900000D02*
X156500000Y-108900000D01*
D17*
X137125000Y-91825000D02*
X132775000Y-91825000D01*
D18*
X154250000Y-108900000D02*
X153200000Y-109950000D01*
D17*
X138100000Y-84000000D02*
X139100000Y-85000000D01*
D19*
%TO.N,/3V3*%
X141550000Y-87375000D02*
X141550000Y-88150000D01*
X137950000Y-88150000D02*
X133300000Y-88150000D01*
X145050000Y-91000000D02*
X145050000Y-89500000D01*
D20*
X160500000Y-108750000D02*
X160500000Y-106150000D01*
D19*
X137950000Y-88150000D02*
X141550000Y-88150000D01*
D20*
X160500000Y-106150000D02*
X161200000Y-105450000D01*
D19*
X141550000Y-88150000D02*
X143700000Y-88150000D01*
X133300000Y-88150000D02*
X132150000Y-87000000D01*
X139650000Y-100350000D02*
X141700000Y-102400000D01*
X141700000Y-102400000D02*
X145400000Y-102400000D01*
X143700000Y-88150000D02*
X145050000Y-89500000D01*
%TD*%
%TA.AperFunction,Conductor*%
%TO.N,GND*%
G36*
X154002256Y-81720185D02*
G01*
X154048011Y-81772989D01*
X154057955Y-81842147D01*
X154028930Y-81905703D01*
X154022898Y-81912181D01*
X151971899Y-83963181D01*
X151910576Y-83996666D01*
X151884218Y-83999500D01*
X139565783Y-83999500D01*
X139498744Y-83979815D01*
X139478102Y-83963181D01*
X138884209Y-83369289D01*
X138884206Y-83369285D01*
X138884206Y-83369286D01*
X138877139Y-83362219D01*
X138877139Y-83362218D01*
X138737782Y-83222861D01*
X138737781Y-83222860D01*
X138737780Y-83222859D01*
X138573920Y-83113371D01*
X138573911Y-83113366D01*
X138501315Y-83083296D01*
X138445165Y-83060038D01*
X138391836Y-83037949D01*
X138391832Y-83037948D01*
X138391828Y-83037946D01*
X138295188Y-83018724D01*
X138198544Y-82999500D01*
X138198541Y-82999500D01*
X130401459Y-82999500D01*
X130401455Y-82999500D01*
X130304812Y-83018724D01*
X130208167Y-83037947D01*
X130208161Y-83037949D01*
X130154834Y-83060037D01*
X130154834Y-83060038D01*
X130115901Y-83076165D01*
X130026089Y-83113366D01*
X130026079Y-83113371D01*
X129862219Y-83222859D01*
X129794214Y-83290865D01*
X129722861Y-83362218D01*
X129722858Y-83362221D01*
X128912221Y-84172858D01*
X128912218Y-84172861D01*
X128842538Y-84242540D01*
X128772859Y-84312219D01*
X128663371Y-84476079D01*
X128663364Y-84476092D01*
X128587950Y-84658160D01*
X128587947Y-84658170D01*
X128549500Y-84851456D01*
X128549500Y-88698542D01*
X128558052Y-88741536D01*
X128563868Y-88770775D01*
X128587949Y-88891836D01*
X128605758Y-88934830D01*
X128609015Y-88942694D01*
X128609017Y-88942700D01*
X128663364Y-89073907D01*
X128663371Y-89073920D01*
X128772859Y-89237780D01*
X128772860Y-89237781D01*
X128772861Y-89237782D01*
X128912218Y-89377139D01*
X128912219Y-89377139D01*
X128919286Y-89384206D01*
X128919285Y-89384206D01*
X128919288Y-89384208D01*
X131997860Y-92462781D01*
X131997861Y-92462782D01*
X132073460Y-92538381D01*
X132137219Y-92602140D01*
X132301079Y-92711628D01*
X132301092Y-92711635D01*
X132429833Y-92764961D01*
X132469116Y-92781232D01*
X132483164Y-92787051D01*
X132579812Y-92806275D01*
X132628135Y-92815887D01*
X132676458Y-92825500D01*
X132676459Y-92825500D01*
X132676460Y-92825500D01*
X132873540Y-92825500D01*
X136475500Y-92825500D01*
X136542539Y-92845185D01*
X136588294Y-92897989D01*
X136599500Y-92949500D01*
X136599500Y-93284217D01*
X136590855Y-93313657D01*
X136584332Y-93343644D01*
X136580577Y-93348659D01*
X136579815Y-93351256D01*
X136563181Y-93371898D01*
X136514580Y-93420499D01*
X136462221Y-93472858D01*
X136462218Y-93472861D01*
X136423654Y-93511425D01*
X136322859Y-93612219D01*
X136213371Y-93776080D01*
X136213366Y-93776089D01*
X136166394Y-93889492D01*
X136141376Y-93949891D01*
X136137949Y-93958164D01*
X136122058Y-94038055D01*
X136099500Y-94151456D01*
X136099500Y-96798543D01*
X136114022Y-96871548D01*
X136117019Y-96886614D01*
X136137949Y-96991836D01*
X136156621Y-97036913D01*
X136159710Y-97044371D01*
X136159711Y-97044374D01*
X136213364Y-97173906D01*
X136213371Y-97173919D01*
X136262422Y-97247329D01*
X136322861Y-97337782D01*
X136462218Y-97477139D01*
X136462220Y-97477140D01*
X136469286Y-97484206D01*
X136469285Y-97484206D01*
X136469289Y-97484209D01*
X137312181Y-98327101D01*
X137345666Y-98388424D01*
X137348500Y-98414782D01*
X137348500Y-106769396D01*
X137328815Y-106836435D01*
X137276011Y-106882190D01*
X137225277Y-106893393D01*
X137174925Y-106893708D01*
X137170057Y-106893739D01*
X137064210Y-106905622D01*
X137064205Y-106905623D01*
X137013479Y-106916826D01*
X137013473Y-106916827D01*
X136912502Y-106950611D01*
X136912493Y-106950615D01*
X136791462Y-107028398D01*
X136791451Y-107028406D01*
X136738659Y-107074150D01*
X136644433Y-107182891D01*
X136644430Y-107182895D01*
X136584664Y-107313761D01*
X136564976Y-107380809D01*
X136544500Y-107523228D01*
X136544500Y-108920500D01*
X136524815Y-108987539D01*
X136472011Y-109033294D01*
X136420500Y-109044500D01*
X132520689Y-109044500D01*
X132419934Y-109054644D01*
X132419931Y-109054644D01*
X132371486Y-109064499D01*
X132274759Y-109094529D01*
X132274751Y-109094533D01*
X132151655Y-109169022D01*
X132097635Y-109213334D01*
X132000518Y-109319475D01*
X132000514Y-109319481D01*
X131937231Y-109448691D01*
X131937230Y-109448695D01*
X131917038Y-109511165D01*
X131916284Y-109513251D01*
X131915738Y-109515187D01*
X131891424Y-109656985D01*
X131848127Y-111258992D01*
X131848127Y-111258997D01*
X131858088Y-111373421D01*
X131869249Y-111428283D01*
X131869251Y-111428289D01*
X131904784Y-111537504D01*
X131904786Y-111537509D01*
X131982567Y-111658537D01*
X131982576Y-111658548D01*
X132028320Y-111711340D01*
X132028323Y-111711343D01*
X132028327Y-111711347D01*
X132137061Y-111805567D01*
X132137064Y-111805568D01*
X132137065Y-111805569D01*
X132257136Y-111860405D01*
X132267938Y-111865338D01*
X132334977Y-111885023D01*
X132334981Y-111885024D01*
X132477397Y-111905500D01*
X132477400Y-111905500D01*
X137331768Y-111905500D01*
X137427427Y-111896365D01*
X137427431Y-111896364D01*
X137427433Y-111896364D01*
X137473521Y-111887481D01*
X137505661Y-111878043D01*
X137565733Y-111860405D01*
X137565733Y-111860404D01*
X137565736Y-111860404D01*
X137690339Y-111788461D01*
X137745260Y-111745269D01*
X137844546Y-111641137D01*
X137910474Y-111513250D01*
X137933325Y-111447223D01*
X137960552Y-111305942D01*
X137976566Y-110969636D01*
X137999417Y-110903611D01*
X138054338Y-110860419D01*
X138099603Y-110851539D01*
X138205438Y-110850839D01*
X138206673Y-110850827D01*
X138208101Y-110850814D01*
X138208252Y-110850812D01*
X138208268Y-110850812D01*
X138209659Y-110850795D01*
X138209680Y-110850794D01*
X138209818Y-110850793D01*
X138211756Y-110850763D01*
X138212496Y-110850753D01*
X138354524Y-110827740D01*
X138421202Y-110806863D01*
X138421211Y-110806860D01*
X138452089Y-110792087D01*
X138521059Y-110780911D01*
X138529797Y-110782327D01*
X138621155Y-110800500D01*
X138621158Y-110800500D01*
X138778843Y-110800500D01*
X138798430Y-110796603D01*
X138873975Y-110781576D01*
X138943565Y-110787803D01*
X138948927Y-110790059D01*
X138983392Y-110805524D01*
X139050560Y-110824764D01*
X139193107Y-110844297D01*
X139193112Y-110844296D01*
X139193113Y-110844297D01*
X139305012Y-110843556D01*
X140629463Y-110834786D01*
X140630455Y-110834776D01*
X140632134Y-110834761D01*
X140632295Y-110834759D01*
X140632298Y-110834759D01*
X140633688Y-110834742D01*
X140633694Y-110834741D01*
X140633850Y-110834740D01*
X140636331Y-110834702D01*
X140636514Y-110834700D01*
X140731199Y-110819359D01*
X140778543Y-110811689D01*
X140845025Y-110790874D01*
X140906266Y-110787592D01*
X140940487Y-110794399D01*
X140971157Y-110800500D01*
X140971158Y-110800500D01*
X141128844Y-110800500D01*
X141260683Y-110774275D01*
X141266600Y-110773098D01*
X141336192Y-110779325D01*
X141341558Y-110781583D01*
X141359839Y-110789786D01*
X141427007Y-110809026D01*
X141569555Y-110828559D01*
X144930169Y-110806304D01*
X145035909Y-110794404D01*
X145086599Y-110783201D01*
X145187504Y-110749431D01*
X145233011Y-110720185D01*
X145300050Y-110700500D01*
X153273920Y-110700500D01*
X153383144Y-110678773D01*
X153418913Y-110671658D01*
X153555495Y-110615084D01*
X153620291Y-110571789D01*
X153620294Y-110571786D01*
X153620296Y-110571786D01*
X153649547Y-110552240D01*
X153678416Y-110532952D01*
X154524548Y-109686818D01*
X154585871Y-109653334D01*
X154612229Y-109650500D01*
X156573920Y-109650500D01*
X156671462Y-109631096D01*
X156718913Y-109621658D01*
X156855495Y-109565084D01*
X156923362Y-109519737D01*
X156923365Y-109519734D01*
X156923367Y-109519734D01*
X156951072Y-109501221D01*
X156978416Y-109482952D01*
X158532952Y-107928415D01*
X158570823Y-107871736D01*
X158608954Y-107814670D01*
X158615083Y-107805496D01*
X158615082Y-107805496D01*
X158615084Y-107805495D01*
X158649033Y-107723535D01*
X158671659Y-107668912D01*
X158700500Y-107523917D01*
X158700500Y-107376082D01*
X158700500Y-107099591D01*
X158720185Y-107032552D01*
X158772989Y-106986797D01*
X158829830Y-106976086D01*
X158829829Y-106976012D01*
X158830262Y-106976005D01*
X158831432Y-106975785D01*
X158834255Y-106975942D01*
X158834257Y-106975943D01*
X158834258Y-106975942D01*
X158834259Y-106975943D01*
X159019069Y-106973077D01*
X159473578Y-106966032D01*
X159540914Y-106984675D01*
X159587482Y-107036763D01*
X159599500Y-107090017D01*
X159599500Y-108838695D01*
X159634103Y-109012658D01*
X159634106Y-109012667D01*
X159701983Y-109176540D01*
X159701990Y-109176553D01*
X159800535Y-109324034D01*
X159800538Y-109324038D01*
X159925961Y-109449461D01*
X159925965Y-109449464D01*
X160073446Y-109548009D01*
X160073459Y-109548016D01*
X160160595Y-109584108D01*
X160237334Y-109615894D01*
X160237336Y-109615894D01*
X160237341Y-109615896D01*
X160411304Y-109650499D01*
X160411307Y-109650500D01*
X160411309Y-109650500D01*
X160588693Y-109650500D01*
X160588694Y-109650499D01*
X160646682Y-109638964D01*
X160762658Y-109615896D01*
X160762661Y-109615894D01*
X160762666Y-109615894D01*
X160926547Y-109548013D01*
X161074035Y-109449464D01*
X161199464Y-109324035D01*
X161298013Y-109176547D01*
X161365894Y-109012666D01*
X161400500Y-108838691D01*
X161400500Y-107058253D01*
X161420185Y-106991214D01*
X161472989Y-106945459D01*
X161522575Y-106934268D01*
X166486466Y-106857320D01*
X166486482Y-106857318D01*
X166486484Y-106857318D01*
X166520718Y-106853285D01*
X166588467Y-106845304D01*
X166637398Y-106834412D01*
X166734868Y-106802025D01*
X166856359Y-106724945D01*
X166903768Y-106684346D01*
X166904716Y-106683628D01*
X166909428Y-106679500D01*
X166909429Y-106679499D01*
X166909432Y-106679497D01*
X167004286Y-106571310D01*
X167064818Y-106440783D01*
X167084893Y-106373859D01*
X167106198Y-106231566D01*
X167130891Y-101996689D01*
X167134057Y-101453713D01*
X170649500Y-101453713D01*
X170649500Y-101666287D01*
X170655261Y-101702662D01*
X170677177Y-101841035D01*
X170682754Y-101876243D01*
X170740719Y-102054641D01*
X170748444Y-102078414D01*
X170844951Y-102267820D01*
X170969890Y-102439786D01*
X171083430Y-102553326D01*
X171116915Y-102614649D01*
X171111931Y-102684341D01*
X171070059Y-102740274D01*
X171039083Y-102757189D01*
X170907669Y-102806203D01*
X170907664Y-102806206D01*
X170792455Y-102892452D01*
X170792452Y-102892455D01*
X170706206Y-103007664D01*
X170706202Y-103007671D01*
X170655908Y-103142517D01*
X170649501Y-103202116D01*
X170649501Y-103202123D01*
X170649500Y-103202135D01*
X170649500Y-104997870D01*
X170649501Y-104997876D01*
X170655908Y-105057483D01*
X170706202Y-105192328D01*
X170706206Y-105192335D01*
X170792452Y-105307544D01*
X170792455Y-105307547D01*
X170907664Y-105393793D01*
X170907671Y-105393797D01*
X171042517Y-105444091D01*
X171042516Y-105444091D01*
X171049444Y-105444835D01*
X171102127Y-105450500D01*
X172897872Y-105450499D01*
X172957483Y-105444091D01*
X173092331Y-105393796D01*
X173207546Y-105307546D01*
X173293796Y-105192331D01*
X173344091Y-105057483D01*
X173350500Y-104997873D01*
X173350499Y-103202128D01*
X173344091Y-103142517D01*
X173329027Y-103102129D01*
X173293797Y-103007671D01*
X173293793Y-103007664D01*
X173207547Y-102892455D01*
X173207544Y-102892452D01*
X173092335Y-102806206D01*
X173092328Y-102806202D01*
X172960917Y-102757189D01*
X172904983Y-102715318D01*
X172880566Y-102649853D01*
X172895418Y-102581580D01*
X172916563Y-102553332D01*
X173030104Y-102439792D01*
X173155051Y-102267816D01*
X173251557Y-102078412D01*
X173317246Y-101876243D01*
X173350500Y-101666287D01*
X173350500Y-101453713D01*
X173317246Y-101243757D01*
X173251557Y-101041588D01*
X173155051Y-100852184D01*
X173155049Y-100852181D01*
X173155048Y-100852179D01*
X173030109Y-100680213D01*
X172879786Y-100529890D01*
X172707820Y-100404951D01*
X172518414Y-100308444D01*
X172518413Y-100308443D01*
X172518412Y-100308443D01*
X172316243Y-100242754D01*
X172316241Y-100242753D01*
X172316240Y-100242753D01*
X172154957Y-100217208D01*
X172106287Y-100209500D01*
X171893713Y-100209500D01*
X171845042Y-100217208D01*
X171683760Y-100242753D01*
X171481585Y-100308444D01*
X171292179Y-100404951D01*
X171120213Y-100529890D01*
X170969890Y-100680213D01*
X170844951Y-100852179D01*
X170748444Y-101041585D01*
X170682753Y-101243760D01*
X170650386Y-101448118D01*
X170649500Y-101453713D01*
X167134057Y-101453713D01*
X167134090Y-101448118D01*
X167176480Y-94178182D01*
X167176479Y-94178180D01*
X167176480Y-94178169D01*
X167165248Y-94069213D01*
X167154045Y-94016980D01*
X167119605Y-93912996D01*
X167118998Y-93912051D01*
X167041821Y-93791962D01*
X167041812Y-93791951D01*
X166996068Y-93739159D01*
X166996064Y-93739156D01*
X166996062Y-93739153D01*
X166887328Y-93644933D01*
X166887325Y-93644931D01*
X166887323Y-93644930D01*
X166756457Y-93585164D01*
X166756452Y-93585162D01*
X166756451Y-93585162D01*
X166726429Y-93576346D01*
X166689413Y-93565477D01*
X166689404Y-93565475D01*
X166636672Y-93557893D01*
X166630129Y-93556772D01*
X166525927Y-93536044D01*
X166502666Y-93528988D01*
X166471547Y-93516098D01*
X166450109Y-93504639D01*
X166422100Y-93485924D01*
X166403312Y-93470505D01*
X166379495Y-93446689D01*
X166364074Y-93427899D01*
X166345358Y-93399890D01*
X166333901Y-93378455D01*
X166330780Y-93370921D01*
X166321007Y-93347326D01*
X166313954Y-93324075D01*
X166307381Y-93291031D01*
X166305000Y-93266844D01*
X166305000Y-93233153D01*
X166307382Y-93208964D01*
X166313956Y-93175914D01*
X166321006Y-93152674D01*
X166333902Y-93121539D01*
X166345351Y-93100119D01*
X166364079Y-93072090D01*
X166379488Y-93053316D01*
X166403314Y-93029489D01*
X166422093Y-93014076D01*
X166450111Y-92995356D01*
X166471545Y-92983900D01*
X166502668Y-92971008D01*
X166525916Y-92963956D01*
X166580480Y-92953102D01*
X166591549Y-92951418D01*
X166663781Y-92943759D01*
X166714634Y-92932852D01*
X166714638Y-92932850D01*
X166714641Y-92932850D01*
X166764988Y-92916337D01*
X166815931Y-92899629D01*
X166937422Y-92822549D01*
X166984831Y-92781950D01*
X166985779Y-92781232D01*
X166990491Y-92777104D01*
X166990492Y-92777103D01*
X166990495Y-92777101D01*
X167085349Y-92668914D01*
X167145881Y-92538387D01*
X167159611Y-92492617D01*
X167165953Y-92471473D01*
X167165952Y-92471473D01*
X167165956Y-92471463D01*
X167187261Y-92329171D01*
X167199072Y-90303713D01*
X170649500Y-90303713D01*
X170649500Y-90516286D01*
X170682048Y-90721789D01*
X170682754Y-90726243D01*
X170718193Y-90835314D01*
X170748444Y-90928414D01*
X170844951Y-91117820D01*
X170969890Y-91289786D01*
X171083430Y-91403326D01*
X171116915Y-91464649D01*
X171111931Y-91534341D01*
X171070059Y-91590274D01*
X171039083Y-91607189D01*
X170907669Y-91656203D01*
X170907664Y-91656206D01*
X170792455Y-91742452D01*
X170792452Y-91742455D01*
X170706206Y-91857664D01*
X170706202Y-91857671D01*
X170655908Y-91992517D01*
X170649514Y-92051996D01*
X170649501Y-92052123D01*
X170649500Y-92052135D01*
X170649500Y-93847870D01*
X170649501Y-93847876D01*
X170655908Y-93907483D01*
X170706202Y-94042328D01*
X170706206Y-94042335D01*
X170792452Y-94157544D01*
X170792455Y-94157547D01*
X170907664Y-94243793D01*
X170907671Y-94243797D01*
X171042517Y-94294091D01*
X171042516Y-94294091D01*
X171049444Y-94294835D01*
X171102127Y-94300500D01*
X172897872Y-94300499D01*
X172957483Y-94294091D01*
X173092331Y-94243796D01*
X173207546Y-94157546D01*
X173293796Y-94042331D01*
X173344091Y-93907483D01*
X173350500Y-93847873D01*
X173350499Y-92052128D01*
X173344091Y-91992517D01*
X173343053Y-91989735D01*
X173293797Y-91857671D01*
X173293793Y-91857664D01*
X173207547Y-91742455D01*
X173207544Y-91742452D01*
X173092335Y-91656206D01*
X173092328Y-91656202D01*
X172960917Y-91607189D01*
X172904983Y-91565318D01*
X172880566Y-91499853D01*
X172895418Y-91431580D01*
X172916563Y-91403332D01*
X173030104Y-91289792D01*
X173155051Y-91117816D01*
X173251557Y-90928412D01*
X173317246Y-90726243D01*
X173350500Y-90516287D01*
X173350500Y-90303713D01*
X173317246Y-90093757D01*
X173251557Y-89891588D01*
X173155051Y-89702184D01*
X173155049Y-89702181D01*
X173155048Y-89702179D01*
X173030109Y-89530213D01*
X172879786Y-89379890D01*
X172707820Y-89254951D01*
X172518414Y-89158444D01*
X172518413Y-89158443D01*
X172518412Y-89158443D01*
X172316243Y-89092754D01*
X172316241Y-89092753D01*
X172316240Y-89092753D01*
X172147945Y-89066098D01*
X172106287Y-89059500D01*
X171893713Y-89059500D01*
X171852055Y-89066098D01*
X171683760Y-89092753D01*
X171481585Y-89158444D01*
X171292179Y-89254951D01*
X171120213Y-89379890D01*
X170969890Y-89530213D01*
X170844951Y-89702179D01*
X170748444Y-89891585D01*
X170748443Y-89891587D01*
X170748443Y-89891588D01*
X170744637Y-89903302D01*
X170682753Y-90093760D01*
X170649500Y-90303713D01*
X167199072Y-90303713D01*
X167202757Y-89671763D01*
X167202622Y-89656735D01*
X167202446Y-89649372D01*
X167201865Y-89634384D01*
X167173792Y-89493269D01*
X167168480Y-89478213D01*
X167150552Y-89427394D01*
X167150547Y-89427384D01*
X167150546Y-89427380D01*
X167150545Y-89427378D01*
X167083852Y-89299888D01*
X167064914Y-89280263D01*
X166983952Y-89196361D01*
X166983948Y-89196357D01*
X166978923Y-89192454D01*
X166960181Y-89177895D01*
X166928762Y-89153489D01*
X166803738Y-89082299D01*
X166803733Y-89082297D01*
X166707251Y-89059500D01*
X166663711Y-89049212D01*
X166594122Y-89042986D01*
X166594119Y-89042986D01*
X166594118Y-89042986D01*
X166566851Y-89044448D01*
X166559876Y-89044822D01*
X166553240Y-89045000D01*
X166433159Y-89045000D01*
X166408970Y-89042617D01*
X166375924Y-89036044D01*
X166352667Y-89028988D01*
X166321547Y-89016098D01*
X166300107Y-89004638D01*
X166272102Y-88985925D01*
X166253314Y-88970506D01*
X166169740Y-88886934D01*
X166168541Y-88885735D01*
X166165746Y-88882784D01*
X166165255Y-88882449D01*
X166158948Y-88876142D01*
X166148373Y-88867729D01*
X166146198Y-88865612D01*
X166146192Y-88865607D01*
X166146190Y-88865605D01*
X166082423Y-88815385D01*
X166063049Y-88800127D01*
X166063046Y-88800125D01*
X165931649Y-88741536D01*
X165931647Y-88741535D01*
X165931642Y-88741533D01*
X165864432Y-88722451D01*
X165864431Y-88722451D01*
X165864427Y-88722450D01*
X165856721Y-88721377D01*
X165856193Y-88721342D01*
X165721835Y-88703251D01*
X165632549Y-88704052D01*
X165627037Y-88704102D01*
X165596378Y-88706571D01*
X165555141Y-88709893D01*
X165524856Y-88714525D01*
X165520259Y-88715229D01*
X165520257Y-88715229D01*
X165520253Y-88715230D01*
X165461735Y-88728508D01*
X165458490Y-88729199D01*
X165435173Y-88733837D01*
X165391033Y-88742617D01*
X165366844Y-88745000D01*
X165333157Y-88745000D01*
X165308966Y-88742617D01*
X165287958Y-88738438D01*
X165228013Y-88726514D01*
X165224389Y-88724618D01*
X165151793Y-88714179D01*
X165151752Y-88714174D01*
X165075297Y-88709050D01*
X165075289Y-88709050D01*
X165075288Y-88709050D01*
X164775859Y-88711735D01*
X162796331Y-88729489D01*
X162789402Y-88729598D01*
X162786304Y-88729667D01*
X162779512Y-88729865D01*
X162779510Y-88729865D01*
X162708834Y-88742617D01*
X162637918Y-88755412D01*
X162637916Y-88755412D01*
X162637914Y-88755413D01*
X162637905Y-88755415D01*
X162571629Y-88777475D01*
X162571624Y-88777477D01*
X162442959Y-88841882D01*
X162337656Y-88939926D01*
X162303678Y-88982090D01*
X162303676Y-88982092D01*
X162293816Y-88994329D01*
X162293815Y-88994330D01*
X162220398Y-89118070D01*
X162212784Y-89136450D01*
X162208386Y-89143919D01*
X162207270Y-89144964D01*
X162204637Y-89149891D01*
X162185920Y-89177903D01*
X162170499Y-89196693D01*
X162146693Y-89220499D01*
X162127903Y-89235920D01*
X162099885Y-89254641D01*
X162078446Y-89266100D01*
X162047328Y-89278989D01*
X162024071Y-89286045D01*
X162007340Y-89289373D01*
X161991031Y-89292617D01*
X161966841Y-89295000D01*
X161933159Y-89295000D01*
X161908970Y-89292617D01*
X161875924Y-89286044D01*
X161852667Y-89278988D01*
X161821547Y-89266098D01*
X161800107Y-89254638D01*
X161772099Y-89235923D01*
X161753312Y-89220505D01*
X161729495Y-89196689D01*
X161714071Y-89177895D01*
X161695205Y-89149659D01*
X161684288Y-89129508D01*
X161683365Y-89127351D01*
X161681456Y-89122882D01*
X161681013Y-89121878D01*
X161679250Y-89117875D01*
X161674567Y-89107561D01*
X161674566Y-89107560D01*
X161674565Y-89107557D01*
X161595694Y-88987221D01*
X161549467Y-88934830D01*
X161548096Y-88933663D01*
X161439901Y-88841597D01*
X161439899Y-88841596D01*
X161439897Y-88841594D01*
X161377579Y-88813806D01*
X161308491Y-88782998D01*
X161308482Y-88782995D01*
X161241287Y-88763917D01*
X161241280Y-88763915D01*
X161241277Y-88763915D01*
X161241271Y-88763914D01*
X161241256Y-88763912D01*
X161241250Y-88763911D01*
X161098675Y-88744714D01*
X159300286Y-88760843D01*
X159298098Y-88760869D01*
X159298004Y-88760871D01*
X159297690Y-88760875D01*
X159296870Y-88760886D01*
X159294870Y-88760917D01*
X159294863Y-88760918D01*
X159152827Y-88783932D01*
X159086164Y-88804805D01*
X159086149Y-88804810D01*
X159086139Y-88804814D01*
X158956360Y-88866907D01*
X158899891Y-88904639D01*
X158878452Y-88916098D01*
X158847327Y-88928990D01*
X158824070Y-88936045D01*
X158807532Y-88939335D01*
X158791030Y-88942617D01*
X158766841Y-88945000D01*
X158733161Y-88945000D01*
X158708969Y-88942617D01*
X158685742Y-88937996D01*
X158675926Y-88936044D01*
X158652670Y-88928989D01*
X158621547Y-88916098D01*
X158600109Y-88904639D01*
X158558307Y-88876708D01*
X158552608Y-88872956D01*
X158552572Y-88872932D01*
X158552489Y-88872878D01*
X158549930Y-88871218D01*
X158544211Y-88867560D01*
X158543835Y-88867392D01*
X158412798Y-88808965D01*
X158412793Y-88808963D01*
X158412789Y-88808962D01*
X158348277Y-88790646D01*
X158346455Y-88790084D01*
X158345587Y-88789883D01*
X158202991Y-88770684D01*
X158100705Y-88771602D01*
X158048946Y-88774726D01*
X158023704Y-88777555D01*
X157972679Y-88785935D01*
X157969358Y-88787173D01*
X157969357Y-88787172D01*
X157961592Y-88790065D01*
X157923606Y-88798690D01*
X157865282Y-88825959D01*
X157860591Y-88827708D01*
X157837865Y-88836177D01*
X157808019Y-88852462D01*
X157808020Y-88852463D01*
X157804598Y-88854332D01*
X157793269Y-88859630D01*
X157785066Y-88865004D01*
X157780705Y-88867388D01*
X157780698Y-88867392D01*
X157776418Y-88869730D01*
X157661239Y-88955952D01*
X157661227Y-88955963D01*
X157596687Y-89020504D01*
X157577897Y-89035925D01*
X157549888Y-89054640D01*
X157528450Y-89066099D01*
X157497331Y-89078989D01*
X157474071Y-89086045D01*
X157457340Y-89089373D01*
X157441031Y-89092617D01*
X157416841Y-89095000D01*
X157383159Y-89095000D01*
X157358970Y-89092617D01*
X157325924Y-89086044D01*
X157302667Y-89078988D01*
X157271547Y-89066098D01*
X157250107Y-89054638D01*
X157222102Y-89035925D01*
X157203314Y-89020506D01*
X157151335Y-88968528D01*
X157151303Y-88968498D01*
X157109294Y-88930933D01*
X157109272Y-88930914D01*
X157087718Y-88913705D01*
X157087704Y-88913694D01*
X157041772Y-88881040D01*
X157041771Y-88881039D01*
X157041769Y-88881038D01*
X157035923Y-88878431D01*
X156910363Y-88822442D01*
X156910354Y-88822439D01*
X156843159Y-88803361D01*
X156843154Y-88803360D01*
X156843153Y-88803360D01*
X156843146Y-88803359D01*
X156776583Y-88794396D01*
X156700549Y-88784159D01*
X154002439Y-88808358D01*
X153395043Y-88813806D01*
X153380372Y-88814167D01*
X153379242Y-88814195D01*
X153371524Y-88814505D01*
X153355819Y-88815383D01*
X153355813Y-88815383D01*
X153355812Y-88815384D01*
X153355808Y-88815384D01*
X153355807Y-88815385D01*
X153215226Y-88845966D01*
X153215221Y-88845967D01*
X153215220Y-88845968D01*
X153204158Y-88850094D01*
X153149754Y-88870385D01*
X153149750Y-88870387D01*
X153023482Y-88939335D01*
X152921744Y-89041069D01*
X152921738Y-89041076D01*
X152884639Y-89090633D01*
X152884636Y-89090637D01*
X152879869Y-89097006D01*
X152879863Y-89097014D01*
X152850373Y-89151022D01*
X152849842Y-89151958D01*
X152825424Y-89175590D01*
X152801422Y-89199594D01*
X152800393Y-89199817D01*
X152799637Y-89200550D01*
X152766337Y-89207226D01*
X152733149Y-89214446D01*
X152732162Y-89214078D01*
X152731130Y-89214285D01*
X152699501Y-89201896D01*
X152667685Y-89190029D01*
X152666799Y-89189086D01*
X152666073Y-89188802D01*
X152664535Y-89186676D01*
X152638286Y-89158736D01*
X152578877Y-89068094D01*
X152578876Y-89068093D01*
X152578873Y-89068088D01*
X152532646Y-89015697D01*
X152423078Y-88922462D01*
X152403415Y-88913694D01*
X152291669Y-88863865D01*
X152224462Y-88844783D01*
X152224443Y-88844780D01*
X152081860Y-88825582D01*
X150517533Y-88839612D01*
X150450320Y-88820529D01*
X150404093Y-88768138D01*
X150393530Y-88699071D01*
X150421984Y-88635258D01*
X150431145Y-88626260D01*
X150430982Y-88626097D01*
X150546786Y-88510292D01*
X150546789Y-88510289D01*
X150634394Y-88379179D01*
X150694737Y-88233497D01*
X150725500Y-88078842D01*
X150725500Y-87921158D01*
X150725500Y-87921155D01*
X150725499Y-87921153D01*
X150695380Y-87769737D01*
X150694737Y-87766503D01*
X150694735Y-87766498D01*
X150645892Y-87648578D01*
X150638423Y-87579109D01*
X150657353Y-87532232D01*
X150659394Y-87529179D01*
X150719737Y-87383497D01*
X150750500Y-87228842D01*
X150750500Y-87071158D01*
X150750500Y-87071155D01*
X150750499Y-87071153D01*
X150719737Y-86916503D01*
X150698283Y-86864707D01*
X150659397Y-86770827D01*
X150659390Y-86770814D01*
X150571789Y-86639711D01*
X150571786Y-86639707D01*
X150460292Y-86528213D01*
X150460288Y-86528210D01*
X150329185Y-86440609D01*
X150329172Y-86440602D01*
X150183501Y-86380264D01*
X150183489Y-86380261D01*
X150028845Y-86349500D01*
X150028842Y-86349500D01*
X149871158Y-86349500D01*
X149871155Y-86349500D01*
X149716510Y-86380261D01*
X149716498Y-86380264D01*
X149570827Y-86440602D01*
X149570814Y-86440609D01*
X149439711Y-86528210D01*
X149439707Y-86528213D01*
X149328213Y-86639707D01*
X149328210Y-86639711D01*
X149240609Y-86770814D01*
X149240602Y-86770827D01*
X149180264Y-86916498D01*
X149180261Y-86916510D01*
X149149500Y-87071153D01*
X149149500Y-87228846D01*
X149180261Y-87383489D01*
X149180264Y-87383501D01*
X149229107Y-87501420D01*
X149236576Y-87570890D01*
X149217656Y-87617751D01*
X149215612Y-87620809D01*
X149215602Y-87620828D01*
X149155264Y-87766498D01*
X149155261Y-87766510D01*
X149124500Y-87921153D01*
X149124500Y-88078846D01*
X149155261Y-88233489D01*
X149155264Y-88233501D01*
X149215602Y-88379172D01*
X149215609Y-88379185D01*
X149303210Y-88510288D01*
X149303213Y-88510292D01*
X149414707Y-88621786D01*
X149414706Y-88621786D01*
X149415543Y-88622345D01*
X149416515Y-88622994D01*
X149417248Y-88623872D01*
X149419419Y-88625653D01*
X149419081Y-88626064D01*
X149461322Y-88676605D01*
X149470032Y-88745929D01*
X149439880Y-88808958D01*
X149380438Y-88845679D01*
X149348740Y-88850094D01*
X145477945Y-88884810D01*
X145410732Y-88865727D01*
X145389152Y-88848496D01*
X144146546Y-87605888D01*
X144146545Y-87605887D01*
X144031807Y-87529222D01*
X143904332Y-87476421D01*
X143904322Y-87476418D01*
X143768996Y-87449500D01*
X143768994Y-87449500D01*
X143768993Y-87449500D01*
X142474500Y-87449500D01*
X142407461Y-87429815D01*
X142361706Y-87377011D01*
X142350500Y-87325500D01*
X142350500Y-87296155D01*
X142350499Y-87296153D01*
X142319738Y-87141510D01*
X142319737Y-87141503D01*
X142293782Y-87078842D01*
X142259397Y-86995827D01*
X142259390Y-86995814D01*
X142171789Y-86864711D01*
X142171786Y-86864707D01*
X142060292Y-86753213D01*
X142060288Y-86753210D01*
X141929185Y-86665609D01*
X141929172Y-86665602D01*
X141783501Y-86605264D01*
X141783489Y-86605261D01*
X141628845Y-86574500D01*
X141628842Y-86574500D01*
X141471158Y-86574500D01*
X141471155Y-86574500D01*
X141316510Y-86605261D01*
X141316498Y-86605264D01*
X141170827Y-86665602D01*
X141170814Y-86665609D01*
X141039711Y-86753210D01*
X141039707Y-86753213D01*
X140928213Y-86864707D01*
X140928210Y-86864711D01*
X140840609Y-86995814D01*
X140840602Y-86995827D01*
X140780264Y-87141498D01*
X140780261Y-87141510D01*
X140749500Y-87296153D01*
X140749500Y-87325500D01*
X140729815Y-87392539D01*
X140677011Y-87438294D01*
X140625500Y-87449500D01*
X133641519Y-87449500D01*
X133574480Y-87429815D01*
X133553838Y-87413181D01*
X132946071Y-86805414D01*
X132919191Y-86765185D01*
X132917822Y-86761881D01*
X132892398Y-86700500D01*
X132859397Y-86620827D01*
X132859390Y-86620814D01*
X132771789Y-86489711D01*
X132771786Y-86489707D01*
X132660292Y-86378213D01*
X132660288Y-86378210D01*
X132529185Y-86290609D01*
X132529172Y-86290602D01*
X132383501Y-86230264D01*
X132383489Y-86230261D01*
X132228845Y-86199500D01*
X132228842Y-86199500D01*
X132071158Y-86199500D01*
X132071155Y-86199500D01*
X131916510Y-86230261D01*
X131916503Y-86230263D01*
X131892782Y-86240088D01*
X131823313Y-86247554D01*
X131760834Y-86216277D01*
X131725184Y-86156187D01*
X131723717Y-86101328D01*
X131726313Y-86088280D01*
X131726313Y-85930592D01*
X131726312Y-85930590D01*
X131717568Y-85886632D01*
X131695550Y-85775940D01*
X131695548Y-85775935D01*
X131635210Y-85630264D01*
X131635203Y-85630251D01*
X131547602Y-85499148D01*
X131547599Y-85499144D01*
X131436105Y-85387650D01*
X131436101Y-85387647D01*
X131304998Y-85300046D01*
X131304985Y-85300039D01*
X131157768Y-85239061D01*
X131103364Y-85195220D01*
X131081299Y-85128926D01*
X131098578Y-85061227D01*
X131149715Y-85013616D01*
X131205220Y-85000500D01*
X135496561Y-85000500D01*
X135563600Y-85020185D01*
X135609355Y-85072989D01*
X135619299Y-85142147D01*
X135590274Y-85205703D01*
X135565452Y-85227602D01*
X135489711Y-85278210D01*
X135489707Y-85278213D01*
X135378217Y-85389704D01*
X135378211Y-85389711D01*
X135377476Y-85390811D01*
X135376943Y-85391255D01*
X135374353Y-85394413D01*
X135373753Y-85393920D01*
X135323856Y-85435607D01*
X135254530Y-85444304D01*
X135205493Y-85425006D01*
X135079185Y-85340609D01*
X135079172Y-85340602D01*
X134933501Y-85280264D01*
X134933489Y-85280261D01*
X134778845Y-85249500D01*
X134778842Y-85249500D01*
X134621158Y-85249500D01*
X134621155Y-85249500D01*
X134466510Y-85280261D01*
X134466498Y-85280264D01*
X134320827Y-85340602D01*
X134320814Y-85340609D01*
X134189711Y-85428210D01*
X134189707Y-85428213D01*
X134078213Y-85539707D01*
X134078210Y-85539711D01*
X133990609Y-85670814D01*
X133990602Y-85670827D01*
X133930264Y-85816498D01*
X133930261Y-85816510D01*
X133899500Y-85971153D01*
X133899500Y-86128846D01*
X133930261Y-86283489D01*
X133930264Y-86283501D01*
X133990602Y-86429172D01*
X133990609Y-86429185D01*
X134078210Y-86560288D01*
X134078213Y-86560292D01*
X134189707Y-86671786D01*
X134189711Y-86671789D01*
X134320814Y-86759390D01*
X134320827Y-86759397D01*
X134466498Y-86819735D01*
X134466503Y-86819737D01*
X134621153Y-86850499D01*
X134621156Y-86850500D01*
X134621158Y-86850500D01*
X134778844Y-86850500D01*
X134778845Y-86850499D01*
X134933497Y-86819737D01*
X135051592Y-86770821D01*
X135079172Y-86759397D01*
X135079172Y-86759396D01*
X135079179Y-86759394D01*
X135210289Y-86671789D01*
X135321789Y-86560289D01*
X135322505Y-86559217D01*
X135323026Y-86558781D01*
X135325653Y-86555581D01*
X135326259Y-86556078D01*
X135376108Y-86514406D01*
X135445432Y-86505689D01*
X135494506Y-86524993D01*
X135620814Y-86609390D01*
X135620827Y-86609397D01*
X135694013Y-86639711D01*
X135766503Y-86669737D01*
X135921153Y-86700499D01*
X135921156Y-86700500D01*
X135921158Y-86700500D01*
X136078844Y-86700500D01*
X136078845Y-86700499D01*
X136233497Y-86669737D01*
X136351592Y-86620821D01*
X136379172Y-86609397D01*
X136379172Y-86609396D01*
X136379179Y-86609394D01*
X136510289Y-86521789D01*
X136621789Y-86410289D01*
X136709394Y-86279179D01*
X136750792Y-86179234D01*
X158484500Y-86179234D01*
X158484500Y-86330766D01*
X158497213Y-86378211D01*
X158523719Y-86477136D01*
X158549498Y-86521786D01*
X158599485Y-86608365D01*
X158706635Y-86715515D01*
X158837865Y-86791281D01*
X158984234Y-86830500D01*
X158984236Y-86830500D01*
X159135764Y-86830500D01*
X159135766Y-86830500D01*
X159282135Y-86791281D01*
X159413365Y-86715515D01*
X159520515Y-86608365D01*
X159596281Y-86477135D01*
X159635500Y-86330766D01*
X159635500Y-86179234D01*
X164264500Y-86179234D01*
X164264500Y-86330766D01*
X164277213Y-86378211D01*
X164303719Y-86477136D01*
X164329498Y-86521786D01*
X164379485Y-86608365D01*
X164486635Y-86715515D01*
X164617865Y-86791281D01*
X164764234Y-86830500D01*
X164764236Y-86830500D01*
X164915764Y-86830500D01*
X164915766Y-86830500D01*
X165062135Y-86791281D01*
X165193365Y-86715515D01*
X165300515Y-86608365D01*
X165376281Y-86477135D01*
X165415500Y-86330766D01*
X165415500Y-86179234D01*
X165376281Y-86032865D01*
X165300515Y-85901635D01*
X165193365Y-85794485D01*
X165127750Y-85756602D01*
X165062136Y-85718719D01*
X164988950Y-85699109D01*
X164915766Y-85679500D01*
X164764234Y-85679500D01*
X164617863Y-85718719D01*
X164486635Y-85794485D01*
X164486632Y-85794487D01*
X164379487Y-85901632D01*
X164379485Y-85901635D01*
X164303719Y-86032863D01*
X164278002Y-86128842D01*
X164264500Y-86179234D01*
X159635500Y-86179234D01*
X159596281Y-86032865D01*
X159520515Y-85901635D01*
X159413365Y-85794485D01*
X159347750Y-85756602D01*
X159282136Y-85718719D01*
X159208950Y-85699109D01*
X159135766Y-85679500D01*
X158984234Y-85679500D01*
X158837863Y-85718719D01*
X158706635Y-85794485D01*
X158706632Y-85794487D01*
X158599487Y-85901632D01*
X158599485Y-85901635D01*
X158523719Y-86032863D01*
X158498002Y-86128842D01*
X158484500Y-86179234D01*
X136750792Y-86179234D01*
X136769737Y-86133497D01*
X136778732Y-86088279D01*
X136800499Y-85978846D01*
X136800500Y-85978844D01*
X136800500Y-85821155D01*
X136800499Y-85821153D01*
X136791507Y-85775947D01*
X136769737Y-85666503D01*
X136769735Y-85666498D01*
X136709397Y-85520827D01*
X136709390Y-85520814D01*
X136621789Y-85389711D01*
X136621786Y-85389707D01*
X136510292Y-85278213D01*
X136510288Y-85278210D01*
X136434548Y-85227602D01*
X136389743Y-85173990D01*
X136381036Y-85104665D01*
X136411190Y-85041637D01*
X136470634Y-85004918D01*
X136503439Y-85000500D01*
X137634218Y-85000500D01*
X137701257Y-85020185D01*
X137721899Y-85036819D01*
X138462215Y-85777137D01*
X138462219Y-85777140D01*
X138626079Y-85886628D01*
X138626085Y-85886631D01*
X138626086Y-85886632D01*
X138808165Y-85962052D01*
X139001455Y-86000500D01*
X139001458Y-86000501D01*
X139001460Y-86000501D01*
X139204655Y-86000501D01*
X139204675Y-86000500D01*
X152448543Y-86000500D01*
X152485750Y-85993098D01*
X152560594Y-85978211D01*
X152641836Y-85962051D01*
X152717777Y-85930595D01*
X152823914Y-85886632D01*
X152987782Y-85777139D01*
X153127139Y-85637782D01*
X153127140Y-85637780D01*
X153134206Y-85630714D01*
X153134208Y-85630710D01*
X155577139Y-83187781D01*
X155686631Y-83023914D01*
X155762051Y-82841836D01*
X155800500Y-82648540D01*
X155800500Y-82451460D01*
X155800500Y-82451457D01*
X155800499Y-82451455D01*
X155762051Y-82258164D01*
X155686631Y-82076086D01*
X155686629Y-82076083D01*
X155686627Y-82076079D01*
X155577139Y-81912219D01*
X155577136Y-81912215D01*
X155577102Y-81912181D01*
X155577089Y-81912158D01*
X155573274Y-81907509D01*
X155574155Y-81906785D01*
X155543617Y-81850858D01*
X155548601Y-81781166D01*
X155590473Y-81725233D01*
X155655937Y-81700816D01*
X155664783Y-81700500D01*
X170984108Y-81700500D01*
X171046754Y-81700500D01*
X171053243Y-81700669D01*
X171393631Y-81718509D01*
X171406539Y-81719866D01*
X171739993Y-81772680D01*
X171752657Y-81775371D01*
X172078782Y-81862756D01*
X172091114Y-81866763D01*
X172406300Y-81987751D01*
X172418142Y-81993023D01*
X172718976Y-82146306D01*
X172730191Y-82152782D01*
X173013333Y-82336656D01*
X173023834Y-82344285D01*
X173286206Y-82556749D01*
X173295851Y-82565434D01*
X173534565Y-82804148D01*
X173543250Y-82813793D01*
X173755714Y-83076165D01*
X173763343Y-83086666D01*
X173947214Y-83369802D01*
X173953700Y-83381035D01*
X174106971Y-83681846D01*
X174112250Y-83693704D01*
X174233235Y-84008882D01*
X174237246Y-84021226D01*
X174324624Y-84347326D01*
X174327322Y-84360021D01*
X174380133Y-84693460D01*
X174381490Y-84706368D01*
X174399330Y-85046756D01*
X174399500Y-85053246D01*
X174399500Y-109646753D01*
X174399330Y-109653243D01*
X174381490Y-109993631D01*
X174380133Y-110006539D01*
X174327322Y-110339978D01*
X174324624Y-110352673D01*
X174237246Y-110678773D01*
X174233235Y-110691117D01*
X174112250Y-111006295D01*
X174106971Y-111018153D01*
X173953700Y-111318964D01*
X173947210Y-111330204D01*
X173763343Y-111613333D01*
X173755714Y-111623834D01*
X173543250Y-111886206D01*
X173534565Y-111895851D01*
X173295851Y-112134565D01*
X173286206Y-112143250D01*
X173023834Y-112355714D01*
X173013333Y-112363343D01*
X172730204Y-112547210D01*
X172718964Y-112553700D01*
X172418153Y-112706971D01*
X172406295Y-112712250D01*
X172091117Y-112833235D01*
X172078773Y-112837246D01*
X171752673Y-112924624D01*
X171739978Y-112927322D01*
X171406539Y-112980133D01*
X171393631Y-112981490D01*
X171053244Y-112999330D01*
X171046754Y-112999500D01*
X124003246Y-112999500D01*
X123996756Y-112999330D01*
X123656368Y-112981490D01*
X123643460Y-112980133D01*
X123310021Y-112927322D01*
X123297326Y-112924624D01*
X122971226Y-112837246D01*
X122958882Y-112833235D01*
X122643704Y-112712250D01*
X122631846Y-112706971D01*
X122331029Y-112553696D01*
X122319802Y-112547214D01*
X122036666Y-112363343D01*
X122026165Y-112355714D01*
X121763793Y-112143250D01*
X121754148Y-112134565D01*
X121515434Y-111895851D01*
X121506749Y-111886206D01*
X121489850Y-111865338D01*
X121294285Y-111623834D01*
X121286656Y-111613333D01*
X121221661Y-111513250D01*
X121102782Y-111330191D01*
X121096306Y-111318976D01*
X120943023Y-111018142D01*
X120937749Y-111006295D01*
X120898332Y-110903611D01*
X120816763Y-110691114D01*
X120812756Y-110678782D01*
X120725371Y-110352657D01*
X120722680Y-110339993D01*
X120669866Y-110006539D01*
X120668509Y-109993631D01*
X120650670Y-109653243D01*
X120650500Y-109646753D01*
X120650500Y-103102135D01*
X121149500Y-103102135D01*
X121149500Y-104897870D01*
X121149501Y-104897876D01*
X121155908Y-104957483D01*
X121206202Y-105092328D01*
X121206206Y-105092335D01*
X121292452Y-105207544D01*
X121292455Y-105207547D01*
X121407664Y-105293793D01*
X121407671Y-105293797D01*
X121542517Y-105344091D01*
X121542516Y-105344091D01*
X121549444Y-105344835D01*
X121602127Y-105350500D01*
X123397872Y-105350499D01*
X123457483Y-105344091D01*
X123592331Y-105293796D01*
X123707546Y-105207546D01*
X123793796Y-105092331D01*
X123844091Y-104957483D01*
X123850500Y-104897873D01*
X123850499Y-103102128D01*
X123844091Y-103042517D01*
X123831094Y-103007671D01*
X123793797Y-102907671D01*
X123793793Y-102907664D01*
X123707547Y-102792455D01*
X123707544Y-102792452D01*
X123592335Y-102706206D01*
X123592328Y-102706202D01*
X123457482Y-102655908D01*
X123457483Y-102655908D01*
X123397883Y-102649501D01*
X123397881Y-102649500D01*
X123397873Y-102649500D01*
X123397864Y-102649500D01*
X121602129Y-102649500D01*
X121602123Y-102649501D01*
X121542516Y-102655908D01*
X121407671Y-102706202D01*
X121407664Y-102706206D01*
X121292455Y-102792452D01*
X121292452Y-102792455D01*
X121206206Y-102907664D01*
X121206202Y-102907671D01*
X121155908Y-103042517D01*
X121152569Y-103073578D01*
X121149501Y-103102123D01*
X121149500Y-103102135D01*
X120650500Y-103102135D01*
X120650500Y-89502135D01*
X121149500Y-89502135D01*
X121149500Y-91297870D01*
X121149501Y-91297876D01*
X121155908Y-91357483D01*
X121206202Y-91492328D01*
X121206206Y-91492335D01*
X121292452Y-91607544D01*
X121292455Y-91607547D01*
X121407664Y-91693793D01*
X121407671Y-91693797D01*
X121539082Y-91742810D01*
X121595016Y-91784681D01*
X121619433Y-91850145D01*
X121604582Y-91918418D01*
X121583431Y-91946673D01*
X121469889Y-92060215D01*
X121344951Y-92232179D01*
X121248444Y-92421585D01*
X121182753Y-92623760D01*
X121153846Y-92806273D01*
X121149500Y-92833713D01*
X121149500Y-93046287D01*
X121153501Y-93071546D01*
X121180344Y-93241032D01*
X121182754Y-93256243D01*
X121241827Y-93438051D01*
X121248444Y-93458414D01*
X121344951Y-93647820D01*
X121469890Y-93819786D01*
X121620213Y-93970109D01*
X121792179Y-94095048D01*
X121792181Y-94095049D01*
X121792184Y-94095051D01*
X121981588Y-94191557D01*
X122183757Y-94257246D01*
X122393713Y-94290500D01*
X122393714Y-94290500D01*
X122606286Y-94290500D01*
X122606287Y-94290500D01*
X122816243Y-94257246D01*
X123018412Y-94191557D01*
X123207816Y-94095051D01*
X123241609Y-94070499D01*
X123379786Y-93970109D01*
X123379788Y-93970106D01*
X123379792Y-93970104D01*
X123530104Y-93819792D01*
X123530106Y-93819788D01*
X123530109Y-93819786D01*
X123655048Y-93647820D01*
X123655047Y-93647820D01*
X123655051Y-93647816D01*
X123751557Y-93458412D01*
X123817246Y-93256243D01*
X123850500Y-93046287D01*
X123850500Y-92833713D01*
X123817246Y-92623757D01*
X123751557Y-92421588D01*
X123655051Y-92232184D01*
X123655049Y-92232181D01*
X123655048Y-92232179D01*
X123530109Y-92060213D01*
X123416569Y-91946673D01*
X123383084Y-91885350D01*
X123388068Y-91815658D01*
X123429940Y-91759725D01*
X123460915Y-91742810D01*
X123592331Y-91693796D01*
X123707546Y-91607546D01*
X123793796Y-91492331D01*
X123844091Y-91357483D01*
X123850500Y-91297873D01*
X123850499Y-89502128D01*
X123844091Y-89442517D01*
X123842431Y-89438067D01*
X123793797Y-89307671D01*
X123793793Y-89307664D01*
X123707547Y-89192455D01*
X123707544Y-89192452D01*
X123592335Y-89106206D01*
X123592328Y-89106202D01*
X123457482Y-89055908D01*
X123457483Y-89055908D01*
X123397883Y-89049501D01*
X123397881Y-89049500D01*
X123397873Y-89049500D01*
X123397864Y-89049500D01*
X121602129Y-89049500D01*
X121602123Y-89049501D01*
X121542516Y-89055908D01*
X121407671Y-89106202D01*
X121407664Y-89106206D01*
X121292455Y-89192452D01*
X121292452Y-89192455D01*
X121206206Y-89307664D01*
X121206202Y-89307671D01*
X121155908Y-89442517D01*
X121149501Y-89502116D01*
X121149501Y-89502123D01*
X121149500Y-89502135D01*
X120650500Y-89502135D01*
X120650500Y-85053246D01*
X120650670Y-85046756D01*
X120668509Y-84706368D01*
X120669866Y-84693460D01*
X120722680Y-84360002D01*
X120725370Y-84347345D01*
X120812757Y-84021211D01*
X120816761Y-84008890D01*
X120937754Y-83693692D01*
X120943019Y-83681864D01*
X121096310Y-83381014D01*
X121102776Y-83369816D01*
X121286663Y-83086655D01*
X121294278Y-83076174D01*
X121506757Y-82813783D01*
X121515424Y-82804158D01*
X121754158Y-82565424D01*
X121763783Y-82556757D01*
X122026174Y-82344278D01*
X122036655Y-82336663D01*
X122319816Y-82152776D01*
X122331014Y-82146310D01*
X122631864Y-81993019D01*
X122643692Y-81987754D01*
X122958890Y-81866761D01*
X122971211Y-81862757D01*
X123297345Y-81775370D01*
X123310002Y-81772680D01*
X123643462Y-81719865D01*
X123656366Y-81718509D01*
X123996756Y-81700669D01*
X124003246Y-81700500D01*
X124065892Y-81700500D01*
X153935217Y-81700500D01*
X154002256Y-81720185D01*
G37*
%TD.AperFunction*%
%TA.AperFunction,Conductor*%
G36*
X139554703Y-101245806D02*
G01*
X139561181Y-101251838D01*
X141253453Y-102944111D01*
X141253454Y-102944112D01*
X141368192Y-103020777D01*
X141495667Y-103073578D01*
X141495672Y-103073580D01*
X141495676Y-103073580D01*
X141495677Y-103073581D01*
X141631003Y-103100500D01*
X141631006Y-103100500D01*
X141631007Y-103100500D01*
X143650586Y-103100500D01*
X143717625Y-103120185D01*
X143763380Y-103172989D01*
X143774581Y-103225575D01*
X143745619Y-106565045D01*
X143745620Y-106565059D01*
X143757524Y-106678584D01*
X143757525Y-106678595D01*
X143762815Y-106702515D01*
X143758069Y-106772223D01*
X143716390Y-106828299D01*
X143651009Y-106852940D01*
X143642515Y-106853285D01*
X139474275Y-106879337D01*
X139407114Y-106860071D01*
X139361030Y-106807554D01*
X139349500Y-106755339D01*
X139349500Y-101339519D01*
X139369185Y-101272480D01*
X139421989Y-101226725D01*
X139491147Y-101216781D01*
X139554703Y-101245806D01*
G37*
%TD.AperFunction*%
%TA.AperFunction,Conductor*%
G36*
X146791027Y-105057381D02*
G01*
X146824079Y-105063956D01*
X146847325Y-105071006D01*
X146878458Y-105083902D01*
X146899890Y-105095359D01*
X146927898Y-105114074D01*
X146946685Y-105129492D01*
X146970502Y-105153308D01*
X146985925Y-105172100D01*
X147004638Y-105200106D01*
X147016098Y-105221547D01*
X147028990Y-105252673D01*
X147036044Y-105275926D01*
X147036044Y-105275927D01*
X147042616Y-105308960D01*
X147045000Y-105333156D01*
X147045000Y-105366839D01*
X147042616Y-105391035D01*
X147036043Y-105424073D01*
X147028988Y-105447329D01*
X147016098Y-105478449D01*
X147004639Y-105499888D01*
X146985920Y-105527903D01*
X146970502Y-105546689D01*
X146970499Y-105546693D01*
X146946693Y-105570499D01*
X146927903Y-105585920D01*
X146899885Y-105604641D01*
X146878446Y-105616100D01*
X146847328Y-105628989D01*
X146824071Y-105636045D01*
X146807340Y-105639373D01*
X146791031Y-105642617D01*
X146766841Y-105645000D01*
X146733159Y-105645000D01*
X146708970Y-105642617D01*
X146675924Y-105636044D01*
X146652667Y-105628988D01*
X146621547Y-105616098D01*
X146600107Y-105604638D01*
X146572099Y-105585923D01*
X146553312Y-105570505D01*
X146529495Y-105546689D01*
X146514074Y-105527899D01*
X146495357Y-105499888D01*
X146483901Y-105478455D01*
X146480780Y-105470921D01*
X146471007Y-105447326D01*
X146463954Y-105424073D01*
X146457381Y-105391031D01*
X146455000Y-105366844D01*
X146455000Y-105333153D01*
X146457382Y-105308964D01*
X146457664Y-105307546D01*
X146463956Y-105275914D01*
X146471007Y-105252673D01*
X146483902Y-105221539D01*
X146495351Y-105200119D01*
X146514079Y-105172090D01*
X146529488Y-105153316D01*
X146553314Y-105129489D01*
X146572098Y-105114074D01*
X146600111Y-105095356D01*
X146621545Y-105083900D01*
X146652668Y-105071008D01*
X146675918Y-105063955D01*
X146708970Y-105057381D01*
X146733154Y-105055000D01*
X146766842Y-105055000D01*
X146791027Y-105057381D01*
G37*
%TD.AperFunction*%
%TA.AperFunction,Conductor*%
G36*
X148841027Y-105007381D02*
G01*
X148874079Y-105013956D01*
X148897325Y-105021006D01*
X148928458Y-105033902D01*
X148949881Y-105045353D01*
X148977903Y-105064076D01*
X148996686Y-105079493D01*
X149020501Y-105103308D01*
X149035918Y-105122093D01*
X149054642Y-105150115D01*
X149066099Y-105171549D01*
X149078989Y-105202668D01*
X149086045Y-105225927D01*
X149092617Y-105258962D01*
X149095000Y-105283156D01*
X149095000Y-105316839D01*
X149092616Y-105341035D01*
X149086043Y-105374073D01*
X149078988Y-105397329D01*
X149066098Y-105428449D01*
X149054639Y-105449888D01*
X149035920Y-105477903D01*
X149020499Y-105496693D01*
X148996693Y-105520499D01*
X148977903Y-105535920D01*
X148949885Y-105554641D01*
X148928446Y-105566100D01*
X148897328Y-105578989D01*
X148874071Y-105586045D01*
X148857340Y-105589373D01*
X148841031Y-105592617D01*
X148816841Y-105595000D01*
X148783159Y-105595000D01*
X148758970Y-105592617D01*
X148725924Y-105586044D01*
X148702667Y-105578988D01*
X148671547Y-105566098D01*
X148650107Y-105554638D01*
X148622099Y-105535923D01*
X148603312Y-105520505D01*
X148579495Y-105496689D01*
X148564074Y-105477899D01*
X148545357Y-105449888D01*
X148533901Y-105428455D01*
X148530780Y-105420921D01*
X148521007Y-105397326D01*
X148513954Y-105374073D01*
X148507381Y-105341031D01*
X148505000Y-105316844D01*
X148505000Y-105283153D01*
X148507382Y-105258964D01*
X148513956Y-105225914D01*
X148521006Y-105202674D01*
X148533902Y-105171539D01*
X148545351Y-105150119D01*
X148564079Y-105122090D01*
X148579488Y-105103316D01*
X148603314Y-105079489D01*
X148622093Y-105064076D01*
X148650111Y-105045356D01*
X148671545Y-105033900D01*
X148702668Y-105021008D01*
X148725918Y-105013955D01*
X148758970Y-105007381D01*
X148783154Y-105005000D01*
X148816842Y-105005000D01*
X148841027Y-105007381D01*
G37*
%TD.AperFunction*%
%TA.AperFunction,Conductor*%
G36*
X150691027Y-104607381D02*
G01*
X150724079Y-104613956D01*
X150747325Y-104621006D01*
X150778458Y-104633902D01*
X150799890Y-104645359D01*
X150827898Y-104664074D01*
X150846685Y-104679492D01*
X150870502Y-104703308D01*
X150885925Y-104722100D01*
X150904638Y-104750106D01*
X150916098Y-104771546D01*
X150928990Y-104802671D01*
X150936045Y-104825926D01*
X150936045Y-104825927D01*
X150942617Y-104858961D01*
X150945000Y-104883156D01*
X150945000Y-104916839D01*
X150942616Y-104941035D01*
X150936043Y-104974073D01*
X150928988Y-104997329D01*
X150916098Y-105028449D01*
X150904639Y-105049888D01*
X150885920Y-105077903D01*
X150870502Y-105096689D01*
X150870499Y-105096693D01*
X150846693Y-105120499D01*
X150827903Y-105135920D01*
X150799885Y-105154641D01*
X150778446Y-105166100D01*
X150747328Y-105178989D01*
X150724071Y-105186045D01*
X150707340Y-105189373D01*
X150691031Y-105192617D01*
X150666841Y-105195000D01*
X150633159Y-105195000D01*
X150608970Y-105192617D01*
X150575924Y-105186044D01*
X150552667Y-105178988D01*
X150521547Y-105166098D01*
X150500107Y-105154638D01*
X150472099Y-105135923D01*
X150453312Y-105120505D01*
X150429495Y-105096689D01*
X150414074Y-105077899D01*
X150395357Y-105049888D01*
X150383901Y-105028455D01*
X150378882Y-105016338D01*
X150371007Y-104997326D01*
X150363954Y-104974073D01*
X150357381Y-104941031D01*
X150355000Y-104916844D01*
X150355000Y-104883153D01*
X150357382Y-104858964D01*
X150357383Y-104858961D01*
X150363956Y-104825914D01*
X150371006Y-104802674D01*
X150383902Y-104771539D01*
X150395351Y-104750119D01*
X150414079Y-104722090D01*
X150429488Y-104703316D01*
X150453314Y-104679489D01*
X150472098Y-104664074D01*
X150500111Y-104645356D01*
X150521545Y-104633900D01*
X150552668Y-104621008D01*
X150575918Y-104613955D01*
X150608970Y-104607381D01*
X150633154Y-104605000D01*
X150666842Y-104605000D01*
X150691027Y-104607381D01*
G37*
%TD.AperFunction*%
%TA.AperFunction,Conductor*%
G36*
X161941027Y-101507381D02*
G01*
X161974079Y-101513956D01*
X161997325Y-101521006D01*
X162028458Y-101533902D01*
X162049890Y-101545359D01*
X162077898Y-101564074D01*
X162096685Y-101579492D01*
X162120502Y-101603308D01*
X162135925Y-101622100D01*
X162154640Y-101650109D01*
X162166099Y-101671548D01*
X162178988Y-101702665D01*
X162186043Y-101725922D01*
X162186044Y-101725926D01*
X162192617Y-101758964D01*
X162195000Y-101783158D01*
X162195000Y-101816839D01*
X162192616Y-101841035D01*
X162186043Y-101874073D01*
X162178988Y-101897329D01*
X162166098Y-101928449D01*
X162154639Y-101949888D01*
X162135920Y-101977903D01*
X162120502Y-101996689D01*
X162120499Y-101996693D01*
X162096693Y-102020499D01*
X162077903Y-102035920D01*
X162049885Y-102054641D01*
X162028446Y-102066100D01*
X161997328Y-102078989D01*
X161974071Y-102086045D01*
X161957340Y-102089373D01*
X161941031Y-102092617D01*
X161916841Y-102095000D01*
X161883159Y-102095000D01*
X161858970Y-102092617D01*
X161825924Y-102086044D01*
X161802667Y-102078988D01*
X161771547Y-102066098D01*
X161750107Y-102054638D01*
X161722099Y-102035923D01*
X161703312Y-102020505D01*
X161679495Y-101996689D01*
X161664074Y-101977899D01*
X161645357Y-101949888D01*
X161633901Y-101928455D01*
X161630780Y-101920921D01*
X161621007Y-101897326D01*
X161613954Y-101874073D01*
X161607381Y-101841031D01*
X161605000Y-101816844D01*
X161605000Y-101783153D01*
X161607382Y-101758964D01*
X161613956Y-101725914D01*
X161621006Y-101702674D01*
X161633902Y-101671539D01*
X161645351Y-101650119D01*
X161664079Y-101622090D01*
X161679488Y-101603316D01*
X161703314Y-101579489D01*
X161722098Y-101564074D01*
X161750111Y-101545356D01*
X161771545Y-101533900D01*
X161802668Y-101521008D01*
X161825918Y-101513955D01*
X161858970Y-101507381D01*
X161883154Y-101505000D01*
X161916842Y-101505000D01*
X161941027Y-101507381D01*
G37*
%TD.AperFunction*%
%TA.AperFunction,Conductor*%
G36*
X131314974Y-86793155D02*
G01*
X131350627Y-86853244D01*
X131352097Y-86908100D01*
X131349500Y-86921157D01*
X131349500Y-87078846D01*
X131380261Y-87233489D01*
X131380264Y-87233501D01*
X131440602Y-87379172D01*
X131440609Y-87379185D01*
X131528210Y-87510288D01*
X131528213Y-87510292D01*
X131639707Y-87621786D01*
X131639711Y-87621789D01*
X131770814Y-87709390D01*
X131770827Y-87709397D01*
X131915185Y-87769191D01*
X131955414Y-87796071D01*
X132853453Y-88694111D01*
X132853454Y-88694112D01*
X132968192Y-88770777D01*
X133095667Y-88823578D01*
X133095672Y-88823580D01*
X133095676Y-88823580D01*
X133095677Y-88823581D01*
X133231003Y-88850500D01*
X133231006Y-88850500D01*
X133231007Y-88850500D01*
X137881007Y-88850500D01*
X141481007Y-88850500D01*
X143358481Y-88850500D01*
X143425520Y-88870185D01*
X143446162Y-88886819D01*
X143873372Y-89314029D01*
X143906857Y-89375352D01*
X143908271Y-89420420D01*
X143893462Y-89517440D01*
X143893461Y-89517448D01*
X143883495Y-90666768D01*
X143883495Y-90666769D01*
X143883025Y-90720941D01*
X143873486Y-91820940D01*
X143873486Y-91820941D01*
X143870920Y-92116769D01*
X143870450Y-92170941D01*
X143862247Y-93116768D01*
X143862247Y-93116769D01*
X143861777Y-93170941D01*
X143857009Y-93720699D01*
X143844902Y-95116768D01*
X143844902Y-95116769D01*
X143844432Y-95170941D01*
X143836117Y-96129689D01*
X143815852Y-96196556D01*
X143762653Y-96241851D01*
X143693411Y-96251194D01*
X143664670Y-96243175D01*
X143633497Y-96230263D01*
X143633489Y-96230261D01*
X143478845Y-96199500D01*
X143478842Y-96199500D01*
X143321158Y-96199500D01*
X143321155Y-96199500D01*
X143166510Y-96230261D01*
X143166498Y-96230264D01*
X143020827Y-96290602D01*
X143020814Y-96290609D01*
X142889711Y-96378210D01*
X142889707Y-96378213D01*
X142778213Y-96489707D01*
X142778210Y-96489711D01*
X142690609Y-96620814D01*
X142690602Y-96620827D01*
X142630264Y-96766498D01*
X142630261Y-96766510D01*
X142599500Y-96921153D01*
X142599500Y-97078844D01*
X142630261Y-97233489D01*
X142630264Y-97233501D01*
X142690602Y-97379172D01*
X142690609Y-97379185D01*
X142778210Y-97510288D01*
X142778213Y-97510292D01*
X142889707Y-97621786D01*
X142889711Y-97621789D01*
X143020814Y-97709390D01*
X143020827Y-97709397D01*
X143150499Y-97763108D01*
X143166503Y-97769737D01*
X143301999Y-97796689D01*
X143321153Y-97800499D01*
X143321156Y-97800500D01*
X143321158Y-97800500D01*
X143478844Y-97800500D01*
X143478845Y-97800499D01*
X143633497Y-97769737D01*
X143649501Y-97763107D01*
X143718967Y-97755638D01*
X143781447Y-97786911D01*
X143817101Y-97846999D01*
X143820949Y-97878743D01*
X143810213Y-99116768D01*
X143810213Y-99116769D01*
X143809743Y-99170941D01*
X143799086Y-100399752D01*
X143808359Y-100500610D01*
X143817795Y-100549141D01*
X143824853Y-100572591D01*
X143827731Y-100584134D01*
X143842617Y-100658964D01*
X143845000Y-100683157D01*
X143845000Y-100716842D01*
X143842617Y-100741031D01*
X143838034Y-100764072D01*
X143830931Y-100799780D01*
X143827896Y-100811839D01*
X143813431Y-100859153D01*
X143813426Y-100859171D01*
X143813426Y-100859173D01*
X143804579Y-100902662D01*
X143803992Y-100905546D01*
X143793864Y-101001936D01*
X143793864Y-101001946D01*
X143788881Y-101576575D01*
X143768616Y-101643442D01*
X143715417Y-101688737D01*
X143664886Y-101699500D01*
X142041519Y-101699500D01*
X141974480Y-101679815D01*
X141953838Y-101663181D01*
X140446071Y-100155414D01*
X140419191Y-100115185D01*
X140359397Y-99970827D01*
X140359390Y-99970814D01*
X140271789Y-99839711D01*
X140271786Y-99839707D01*
X140160292Y-99728213D01*
X140160288Y-99728210D01*
X140029185Y-99640609D01*
X140029172Y-99640602D01*
X139883501Y-99580264D01*
X139883489Y-99580261D01*
X139728845Y-99549500D01*
X139728842Y-99549500D01*
X139571158Y-99549500D01*
X139497690Y-99564113D01*
X139428099Y-99557884D01*
X139372922Y-99515021D01*
X139349678Y-99449131D01*
X139349500Y-99442495D01*
X139349500Y-97850456D01*
X139349499Y-97850454D01*
X139311053Y-97657175D01*
X139311050Y-97657163D01*
X139308290Y-97650500D01*
X139288961Y-97603834D01*
X139247059Y-97502673D01*
X139235635Y-97475092D01*
X139235628Y-97475079D01*
X139144068Y-97338051D01*
X139144066Y-97338048D01*
X139126142Y-97311221D01*
X138136819Y-96321898D01*
X138103334Y-96260575D01*
X138100500Y-96234217D01*
X138100500Y-94715782D01*
X138109143Y-94686345D01*
X138115667Y-94656356D01*
X138119422Y-94651338D01*
X138120185Y-94648743D01*
X138136814Y-94628104D01*
X138237778Y-94527141D01*
X138237782Y-94527139D01*
X138377139Y-94387782D01*
X138486632Y-94223914D01*
X138540030Y-94095000D01*
X138562051Y-94041836D01*
X138562804Y-94038053D01*
X138587867Y-93912051D01*
X138587867Y-93912049D01*
X138588776Y-93907483D01*
X138600500Y-93848541D01*
X138600500Y-92201459D01*
X138592822Y-92162861D01*
X138586084Y-92128989D01*
X138577518Y-92085923D01*
X138562051Y-92008164D01*
X138507100Y-91875501D01*
X138503514Y-91866844D01*
X138486635Y-91826093D01*
X138486634Y-91826092D01*
X138486632Y-91826086D01*
X138453116Y-91775926D01*
X138377140Y-91662219D01*
X138310280Y-91595359D01*
X138237782Y-91522861D01*
X138237781Y-91522860D01*
X137909208Y-91194288D01*
X137909206Y-91194285D01*
X137909206Y-91194286D01*
X137902140Y-91187220D01*
X137902139Y-91187218D01*
X137762782Y-91047861D01*
X137681398Y-90993482D01*
X137598919Y-90938371D01*
X137598916Y-90938369D01*
X137598914Y-90938368D01*
X137598911Y-90938366D01*
X137598906Y-90938364D01*
X137475249Y-90887144D01*
X137475243Y-90887142D01*
X137467449Y-90883914D01*
X137416836Y-90862949D01*
X137281596Y-90836048D01*
X137277914Y-90835315D01*
X137277908Y-90835314D01*
X137223542Y-90824500D01*
X137223541Y-90824500D01*
X135256941Y-90824500D01*
X135189902Y-90804815D01*
X135144147Y-90752011D01*
X135134203Y-90682853D01*
X135163228Y-90619297D01*
X135169260Y-90612819D01*
X135221786Y-90560292D01*
X135221789Y-90560289D01*
X135309394Y-90429179D01*
X135369737Y-90283497D01*
X135400500Y-90128842D01*
X135400500Y-89971158D01*
X135400500Y-89971155D01*
X135400499Y-89971153D01*
X135388721Y-89911943D01*
X135369737Y-89816503D01*
X135351810Y-89773222D01*
X135309397Y-89670827D01*
X135309390Y-89670814D01*
X135221789Y-89539711D01*
X135221786Y-89539707D01*
X135110292Y-89428213D01*
X135110288Y-89428210D01*
X134979185Y-89340609D01*
X134979172Y-89340602D01*
X134833501Y-89280264D01*
X134833489Y-89280261D01*
X134678845Y-89249500D01*
X134678842Y-89249500D01*
X134521158Y-89249500D01*
X134521155Y-89249500D01*
X134366510Y-89280261D01*
X134366498Y-89280264D01*
X134220827Y-89340602D01*
X134220814Y-89340609D01*
X134089711Y-89428210D01*
X134089705Y-89428215D01*
X134079853Y-89438067D01*
X134018529Y-89471550D01*
X133948837Y-89466563D01*
X133923284Y-89453485D01*
X133829184Y-89390609D01*
X133829172Y-89390602D01*
X133683501Y-89330264D01*
X133683489Y-89330261D01*
X133528845Y-89299500D01*
X133528842Y-89299500D01*
X133371158Y-89299500D01*
X133371155Y-89299500D01*
X133216510Y-89330261D01*
X133216498Y-89330264D01*
X133070827Y-89390602D01*
X133070814Y-89390609D01*
X132939711Y-89478210D01*
X132939707Y-89478213D01*
X132828213Y-89589707D01*
X132828210Y-89589711D01*
X132740609Y-89720814D01*
X132740602Y-89720827D01*
X132680264Y-89866498D01*
X132680261Y-89866508D01*
X132651053Y-90013345D01*
X132618668Y-90075256D01*
X132557952Y-90109830D01*
X132488182Y-90106089D01*
X132441755Y-90076834D01*
X130586819Y-88221898D01*
X130553334Y-88160575D01*
X130550500Y-88134217D01*
X130550500Y-86902059D01*
X130570185Y-86835020D01*
X130622989Y-86789265D01*
X130692147Y-86779321D01*
X130698682Y-86780440D01*
X130743047Y-86789265D01*
X130846968Y-86809937D01*
X130846971Y-86809937D01*
X131004657Y-86809937D01*
X131004658Y-86809936D01*
X131159310Y-86779174D01*
X131183028Y-86769349D01*
X131252494Y-86761881D01*
X131314974Y-86793155D01*
G37*
%TD.AperFunction*%
%TA.AperFunction,Conductor*%
G36*
X156441027Y-100707381D02*
G01*
X156474079Y-100713956D01*
X156497325Y-100721006D01*
X156528458Y-100733902D01*
X156549890Y-100745359D01*
X156577898Y-100764074D01*
X156596681Y-100779488D01*
X156630379Y-100813185D01*
X156643339Y-100825691D01*
X156649817Y-100831723D01*
X156663265Y-100843804D01*
X156741880Y-100894326D01*
X156787635Y-100947130D01*
X156797579Y-101016289D01*
X156768554Y-101079844D01*
X156748556Y-101097211D01*
X156749103Y-101097941D01*
X156745561Y-101100592D01*
X156745558Y-101100594D01*
X156642294Y-101177896D01*
X156630383Y-101186812D01*
X156630378Y-101186815D01*
X156596686Y-101220506D01*
X156577902Y-101235921D01*
X156549892Y-101254638D01*
X156528450Y-101266099D01*
X156497330Y-101278989D01*
X156474071Y-101286045D01*
X156457340Y-101289373D01*
X156441031Y-101292617D01*
X156416841Y-101295000D01*
X156383159Y-101295000D01*
X156358970Y-101292617D01*
X156325924Y-101286044D01*
X156302667Y-101278988D01*
X156271547Y-101266098D01*
X156250107Y-101254638D01*
X156222099Y-101235923D01*
X156203312Y-101220505D01*
X156179495Y-101196689D01*
X156164074Y-101177899D01*
X156145358Y-101149890D01*
X156133901Y-101128455D01*
X156130290Y-101119737D01*
X156121007Y-101097326D01*
X156113954Y-101074075D01*
X156107381Y-101041031D01*
X156105000Y-101016844D01*
X156105000Y-100983153D01*
X156107382Y-100958964D01*
X156113956Y-100925914D01*
X156121006Y-100902674D01*
X156133902Y-100871539D01*
X156145351Y-100850119D01*
X156164079Y-100822090D01*
X156179488Y-100803316D01*
X156203314Y-100779489D01*
X156222098Y-100764074D01*
X156250111Y-100745356D01*
X156271545Y-100733900D01*
X156302668Y-100721008D01*
X156325918Y-100713955D01*
X156358970Y-100707381D01*
X156383154Y-100705000D01*
X156416842Y-100705000D01*
X156441027Y-100707381D01*
G37*
%TD.AperFunction*%
%TA.AperFunction,Conductor*%
G36*
X149841027Y-98907381D02*
G01*
X149874079Y-98913956D01*
X149897325Y-98921006D01*
X149928458Y-98933902D01*
X149949890Y-98945359D01*
X149977898Y-98964074D01*
X149996685Y-98979492D01*
X150020502Y-99003308D01*
X150035925Y-99022100D01*
X150054640Y-99050109D01*
X150066098Y-99071546D01*
X150066099Y-99071548D01*
X150078988Y-99102665D01*
X150086044Y-99125925D01*
X150092617Y-99158968D01*
X150095000Y-99183160D01*
X150095000Y-99216839D01*
X150092616Y-99241035D01*
X150086043Y-99274073D01*
X150078988Y-99297329D01*
X150066098Y-99328449D01*
X150054639Y-99349888D01*
X150035920Y-99377903D01*
X150020499Y-99396693D01*
X149996693Y-99420499D01*
X149977903Y-99435920D01*
X149949885Y-99454641D01*
X149928446Y-99466100D01*
X149897328Y-99478989D01*
X149874071Y-99486045D01*
X149857340Y-99489373D01*
X149841031Y-99492617D01*
X149816841Y-99495000D01*
X149783159Y-99495000D01*
X149758970Y-99492617D01*
X149725924Y-99486044D01*
X149702667Y-99478988D01*
X149671547Y-99466098D01*
X149650107Y-99454638D01*
X149622099Y-99435923D01*
X149603312Y-99420505D01*
X149579495Y-99396689D01*
X149564074Y-99377899D01*
X149545357Y-99349888D01*
X149533901Y-99328455D01*
X149530780Y-99320921D01*
X149521007Y-99297326D01*
X149513954Y-99274073D01*
X149507381Y-99241031D01*
X149505000Y-99216844D01*
X149505000Y-99183153D01*
X149507382Y-99158964D01*
X149507383Y-99158961D01*
X149513956Y-99125914D01*
X149521006Y-99102674D01*
X149533902Y-99071539D01*
X149545351Y-99050119D01*
X149564079Y-99022090D01*
X149579488Y-99003316D01*
X149603314Y-98979489D01*
X149622098Y-98964074D01*
X149650111Y-98945356D01*
X149671545Y-98933900D01*
X149702668Y-98921008D01*
X149725918Y-98913955D01*
X149758970Y-98907381D01*
X149783154Y-98905000D01*
X149816842Y-98905000D01*
X149841027Y-98907381D01*
G37*
%TD.AperFunction*%
%TA.AperFunction,Conductor*%
G36*
X151841027Y-98907381D02*
G01*
X151874079Y-98913956D01*
X151897325Y-98921006D01*
X151928458Y-98933902D01*
X151949890Y-98945359D01*
X151977898Y-98964074D01*
X151996685Y-98979492D01*
X152020502Y-99003308D01*
X152035925Y-99022100D01*
X152054638Y-99050106D01*
X152066098Y-99071546D01*
X152078990Y-99102671D01*
X152086044Y-99125925D01*
X152086045Y-99125927D01*
X152092617Y-99158961D01*
X152095000Y-99183156D01*
X152095000Y-99216839D01*
X152092616Y-99241035D01*
X152086043Y-99274073D01*
X152078988Y-99297329D01*
X152066098Y-99328449D01*
X152054639Y-99349888D01*
X152035920Y-99377903D01*
X152020502Y-99396689D01*
X152020499Y-99396693D01*
X151996693Y-99420499D01*
X151977903Y-99435920D01*
X151949885Y-99454641D01*
X151928446Y-99466100D01*
X151897328Y-99478989D01*
X151874071Y-99486045D01*
X151857340Y-99489373D01*
X151841031Y-99492617D01*
X151816841Y-99495000D01*
X151783159Y-99495000D01*
X151758970Y-99492617D01*
X151725924Y-99486044D01*
X151702667Y-99478988D01*
X151671547Y-99466098D01*
X151650107Y-99454638D01*
X151622099Y-99435923D01*
X151603312Y-99420505D01*
X151579495Y-99396689D01*
X151564074Y-99377899D01*
X151545357Y-99349888D01*
X151533901Y-99328455D01*
X151530780Y-99320921D01*
X151521007Y-99297326D01*
X151513954Y-99274073D01*
X151507381Y-99241031D01*
X151505000Y-99216844D01*
X151505000Y-99183153D01*
X151507382Y-99158964D01*
X151507383Y-99158961D01*
X151513956Y-99125914D01*
X151521006Y-99102674D01*
X151533902Y-99071539D01*
X151545351Y-99050119D01*
X151564079Y-99022090D01*
X151579488Y-99003316D01*
X151603314Y-98979489D01*
X151622098Y-98964074D01*
X151650111Y-98945356D01*
X151671545Y-98933900D01*
X151702668Y-98921008D01*
X151725918Y-98913955D01*
X151758970Y-98907381D01*
X151783154Y-98905000D01*
X151816842Y-98905000D01*
X151841027Y-98907381D01*
G37*
%TD.AperFunction*%
%TA.AperFunction,Conductor*%
G36*
X163628051Y-97324685D02*
G01*
X163672870Y-97375486D01*
X163697060Y-97426049D01*
X163699764Y-97432112D01*
X163728990Y-97502673D01*
X163736044Y-97525926D01*
X163736044Y-97525927D01*
X163742616Y-97558959D01*
X163745000Y-97583156D01*
X163745000Y-97616839D01*
X163742616Y-97641035D01*
X163736043Y-97674073D01*
X163728988Y-97697329D01*
X163716098Y-97728449D01*
X163704639Y-97749888D01*
X163685920Y-97777903D01*
X163670502Y-97796689D01*
X163670499Y-97796693D01*
X163646693Y-97820499D01*
X163627903Y-97835920D01*
X163599885Y-97854641D01*
X163578446Y-97866100D01*
X163547328Y-97878989D01*
X163524071Y-97886045D01*
X163507340Y-97889373D01*
X163491031Y-97892617D01*
X163466841Y-97895000D01*
X163433159Y-97895000D01*
X163408970Y-97892617D01*
X163375924Y-97886044D01*
X163352667Y-97878988D01*
X163321547Y-97866098D01*
X163300107Y-97854638D01*
X163272099Y-97835923D01*
X163253312Y-97820505D01*
X163229495Y-97796689D01*
X163214074Y-97777899D01*
X163195357Y-97749888D01*
X163183901Y-97728455D01*
X163176007Y-97709397D01*
X163171007Y-97697326D01*
X163163954Y-97674073D01*
X163157381Y-97641031D01*
X163155000Y-97616844D01*
X163155000Y-97583153D01*
X163157382Y-97558964D01*
X163158178Y-97554962D01*
X163163956Y-97525914D01*
X163171007Y-97502673D01*
X163183902Y-97471539D01*
X163195351Y-97450119D01*
X163214079Y-97422090D01*
X163229488Y-97403316D01*
X163253314Y-97379489D01*
X163272093Y-97364076D01*
X163300111Y-97345356D01*
X163321545Y-97333900D01*
X163352668Y-97321008D01*
X163375918Y-97313955D01*
X163408970Y-97307381D01*
X163433154Y-97305000D01*
X163561012Y-97305000D01*
X163628051Y-97324685D01*
G37*
%TD.AperFunction*%
%TA.AperFunction,Conductor*%
G36*
X157991030Y-96857383D02*
G01*
X158024075Y-96863956D01*
X158047336Y-96871012D01*
X158075274Y-96882584D01*
X158134604Y-96907159D01*
X158165589Y-96917779D01*
X158186602Y-96932648D01*
X158209653Y-96944116D01*
X158214654Y-96952497D01*
X158222622Y-96958136D01*
X158232262Y-96982009D01*
X158245453Y-97004117D01*
X158246123Y-97016334D01*
X158248784Y-97022923D01*
X158249313Y-97039200D01*
X158249087Y-97045997D01*
X158245000Y-97074424D01*
X158245000Y-97168915D01*
X158244932Y-97170961D01*
X158244450Y-97172420D01*
X158242616Y-97191036D01*
X158236043Y-97224074D01*
X158228989Y-97247329D01*
X158216101Y-97278445D01*
X158204642Y-97299883D01*
X158185923Y-97327899D01*
X158170501Y-97346691D01*
X158124087Y-97393105D01*
X158123710Y-97393481D01*
X158092472Y-97424451D01*
X158091481Y-97425287D01*
X158090157Y-97426683D01*
X158090189Y-97426714D01*
X158089125Y-97427770D01*
X158086118Y-97430941D01*
X158081547Y-97435516D01*
X158080330Y-97436671D01*
X158078064Y-97439129D01*
X158071743Y-97445450D01*
X158068811Y-97449189D01*
X158060161Y-97458308D01*
X157999743Y-97493400D01*
X157929944Y-97490256D01*
X157892389Y-97469521D01*
X157886130Y-97464477D01*
X157883075Y-97460077D01*
X157873603Y-97453748D01*
X157873603Y-97453747D01*
X157859587Y-97444383D01*
X157859585Y-97444381D01*
X157772097Y-97385922D01*
X157753312Y-97370505D01*
X157729492Y-97346685D01*
X157714074Y-97327899D01*
X157695358Y-97299890D01*
X157683901Y-97278455D01*
X157678783Y-97266100D01*
X157671007Y-97247326D01*
X157663954Y-97224075D01*
X157657381Y-97191031D01*
X157655000Y-97166844D01*
X157655000Y-97133153D01*
X157657382Y-97108964D01*
X157659696Y-97097332D01*
X157663956Y-97075914D01*
X157671006Y-97052674D01*
X157683902Y-97021539D01*
X157695351Y-97000119D01*
X157714079Y-96972090D01*
X157729488Y-96953316D01*
X157753314Y-96929489D01*
X157772093Y-96914076D01*
X157800111Y-96895356D01*
X157821545Y-96883900D01*
X157852668Y-96871008D01*
X157875918Y-96863955D01*
X157908970Y-96857381D01*
X157933154Y-96855000D01*
X157966839Y-96855000D01*
X157991030Y-96857383D01*
G37*
%TD.AperFunction*%
%TA.AperFunction,Conductor*%
G36*
X147478937Y-96703075D02*
G01*
X147491287Y-96707432D01*
X147491290Y-96707432D01*
X147491294Y-96707434D01*
X147524083Y-96713956D01*
X147547326Y-96721007D01*
X147578454Y-96733900D01*
X147599887Y-96745357D01*
X147627893Y-96764070D01*
X147646683Y-96779491D01*
X147670506Y-96803314D01*
X147685926Y-96822103D01*
X147704637Y-96850105D01*
X147716098Y-96871546D01*
X147728990Y-96902671D01*
X147736045Y-96925926D01*
X147736045Y-96925927D01*
X147742617Y-96958961D01*
X147745000Y-96983156D01*
X147745000Y-97016839D01*
X147742617Y-97041030D01*
X147738195Y-97063257D01*
X147736044Y-97074073D01*
X147728989Y-97097329D01*
X147719209Y-97120941D01*
X147719202Y-97120957D01*
X147716091Y-97128465D01*
X147704639Y-97149888D01*
X147685921Y-97177902D01*
X147670499Y-97196693D01*
X147646693Y-97220499D01*
X147627903Y-97235920D01*
X147599885Y-97254641D01*
X147578446Y-97266100D01*
X147547328Y-97278989D01*
X147524071Y-97286045D01*
X147507340Y-97289373D01*
X147491031Y-97292617D01*
X147466841Y-97295000D01*
X147433159Y-97295000D01*
X147408970Y-97292617D01*
X147375924Y-97286044D01*
X147352667Y-97278988D01*
X147321547Y-97266098D01*
X147300107Y-97254638D01*
X147272099Y-97235923D01*
X147253312Y-97220505D01*
X147229495Y-97196689D01*
X147214074Y-97177899D01*
X147195357Y-97149888D01*
X147183901Y-97128455D01*
X147180780Y-97120921D01*
X147171007Y-97097326D01*
X147163954Y-97074073D01*
X147157381Y-97041031D01*
X147155000Y-97016844D01*
X147155000Y-96983153D01*
X147157382Y-96958964D01*
X147157547Y-96958136D01*
X147163956Y-96925914D01*
X147171006Y-96902674D01*
X147183902Y-96871539D01*
X147195351Y-96850119D01*
X147214079Y-96822090D01*
X147229488Y-96803316D01*
X147253314Y-96779489D01*
X147272088Y-96764080D01*
X147300121Y-96745349D01*
X147321532Y-96733905D01*
X147390235Y-96705448D01*
X147459702Y-96697982D01*
X147478937Y-96703075D01*
G37*
%TD.AperFunction*%
%TA.AperFunction,Conductor*%
G36*
X147391027Y-94907381D02*
G01*
X147424079Y-94913956D01*
X147447325Y-94921006D01*
X147478458Y-94933902D01*
X147499890Y-94945359D01*
X147527898Y-94964074D01*
X147546685Y-94979492D01*
X147570502Y-95003308D01*
X147585925Y-95022100D01*
X147604638Y-95050106D01*
X147616098Y-95071546D01*
X147628990Y-95102671D01*
X147636045Y-95125926D01*
X147636045Y-95125927D01*
X147642617Y-95158961D01*
X147645000Y-95183156D01*
X147645000Y-95216839D01*
X147642616Y-95241035D01*
X147636043Y-95274073D01*
X147628988Y-95297329D01*
X147616098Y-95328449D01*
X147604639Y-95349888D01*
X147585920Y-95377903D01*
X147570502Y-95396689D01*
X147570499Y-95396693D01*
X147546693Y-95420499D01*
X147527903Y-95435920D01*
X147499887Y-95454640D01*
X147478449Y-95466099D01*
X147409768Y-95494548D01*
X147340299Y-95502017D01*
X147321066Y-95496925D01*
X147308705Y-95492564D01*
X147308696Y-95492562D01*
X147275926Y-95486044D01*
X147252664Y-95478988D01*
X147235733Y-95471974D01*
X147221544Y-95466097D01*
X147200109Y-95454639D01*
X147172100Y-95435924D01*
X147153312Y-95420505D01*
X147129495Y-95396689D01*
X147114074Y-95377899D01*
X147095357Y-95349888D01*
X147083901Y-95328455D01*
X147080780Y-95320921D01*
X147071007Y-95297326D01*
X147063954Y-95274073D01*
X147057381Y-95241031D01*
X147055000Y-95216844D01*
X147055000Y-95183153D01*
X147057382Y-95158964D01*
X147057383Y-95158961D01*
X147063956Y-95125914D01*
X147071006Y-95102674D01*
X147083902Y-95071539D01*
X147095351Y-95050119D01*
X147114079Y-95022090D01*
X147129488Y-95003316D01*
X147153314Y-94979489D01*
X147172098Y-94964074D01*
X147200111Y-94945356D01*
X147221545Y-94933900D01*
X147252668Y-94921008D01*
X147275918Y-94913955D01*
X147308970Y-94907381D01*
X147333154Y-94905000D01*
X147366842Y-94905000D01*
X147391027Y-94907381D01*
G37*
%TD.AperFunction*%
%TA.AperFunction,Conductor*%
G36*
X164241027Y-93557381D02*
G01*
X164274079Y-93563956D01*
X164297325Y-93571006D01*
X164328458Y-93583902D01*
X164349890Y-93595359D01*
X164377898Y-93614074D01*
X164396685Y-93629492D01*
X164420502Y-93653308D01*
X164435925Y-93672100D01*
X164454638Y-93700106D01*
X164466098Y-93721546D01*
X164478990Y-93752671D01*
X164486045Y-93775926D01*
X164486045Y-93775927D01*
X164492617Y-93808961D01*
X164495000Y-93833156D01*
X164495000Y-93866839D01*
X164492616Y-93891035D01*
X164486043Y-93924073D01*
X164478988Y-93947329D01*
X164466098Y-93978449D01*
X164454639Y-93999888D01*
X164435920Y-94027903D01*
X164420502Y-94046689D01*
X164420499Y-94046693D01*
X164396693Y-94070499D01*
X164377903Y-94085920D01*
X164349885Y-94104641D01*
X164328446Y-94116100D01*
X164297328Y-94128989D01*
X164274071Y-94136045D01*
X164257340Y-94139373D01*
X164241031Y-94142617D01*
X164216841Y-94145000D01*
X164183159Y-94145000D01*
X164158970Y-94142617D01*
X164125924Y-94136044D01*
X164102667Y-94128988D01*
X164071547Y-94116098D01*
X164050107Y-94104638D01*
X164022099Y-94085923D01*
X164003312Y-94070505D01*
X163979495Y-94046689D01*
X163964074Y-94027899D01*
X163945357Y-93999888D01*
X163933901Y-93978455D01*
X163925496Y-93958164D01*
X163921007Y-93947326D01*
X163913954Y-93924073D01*
X163907381Y-93891031D01*
X163905000Y-93866844D01*
X163905000Y-93833153D01*
X163907382Y-93808964D01*
X163910765Y-93791957D01*
X163913956Y-93775914D01*
X163921006Y-93752674D01*
X163933902Y-93721539D01*
X163945351Y-93700119D01*
X163964079Y-93672090D01*
X163979488Y-93653316D01*
X164003314Y-93629489D01*
X164022098Y-93614074D01*
X164050111Y-93595356D01*
X164071545Y-93583900D01*
X164102668Y-93571008D01*
X164125918Y-93563955D01*
X164158970Y-93557381D01*
X164183154Y-93555000D01*
X164216842Y-93555000D01*
X164241027Y-93557381D01*
G37*
%TD.AperFunction*%
%TA.AperFunction,Conductor*%
G36*
X155041027Y-93507381D02*
G01*
X155074079Y-93513956D01*
X155097325Y-93521006D01*
X155128458Y-93533902D01*
X155149890Y-93545359D01*
X155177898Y-93564074D01*
X155196685Y-93579492D01*
X155220502Y-93603308D01*
X155235925Y-93622100D01*
X155254638Y-93650106D01*
X155266098Y-93671546D01*
X155278990Y-93702671D01*
X155286045Y-93725927D01*
X155289370Y-93742642D01*
X155291365Y-93752671D01*
X155292617Y-93758961D01*
X155295000Y-93783156D01*
X155295000Y-93816839D01*
X155292616Y-93841035D01*
X155286043Y-93874073D01*
X155278988Y-93897329D01*
X155266098Y-93928449D01*
X155254639Y-93949888D01*
X155235920Y-93977903D01*
X155220499Y-93996693D01*
X155196693Y-94020499D01*
X155177903Y-94035920D01*
X155149885Y-94054641D01*
X155128446Y-94066100D01*
X155097328Y-94078989D01*
X155074071Y-94086045D01*
X155057340Y-94089373D01*
X155041031Y-94092617D01*
X155016841Y-94095000D01*
X154983159Y-94095000D01*
X154958970Y-94092617D01*
X154925924Y-94086044D01*
X154902667Y-94078988D01*
X154871547Y-94066098D01*
X154850107Y-94054638D01*
X154822099Y-94035923D01*
X154803312Y-94020505D01*
X154779495Y-93996689D01*
X154764074Y-93977899D01*
X154745357Y-93949888D01*
X154733901Y-93928455D01*
X154730780Y-93920921D01*
X154721007Y-93897326D01*
X154713954Y-93874073D01*
X154707381Y-93841031D01*
X154705000Y-93816844D01*
X154705000Y-93783153D01*
X154707382Y-93758964D01*
X154708634Y-93752671D01*
X154713956Y-93725914D01*
X154721006Y-93702674D01*
X154733902Y-93671539D01*
X154745351Y-93650119D01*
X154764079Y-93622090D01*
X154779488Y-93603316D01*
X154803314Y-93579489D01*
X154822098Y-93564074D01*
X154850111Y-93545356D01*
X154871545Y-93533900D01*
X154902668Y-93521008D01*
X154925918Y-93513955D01*
X154958970Y-93507381D01*
X154983154Y-93505000D01*
X155016842Y-93505000D01*
X155041027Y-93507381D01*
G37*
%TD.AperFunction*%
%TA.AperFunction,Conductor*%
G36*
X147341027Y-92907381D02*
G01*
X147374079Y-92913956D01*
X147397325Y-92921006D01*
X147428458Y-92933902D01*
X147449890Y-92945359D01*
X147477898Y-92964074D01*
X147496685Y-92979492D01*
X147520502Y-93003308D01*
X147535925Y-93022100D01*
X147554638Y-93050106D01*
X147566098Y-93071546D01*
X147578990Y-93102671D01*
X147586045Y-93125926D01*
X147586045Y-93125927D01*
X147592617Y-93158961D01*
X147595000Y-93183156D01*
X147595000Y-93216839D01*
X147592617Y-93241034D01*
X147586044Y-93274074D01*
X147578988Y-93297331D01*
X147566099Y-93328448D01*
X147554640Y-93349887D01*
X147535921Y-93377902D01*
X147520502Y-93396689D01*
X147520500Y-93396692D01*
X147496693Y-93420499D01*
X147477903Y-93435920D01*
X147449885Y-93454641D01*
X147428446Y-93466100D01*
X147397328Y-93478989D01*
X147374071Y-93486045D01*
X147357340Y-93489373D01*
X147341031Y-93492617D01*
X147316841Y-93495000D01*
X147283159Y-93495000D01*
X147258970Y-93492617D01*
X147225924Y-93486044D01*
X147202667Y-93478988D01*
X147171547Y-93466098D01*
X147150107Y-93454638D01*
X147122099Y-93435923D01*
X147103312Y-93420505D01*
X147079495Y-93396689D01*
X147064074Y-93377899D01*
X147045358Y-93349890D01*
X147033901Y-93328455D01*
X147027771Y-93313657D01*
X147021007Y-93297326D01*
X147013954Y-93274075D01*
X147007381Y-93241031D01*
X147005000Y-93216844D01*
X147005000Y-93183153D01*
X147007382Y-93158964D01*
X147007383Y-93158961D01*
X147013956Y-93125914D01*
X147021006Y-93102674D01*
X147033902Y-93071539D01*
X147045351Y-93050119D01*
X147064079Y-93022090D01*
X147079488Y-93003316D01*
X147103314Y-92979489D01*
X147122098Y-92964074D01*
X147150111Y-92945356D01*
X147171545Y-92933900D01*
X147202668Y-92921008D01*
X147225918Y-92913955D01*
X147258970Y-92907381D01*
X147283154Y-92905000D01*
X147316842Y-92905000D01*
X147341027Y-92907381D01*
G37*
%TD.AperFunction*%
%TA.AperFunction,Conductor*%
G36*
X156641027Y-91907381D02*
G01*
X156674079Y-91913956D01*
X156697325Y-91921006D01*
X156728458Y-91933902D01*
X156749890Y-91945359D01*
X156777898Y-91964074D01*
X156796685Y-91979492D01*
X156820499Y-92003305D01*
X156835921Y-92022096D01*
X156839797Y-92027896D01*
X156854641Y-92050112D01*
X156866100Y-92071552D01*
X156878990Y-92102673D01*
X156886044Y-92125927D01*
X156892616Y-92158960D01*
X156895000Y-92183156D01*
X156895000Y-92216839D01*
X156892616Y-92241035D01*
X156886043Y-92274073D01*
X156878988Y-92297329D01*
X156866098Y-92328449D01*
X156854639Y-92349888D01*
X156835920Y-92377903D01*
X156820499Y-92396693D01*
X156796693Y-92420499D01*
X156777903Y-92435920D01*
X156749885Y-92454641D01*
X156728446Y-92466100D01*
X156697328Y-92478989D01*
X156674071Y-92486045D01*
X156657340Y-92489373D01*
X156641031Y-92492617D01*
X156616841Y-92495000D01*
X156583159Y-92495000D01*
X156558970Y-92492617D01*
X156525924Y-92486044D01*
X156502667Y-92478988D01*
X156471547Y-92466098D01*
X156450107Y-92454638D01*
X156422099Y-92435923D01*
X156403312Y-92420505D01*
X156379495Y-92396689D01*
X156364074Y-92377899D01*
X156345357Y-92349888D01*
X156333901Y-92328455D01*
X156330780Y-92320921D01*
X156321007Y-92297326D01*
X156313954Y-92274073D01*
X156307381Y-92241031D01*
X156305000Y-92216844D01*
X156305000Y-92183153D01*
X156307382Y-92158964D01*
X156307383Y-92158960D01*
X156313956Y-92125914D01*
X156321007Y-92102673D01*
X156333902Y-92071539D01*
X156345351Y-92050119D01*
X156364079Y-92022090D01*
X156379488Y-92003316D01*
X156403314Y-91979489D01*
X156422098Y-91964074D01*
X156450111Y-91945356D01*
X156471545Y-91933900D01*
X156502668Y-91921008D01*
X156525918Y-91913955D01*
X156558970Y-91907381D01*
X156583154Y-91905000D01*
X156616842Y-91905000D01*
X156641027Y-91907381D01*
G37*
%TD.AperFunction*%
%TA.AperFunction,Conductor*%
G36*
X164241027Y-91557381D02*
G01*
X164274079Y-91563956D01*
X164297325Y-91571006D01*
X164328458Y-91583902D01*
X164349890Y-91595359D01*
X164377898Y-91614074D01*
X164396685Y-91629492D01*
X164420502Y-91653308D01*
X164435925Y-91672100D01*
X164454638Y-91700106D01*
X164466098Y-91721546D01*
X164478990Y-91752671D01*
X164486045Y-91775926D01*
X164486045Y-91775927D01*
X164492617Y-91808961D01*
X164495000Y-91833156D01*
X164495000Y-91866839D01*
X164492616Y-91891035D01*
X164486043Y-91924073D01*
X164478988Y-91947329D01*
X164466098Y-91978449D01*
X164454639Y-91999888D01*
X164435920Y-92027903D01*
X164420502Y-92046689D01*
X164420499Y-92046693D01*
X164396693Y-92070499D01*
X164377903Y-92085920D01*
X164349885Y-92104641D01*
X164328446Y-92116100D01*
X164297328Y-92128989D01*
X164274071Y-92136045D01*
X164257340Y-92139373D01*
X164241031Y-92142617D01*
X164216841Y-92145000D01*
X164183159Y-92145000D01*
X164158970Y-92142617D01*
X164125924Y-92136044D01*
X164102667Y-92128988D01*
X164071547Y-92116098D01*
X164050107Y-92104638D01*
X164022099Y-92085923D01*
X164003312Y-92070505D01*
X163979495Y-92046689D01*
X163964074Y-92027899D01*
X163945357Y-91999888D01*
X163933901Y-91978455D01*
X163927943Y-91964072D01*
X163921007Y-91947326D01*
X163913954Y-91924073D01*
X163907381Y-91891031D01*
X163905000Y-91866844D01*
X163905000Y-91833153D01*
X163907382Y-91808964D01*
X163907383Y-91808961D01*
X163913956Y-91775914D01*
X163921006Y-91752674D01*
X163933902Y-91721539D01*
X163945351Y-91700119D01*
X163964079Y-91672090D01*
X163979488Y-91653316D01*
X164003314Y-91629489D01*
X164022098Y-91614074D01*
X164050111Y-91595356D01*
X164071545Y-91583900D01*
X164102668Y-91571008D01*
X164125918Y-91563955D01*
X164158970Y-91557381D01*
X164183154Y-91555000D01*
X164216842Y-91555000D01*
X164241027Y-91557381D01*
G37*
%TD.AperFunction*%
%TA.AperFunction,Conductor*%
G36*
X152827933Y-89714463D02*
G01*
X152856406Y-89749474D01*
X152869370Y-89773216D01*
X152869371Y-89773217D01*
X152869374Y-89773222D01*
X152955598Y-89888403D01*
X152970502Y-89903307D01*
X152985922Y-89922096D01*
X153004640Y-89950110D01*
X153016098Y-89971548D01*
X153028989Y-90002670D01*
X153036045Y-90025927D01*
X153042617Y-90058961D01*
X153045000Y-90083156D01*
X153045000Y-90116839D01*
X153042616Y-90141035D01*
X153036043Y-90174073D01*
X153028988Y-90197329D01*
X153016098Y-90228449D01*
X153004639Y-90249888D01*
X152985920Y-90277903D01*
X152970499Y-90296693D01*
X152946693Y-90320499D01*
X152927903Y-90335920D01*
X152899885Y-90354641D01*
X152878446Y-90366100D01*
X152847328Y-90378989D01*
X152824071Y-90386045D01*
X152807340Y-90389373D01*
X152791031Y-90392617D01*
X152766841Y-90395000D01*
X152733159Y-90395000D01*
X152708970Y-90392617D01*
X152675924Y-90386044D01*
X152652667Y-90378988D01*
X152621547Y-90366098D01*
X152600107Y-90354638D01*
X152572099Y-90335923D01*
X152553312Y-90320505D01*
X152529495Y-90296689D01*
X152514074Y-90277899D01*
X152495357Y-90249888D01*
X152483901Y-90228455D01*
X152480780Y-90220921D01*
X152471007Y-90197326D01*
X152463954Y-90174073D01*
X152457381Y-90141031D01*
X152455000Y-90116844D01*
X152455000Y-90083153D01*
X152457382Y-90058964D01*
X152457383Y-90058961D01*
X152463956Y-90025914D01*
X152471005Y-90002676D01*
X152483902Y-89971539D01*
X152495356Y-89950113D01*
X152514075Y-89922098D01*
X152529502Y-89903302D01*
X152532629Y-89900176D01*
X152546698Y-89885530D01*
X152553453Y-89878209D01*
X152566921Y-89863011D01*
X152642664Y-89742796D01*
X152695053Y-89696573D01*
X152764119Y-89686010D01*
X152827933Y-89714463D01*
G37*
%TD.AperFunction*%
%TD*%
%TA.AperFunction,Conductor*%
%TO.N,/3V3*%
G36*
X153189399Y-106557889D02*
G01*
X153070350Y-108972873D01*
X153061231Y-108999079D01*
X153055333Y-109026194D01*
X153048724Y-109035022D01*
X153047388Y-109038862D01*
X153034182Y-109054448D01*
X152925452Y-109163180D01*
X152864129Y-109196666D01*
X152837770Y-109199500D01*
X145679500Y-109199500D01*
X145612461Y-109179815D01*
X145566706Y-109127011D01*
X145555500Y-109075500D01*
X145555500Y-107474781D01*
X145555500Y-107474777D01*
X145543609Y-107365779D01*
X145532079Y-107313564D01*
X145532076Y-107313554D01*
X145496969Y-107209701D01*
X145418427Y-107089150D01*
X145418424Y-107089147D01*
X145372350Y-107036642D01*
X145372348Y-107036640D01*
X145372341Y-107036632D01*
X145362722Y-107028402D01*
X145263025Y-106943097D01*
X145263024Y-106943096D01*
X145131783Y-106884145D01*
X145131778Y-106884143D01*
X145131777Y-106884143D01*
X145064618Y-106864877D01*
X145064613Y-106864875D01*
X145064610Y-106864875D01*
X144998522Y-106855794D01*
X144934786Y-106827166D01*
X144896646Y-106768624D01*
X144891411Y-106731591D01*
X144900000Y-105950000D01*
X144887192Y-105271153D01*
X145949500Y-105271153D01*
X145949500Y-105428846D01*
X145980261Y-105583489D01*
X145980264Y-105583501D01*
X146040602Y-105729172D01*
X146040609Y-105729185D01*
X146128210Y-105860288D01*
X146128213Y-105860292D01*
X146239707Y-105971786D01*
X146239711Y-105971789D01*
X146370814Y-106059390D01*
X146370827Y-106059397D01*
X146470060Y-106100500D01*
X146516503Y-106119737D01*
X146671153Y-106150499D01*
X146671156Y-106150500D01*
X146671158Y-106150500D01*
X146828844Y-106150500D01*
X146828845Y-106150499D01*
X146983497Y-106119737D01*
X147129179Y-106059394D01*
X147260289Y-105971789D01*
X147371789Y-105860289D01*
X147459394Y-105729179D01*
X147519737Y-105583497D01*
X147550500Y-105428842D01*
X147550500Y-105271158D01*
X147550500Y-105271155D01*
X147544155Y-105239258D01*
X147544155Y-105239257D01*
X147540554Y-105221153D01*
X147999500Y-105221153D01*
X147999500Y-105378846D01*
X148030261Y-105533489D01*
X148030264Y-105533501D01*
X148090602Y-105679172D01*
X148090609Y-105679185D01*
X148178210Y-105810288D01*
X148178213Y-105810292D01*
X148289707Y-105921786D01*
X148289711Y-105921789D01*
X148420814Y-106009390D01*
X148420827Y-106009397D01*
X148566498Y-106069735D01*
X148566503Y-106069737D01*
X148721153Y-106100499D01*
X148721156Y-106100500D01*
X148721158Y-106100500D01*
X148878844Y-106100500D01*
X148878845Y-106100499D01*
X149033497Y-106069737D01*
X149179179Y-106009394D01*
X149310289Y-105921789D01*
X149421789Y-105810289D01*
X149509394Y-105679179D01*
X149569737Y-105533497D01*
X149600500Y-105378842D01*
X149600500Y-105221158D01*
X149600500Y-105221155D01*
X149600499Y-105221153D01*
X149579684Y-105116510D01*
X149569737Y-105066503D01*
X149530102Y-104970814D01*
X149509397Y-104920827D01*
X149509390Y-104920814D01*
X149484763Y-104883957D01*
X149442798Y-104821153D01*
X149849500Y-104821153D01*
X149849500Y-104978846D01*
X149880261Y-105133489D01*
X149880264Y-105133501D01*
X149940602Y-105279172D01*
X149940609Y-105279185D01*
X150028210Y-105410288D01*
X150028213Y-105410292D01*
X150139707Y-105521786D01*
X150139711Y-105521789D01*
X150270814Y-105609390D01*
X150270827Y-105609397D01*
X150416498Y-105669735D01*
X150416503Y-105669737D01*
X150571153Y-105700499D01*
X150571156Y-105700500D01*
X150571158Y-105700500D01*
X150728844Y-105700500D01*
X150728845Y-105700499D01*
X150883497Y-105669737D01*
X151029179Y-105609394D01*
X151160289Y-105521789D01*
X151271789Y-105410289D01*
X151359394Y-105279179D01*
X151362719Y-105271153D01*
X151419735Y-105133501D01*
X151419737Y-105133497D01*
X151450500Y-104978842D01*
X151450500Y-104821158D01*
X151450500Y-104821155D01*
X151450499Y-104821153D01*
X151432012Y-104728213D01*
X151419737Y-104666503D01*
X151419735Y-104666498D01*
X151359397Y-104520827D01*
X151359390Y-104520814D01*
X151271789Y-104389711D01*
X151271786Y-104389707D01*
X151160292Y-104278213D01*
X151160288Y-104278210D01*
X151029185Y-104190609D01*
X151029172Y-104190602D01*
X150883501Y-104130264D01*
X150883489Y-104130261D01*
X150728845Y-104099500D01*
X150728842Y-104099500D01*
X150571158Y-104099500D01*
X150571155Y-104099500D01*
X150416510Y-104130261D01*
X150416498Y-104130264D01*
X150270827Y-104190602D01*
X150270814Y-104190609D01*
X150139711Y-104278210D01*
X150139707Y-104278213D01*
X150028213Y-104389707D01*
X150028210Y-104389711D01*
X149940609Y-104520814D01*
X149940602Y-104520827D01*
X149880264Y-104666498D01*
X149880261Y-104666510D01*
X149849500Y-104821153D01*
X149442798Y-104821153D01*
X149421789Y-104789711D01*
X149421786Y-104789707D01*
X149310292Y-104678213D01*
X149310288Y-104678210D01*
X149179185Y-104590609D01*
X149179172Y-104590602D01*
X149033501Y-104530264D01*
X149033489Y-104530261D01*
X148878845Y-104499500D01*
X148878842Y-104499500D01*
X148721158Y-104499500D01*
X148721155Y-104499500D01*
X148566510Y-104530261D01*
X148566498Y-104530264D01*
X148420827Y-104590602D01*
X148420814Y-104590609D01*
X148289711Y-104678210D01*
X148289707Y-104678213D01*
X148178213Y-104789707D01*
X148178210Y-104789711D01*
X148090609Y-104920814D01*
X148090602Y-104920827D01*
X148030264Y-105066498D01*
X148030261Y-105066510D01*
X147999500Y-105221153D01*
X147540554Y-105221153D01*
X147523117Y-105133497D01*
X147519737Y-105116503D01*
X147519735Y-105116498D01*
X147459397Y-104970827D01*
X147459390Y-104970814D01*
X147371789Y-104839711D01*
X147371786Y-104839707D01*
X147260292Y-104728213D01*
X147260288Y-104728210D01*
X147129185Y-104640609D01*
X147129172Y-104640602D01*
X146983501Y-104580264D01*
X146983489Y-104580261D01*
X146828845Y-104549500D01*
X146828842Y-104549500D01*
X146671158Y-104549500D01*
X146671155Y-104549500D01*
X146516510Y-104580261D01*
X146516498Y-104580264D01*
X146370827Y-104640602D01*
X146370814Y-104640609D01*
X146239711Y-104728210D01*
X146239707Y-104728213D01*
X146128213Y-104839707D01*
X146128210Y-104839711D01*
X146040609Y-104970814D01*
X146040602Y-104970827D01*
X145980264Y-105116498D01*
X145980261Y-105116510D01*
X145949500Y-105271153D01*
X144887192Y-105271153D01*
X144850000Y-103300000D01*
X153350000Y-103300000D01*
X153189399Y-106557889D01*
G37*
%TD.AperFunction*%
%TD*%
%TA.AperFunction,Conductor*%
%TO.N,/5V*%
G36*
X144992386Y-107370045D02*
G01*
X145038470Y-107422562D01*
X145050000Y-107474777D01*
X145050000Y-110176818D01*
X145030315Y-110243857D01*
X144977511Y-110289612D01*
X144926821Y-110300815D01*
X141566207Y-110323070D01*
X141499039Y-110303830D01*
X141496499Y-110302178D01*
X141479183Y-110290609D01*
X141479179Y-110290606D01*
X141479175Y-110290604D01*
X141479171Y-110290602D01*
X141333501Y-110230264D01*
X141333489Y-110230261D01*
X141178845Y-110199500D01*
X141178842Y-110199500D01*
X141021158Y-110199500D01*
X141021155Y-110199500D01*
X140866510Y-110230261D01*
X140866498Y-110230264D01*
X140720828Y-110290602D01*
X140720819Y-110290607D01*
X140694184Y-110308404D01*
X140627506Y-110329280D01*
X140626116Y-110329297D01*
X139189760Y-110338808D01*
X139122592Y-110319568D01*
X139120048Y-110317913D01*
X139079185Y-110290609D01*
X139079172Y-110290602D01*
X138933501Y-110230264D01*
X138933489Y-110230261D01*
X138778845Y-110199500D01*
X138778842Y-110199500D01*
X138621158Y-110199500D01*
X138621155Y-110199500D01*
X138466510Y-110230261D01*
X138466498Y-110230264D01*
X138320828Y-110290602D01*
X138320817Y-110290608D01*
X138270160Y-110324456D01*
X138203482Y-110345333D01*
X138202091Y-110345350D01*
X137500000Y-110349999D01*
X137455624Y-111281898D01*
X137432773Y-111347925D01*
X137377852Y-111391117D01*
X137331764Y-111400000D01*
X132477397Y-111400000D01*
X132410358Y-111380315D01*
X132364603Y-111327511D01*
X132353442Y-111272650D01*
X132378504Y-110345350D01*
X132396739Y-109670649D01*
X132418228Y-109604167D01*
X132472249Y-109559855D01*
X132520694Y-109550000D01*
X137050000Y-109550000D01*
X137050000Y-107523227D01*
X137069685Y-107456188D01*
X137122489Y-107410433D01*
X137173221Y-107399229D01*
X144925227Y-107350779D01*
X144992386Y-107370045D01*
G37*
%TD.AperFunction*%
%TD*%
%TA.AperFunction,Conductor*%
%TO.N,/3V3*%
G36*
X165793579Y-89227814D02*
G01*
X165823128Y-89256580D01*
X165824347Y-89255581D01*
X165828213Y-89260292D01*
X165939707Y-89371786D01*
X165939711Y-89371789D01*
X166070814Y-89459390D01*
X166070827Y-89459397D01*
X166216498Y-89519735D01*
X166216503Y-89519737D01*
X166350923Y-89546475D01*
X166371153Y-89550499D01*
X166371156Y-89550500D01*
X166371158Y-89550500D01*
X166528842Y-89550500D01*
X166549076Y-89546475D01*
X166618665Y-89552701D01*
X166673844Y-89595563D01*
X166697090Y-89661452D01*
X166697266Y-89668815D01*
X166681770Y-92326223D01*
X166661695Y-92393147D01*
X166608625Y-92438593D01*
X166557772Y-92449500D01*
X166521155Y-92449500D01*
X166366510Y-92480261D01*
X166366498Y-92480264D01*
X166220827Y-92540602D01*
X166220814Y-92540609D01*
X166089711Y-92628210D01*
X166089707Y-92628213D01*
X165978213Y-92739707D01*
X165978210Y-92739711D01*
X165890609Y-92870814D01*
X165890602Y-92870827D01*
X165830264Y-93016498D01*
X165830261Y-93016510D01*
X165799500Y-93171153D01*
X165799500Y-93328846D01*
X165830261Y-93483489D01*
X165830264Y-93483501D01*
X165890602Y-93629172D01*
X165890609Y-93629185D01*
X165978210Y-93760288D01*
X165978213Y-93760292D01*
X166089707Y-93871786D01*
X166089711Y-93871789D01*
X166220814Y-93959390D01*
X166220827Y-93959397D01*
X166320060Y-94000500D01*
X166366503Y-94019737D01*
X166513713Y-94049019D01*
X166521153Y-94050499D01*
X166521156Y-94050500D01*
X166546992Y-94050500D01*
X166614031Y-94070185D01*
X166659786Y-94122989D01*
X166670989Y-94175222D01*
X166666930Y-94871448D01*
X166600707Y-106228619D01*
X166580632Y-106295543D01*
X166527562Y-106340989D01*
X166478631Y-106351881D01*
X158826422Y-106470504D01*
X158759085Y-106451861D01*
X158712518Y-106399773D01*
X158700500Y-106346519D01*
X158700500Y-101721153D01*
X161099500Y-101721153D01*
X161099500Y-101878846D01*
X161130261Y-102033489D01*
X161130264Y-102033501D01*
X161190602Y-102179172D01*
X161190609Y-102179185D01*
X161278210Y-102310288D01*
X161278213Y-102310292D01*
X161389707Y-102421786D01*
X161389711Y-102421789D01*
X161520814Y-102509390D01*
X161520827Y-102509397D01*
X161666498Y-102569735D01*
X161666503Y-102569737D01*
X161821153Y-102600499D01*
X161821156Y-102600500D01*
X161821158Y-102600500D01*
X161978844Y-102600500D01*
X161978845Y-102600499D01*
X162133497Y-102569737D01*
X162279179Y-102509394D01*
X162410289Y-102421789D01*
X162521789Y-102310289D01*
X162609394Y-102179179D01*
X162669737Y-102033497D01*
X162700500Y-101878842D01*
X162700500Y-101721158D01*
X162700500Y-101721155D01*
X162700499Y-101721153D01*
X162698159Y-101709390D01*
X162669737Y-101566503D01*
X162660524Y-101544260D01*
X162609397Y-101420827D01*
X162609390Y-101420814D01*
X162521789Y-101289711D01*
X162521786Y-101289707D01*
X162410292Y-101178213D01*
X162410288Y-101178210D01*
X162279185Y-101090609D01*
X162279172Y-101090602D01*
X162133501Y-101030264D01*
X162133489Y-101030261D01*
X161978845Y-100999500D01*
X161978842Y-100999500D01*
X161821158Y-100999500D01*
X161821155Y-100999500D01*
X161666510Y-101030261D01*
X161666498Y-101030264D01*
X161520827Y-101090602D01*
X161520814Y-101090609D01*
X161389711Y-101178210D01*
X161389707Y-101178213D01*
X161278213Y-101289707D01*
X161278210Y-101289711D01*
X161190609Y-101420814D01*
X161190602Y-101420827D01*
X161130264Y-101566498D01*
X161130261Y-101566510D01*
X161099500Y-101721153D01*
X158700500Y-101721153D01*
X158700500Y-100831941D01*
X158720185Y-100764902D01*
X158772989Y-100719147D01*
X158842147Y-100709203D01*
X158905703Y-100738228D01*
X158912181Y-100744260D01*
X158939707Y-100771786D01*
X158939711Y-100771789D01*
X159070814Y-100859390D01*
X159070827Y-100859397D01*
X159207795Y-100916130D01*
X159216503Y-100919737D01*
X159371153Y-100950499D01*
X159371156Y-100950500D01*
X159371158Y-100950500D01*
X159528844Y-100950500D01*
X159528845Y-100950499D01*
X159683497Y-100919737D01*
X159829179Y-100859394D01*
X159960289Y-100771789D01*
X160071789Y-100660289D01*
X160159394Y-100529179D01*
X160219737Y-100383497D01*
X160250500Y-100228842D01*
X160250500Y-100071158D01*
X160250500Y-100071155D01*
X160250499Y-100071153D01*
X160230326Y-99969737D01*
X160219737Y-99916503D01*
X160199500Y-99867646D01*
X160159397Y-99770827D01*
X160159390Y-99770814D01*
X160071789Y-99639711D01*
X160071786Y-99639707D01*
X159960292Y-99528213D01*
X159960288Y-99528210D01*
X159829185Y-99440609D01*
X159829172Y-99440602D01*
X159683501Y-99380264D01*
X159683489Y-99380261D01*
X159528845Y-99349500D01*
X159528842Y-99349500D01*
X159371158Y-99349500D01*
X159371155Y-99349500D01*
X159216510Y-99380261D01*
X159216498Y-99380264D01*
X159070827Y-99440602D01*
X159070814Y-99440609D01*
X158939711Y-99528210D01*
X158939707Y-99528213D01*
X158912181Y-99555740D01*
X158892744Y-99566352D01*
X158876011Y-99580853D01*
X158862679Y-99582769D01*
X158850858Y-99589225D01*
X158828771Y-99587645D01*
X158806853Y-99590797D01*
X158794601Y-99585201D01*
X158781166Y-99584241D01*
X158763439Y-99570970D01*
X158743297Y-99561772D01*
X158736014Y-99550440D01*
X158725233Y-99542369D01*
X158717495Y-99521623D01*
X158705523Y-99502994D01*
X158702371Y-99481075D01*
X158700816Y-99476905D01*
X158700500Y-99468059D01*
X158700500Y-99279765D01*
X158720185Y-99212726D01*
X158721398Y-99210874D01*
X158781347Y-99121155D01*
X158809394Y-99079179D01*
X158869737Y-98933497D01*
X158900500Y-98778842D01*
X158900500Y-98621158D01*
X158900500Y-98621155D01*
X158900499Y-98621153D01*
X158874531Y-98490606D01*
X158869737Y-98466503D01*
X158869735Y-98466498D01*
X158809397Y-98320827D01*
X158809390Y-98320814D01*
X158721789Y-98189711D01*
X158721786Y-98189707D01*
X158610292Y-98078213D01*
X158610288Y-98078210D01*
X158479185Y-97990609D01*
X158473809Y-97987736D01*
X158474426Y-97986581D01*
X158425273Y-97946960D01*
X158403217Y-97880663D01*
X158420506Y-97812966D01*
X158455720Y-97775822D01*
X158455581Y-97775653D01*
X158456933Y-97774542D01*
X158458257Y-97773146D01*
X158460289Y-97771789D01*
X158571789Y-97660289D01*
X158659394Y-97529179D01*
X158659395Y-97529176D01*
X158659397Y-97529173D01*
X158662719Y-97521153D01*
X162649500Y-97521153D01*
X162649500Y-97678846D01*
X162680261Y-97833489D01*
X162680264Y-97833501D01*
X162740602Y-97979172D01*
X162740609Y-97979185D01*
X162828210Y-98110288D01*
X162828213Y-98110292D01*
X162939707Y-98221786D01*
X162939711Y-98221789D01*
X163070814Y-98309390D01*
X163070827Y-98309397D01*
X163169669Y-98350338D01*
X163216503Y-98369737D01*
X163366131Y-98399500D01*
X163371153Y-98400499D01*
X163371156Y-98400500D01*
X163371158Y-98400500D01*
X163528844Y-98400500D01*
X163528845Y-98400499D01*
X163683497Y-98369737D01*
X163801599Y-98320818D01*
X163829172Y-98309397D01*
X163829172Y-98309396D01*
X163829179Y-98309394D01*
X163960289Y-98221789D01*
X164071789Y-98110289D01*
X164159394Y-97979179D01*
X164219737Y-97833497D01*
X164250500Y-97678842D01*
X164250500Y-97521158D01*
X164250500Y-97521155D01*
X164250499Y-97521153D01*
X164232280Y-97429561D01*
X164219737Y-97366503D01*
X164219735Y-97366498D01*
X164159397Y-97220827D01*
X164159393Y-97220820D01*
X164158670Y-97219738D01*
X164138800Y-97190000D01*
X164117923Y-97123324D01*
X164136407Y-97055944D01*
X164188386Y-97009253D01*
X164257356Y-96998077D01*
X164266084Y-96999490D01*
X164271158Y-97000500D01*
X164271160Y-97000500D01*
X164428844Y-97000500D01*
X164428845Y-97000499D01*
X164583497Y-96969737D01*
X164729179Y-96909394D01*
X164860289Y-96821789D01*
X164971789Y-96710289D01*
X165059394Y-96579179D01*
X165119737Y-96433497D01*
X165150500Y-96278842D01*
X165150500Y-96121158D01*
X165150500Y-96121155D01*
X165150499Y-96121153D01*
X165140486Y-96070814D01*
X165119737Y-95966503D01*
X165119735Y-95966498D01*
X165059397Y-95820827D01*
X165059390Y-95820814D01*
X164971789Y-95689711D01*
X164971786Y-95689707D01*
X164860292Y-95578213D01*
X164860288Y-95578210D01*
X164729185Y-95490609D01*
X164729172Y-95490602D01*
X164583501Y-95430264D01*
X164583489Y-95430261D01*
X164428845Y-95399500D01*
X164428842Y-95399500D01*
X164271158Y-95399500D01*
X164271155Y-95399500D01*
X164116510Y-95430261D01*
X164116498Y-95430264D01*
X163970827Y-95490602D01*
X163970814Y-95490609D01*
X163839711Y-95578210D01*
X163839707Y-95578213D01*
X163728213Y-95689707D01*
X163728210Y-95689711D01*
X163640609Y-95820814D01*
X163640602Y-95820827D01*
X163580264Y-95966498D01*
X163580261Y-95966510D01*
X163549500Y-96121153D01*
X163549500Y-96278846D01*
X163580261Y-96433489D01*
X163580264Y-96433501D01*
X163640602Y-96579172D01*
X163640609Y-96579185D01*
X163661198Y-96609998D01*
X163682076Y-96676676D01*
X163663592Y-96744056D01*
X163611613Y-96790746D01*
X163542643Y-96801922D01*
X163533909Y-96800507D01*
X163528846Y-96799500D01*
X163528842Y-96799500D01*
X163371158Y-96799500D01*
X163371155Y-96799500D01*
X163216510Y-96830261D01*
X163216498Y-96830264D01*
X163070827Y-96890602D01*
X163070814Y-96890609D01*
X162939711Y-96978210D01*
X162939707Y-96978213D01*
X162828213Y-97089707D01*
X162828210Y-97089711D01*
X162740609Y-97220814D01*
X162740602Y-97220827D01*
X162680264Y-97366498D01*
X162680261Y-97366510D01*
X162649500Y-97521153D01*
X158662719Y-97521153D01*
X158684895Y-97467614D01*
X158684895Y-97467613D01*
X158719737Y-97383497D01*
X158750500Y-97228842D01*
X158750500Y-97074424D01*
X158770185Y-97007385D01*
X158822989Y-96961630D01*
X158892147Y-96951686D01*
X158921952Y-96959863D01*
X159020060Y-97000500D01*
X159066503Y-97019737D01*
X159221153Y-97050499D01*
X159221156Y-97050500D01*
X159221158Y-97050500D01*
X159378844Y-97050500D01*
X159378845Y-97050499D01*
X159533497Y-97019737D01*
X159679179Y-96959394D01*
X159810289Y-96871789D01*
X159921789Y-96760289D01*
X160009394Y-96629179D01*
X160012854Y-96620827D01*
X160030102Y-96579185D01*
X160069737Y-96483497D01*
X160100500Y-96328842D01*
X160100500Y-96171158D01*
X160100500Y-96171155D01*
X160100499Y-96171153D01*
X160090035Y-96118548D01*
X160069737Y-96016503D01*
X160069735Y-96016498D01*
X160009397Y-95870827D01*
X160009390Y-95870814D01*
X159921789Y-95739711D01*
X159921786Y-95739707D01*
X159810292Y-95628213D01*
X159810288Y-95628210D01*
X159679185Y-95540609D01*
X159679172Y-95540602D01*
X159533501Y-95480264D01*
X159533489Y-95480261D01*
X159378845Y-95449500D01*
X159378842Y-95449500D01*
X159221158Y-95449500D01*
X159221155Y-95449500D01*
X159066510Y-95480261D01*
X159066498Y-95480264D01*
X158920827Y-95540602D01*
X158920814Y-95540609D01*
X158789711Y-95628210D01*
X158789707Y-95628213D01*
X158678213Y-95739707D01*
X158678210Y-95739711D01*
X158590609Y-95870814D01*
X158590602Y-95870827D01*
X158530264Y-96016498D01*
X158530261Y-96016510D01*
X158499500Y-96171153D01*
X158499500Y-96325575D01*
X158479815Y-96392614D01*
X158427011Y-96438369D01*
X158357853Y-96448313D01*
X158328048Y-96440137D01*
X158280314Y-96420365D01*
X158183497Y-96380263D01*
X158183492Y-96380262D01*
X158183489Y-96380261D01*
X158028845Y-96349500D01*
X158028842Y-96349500D01*
X157871158Y-96349500D01*
X157871155Y-96349500D01*
X157716510Y-96380261D01*
X157716498Y-96380264D01*
X157570827Y-96440602D01*
X157570814Y-96440609D01*
X157439711Y-96528210D01*
X157439707Y-96528213D01*
X157328213Y-96639707D01*
X157328210Y-96639711D01*
X157240609Y-96770814D01*
X157240602Y-96770827D01*
X157180264Y-96916498D01*
X157180261Y-96916510D01*
X157149500Y-97071153D01*
X157149500Y-97228846D01*
X157180261Y-97383489D01*
X157180264Y-97383501D01*
X157240602Y-97529172D01*
X157240609Y-97529185D01*
X157328210Y-97660288D01*
X157328213Y-97660292D01*
X157439707Y-97771786D01*
X157439711Y-97771789D01*
X157570814Y-97859390D01*
X157576191Y-97862264D01*
X157575572Y-97863421D01*
X157624719Y-97903029D01*
X157646781Y-97969324D01*
X157629499Y-98037023D01*
X157594281Y-98074179D01*
X157594419Y-98074347D01*
X157593085Y-98075441D01*
X157591757Y-98076843D01*
X157589713Y-98078208D01*
X157589707Y-98078213D01*
X157478213Y-98189707D01*
X157478207Y-98189715D01*
X157390607Y-98320818D01*
X157390604Y-98320823D01*
X157378378Y-98350338D01*
X157366923Y-98371769D01*
X157327843Y-98430260D01*
X157327841Y-98430263D01*
X157284914Y-98494507D01*
X157228343Y-98631082D01*
X157228340Y-98631092D01*
X157199500Y-98776079D01*
X157199500Y-100368059D01*
X157179815Y-100435098D01*
X157127011Y-100480853D01*
X157057853Y-100490797D01*
X156994297Y-100461772D01*
X156987819Y-100455740D01*
X156910292Y-100378213D01*
X156910288Y-100378210D01*
X156779185Y-100290609D01*
X156779172Y-100290602D01*
X156633501Y-100230264D01*
X156633489Y-100230261D01*
X156478845Y-100199500D01*
X156478842Y-100199500D01*
X156321158Y-100199500D01*
X156321155Y-100199500D01*
X156166510Y-100230261D01*
X156166498Y-100230264D01*
X156020827Y-100290602D01*
X156020814Y-100290609D01*
X155889711Y-100378210D01*
X155889707Y-100378213D01*
X155778213Y-100489707D01*
X155778210Y-100489711D01*
X155690609Y-100620814D01*
X155690602Y-100620827D01*
X155630264Y-100766498D01*
X155630261Y-100766510D01*
X155599500Y-100921153D01*
X155599500Y-101078846D01*
X155630261Y-101233489D01*
X155630264Y-101233501D01*
X155690602Y-101379172D01*
X155690609Y-101379185D01*
X155778210Y-101510288D01*
X155778213Y-101510292D01*
X155889707Y-101621786D01*
X155889711Y-101621789D01*
X156020814Y-101709390D01*
X156020827Y-101709397D01*
X156166498Y-101769735D01*
X156166503Y-101769737D01*
X156321153Y-101800499D01*
X156321156Y-101800500D01*
X156321158Y-101800500D01*
X156478844Y-101800500D01*
X156478845Y-101800499D01*
X156633497Y-101769737D01*
X156779179Y-101709394D01*
X156910289Y-101621789D01*
X156910292Y-101621786D01*
X156987819Y-101544260D01*
X157049142Y-101510775D01*
X157118834Y-101515759D01*
X157174767Y-101557631D01*
X157199184Y-101623095D01*
X157199500Y-101631941D01*
X157199500Y-106373632D01*
X157179815Y-106440671D01*
X157127011Y-106486426D01*
X157077422Y-106497617D01*
X153189399Y-106557889D01*
X153350000Y-103300000D01*
X144850000Y-103300000D01*
X144900000Y-105950000D01*
X144891906Y-106686516D01*
X144891905Y-106686517D01*
X144377018Y-106694498D01*
X144309681Y-106675855D01*
X144263114Y-106623766D01*
X144251101Y-106569440D01*
X144299346Y-101006317D01*
X144308779Y-100959951D01*
X144319737Y-100933497D01*
X144350500Y-100778842D01*
X144350500Y-100621158D01*
X144350500Y-100621155D01*
X144350499Y-100621153D01*
X144319739Y-100466511D01*
X144319737Y-100466505D01*
X144319737Y-100466503D01*
X144314002Y-100452657D01*
X144304568Y-100404136D01*
X144315694Y-99121153D01*
X148999500Y-99121153D01*
X148999500Y-99278846D01*
X149030261Y-99433489D01*
X149030264Y-99433501D01*
X149090602Y-99579172D01*
X149090609Y-99579185D01*
X149178210Y-99710288D01*
X149178213Y-99710292D01*
X149289707Y-99821786D01*
X149289711Y-99821789D01*
X149420814Y-99909390D01*
X149420827Y-99909397D01*
X149566498Y-99969735D01*
X149566503Y-99969737D01*
X149671418Y-99990606D01*
X149721153Y-100000499D01*
X149721156Y-100000500D01*
X149721158Y-100000500D01*
X149878844Y-100000500D01*
X149878845Y-100000499D01*
X150033497Y-99969737D01*
X150179179Y-99909394D01*
X150310289Y-99821789D01*
X150421789Y-99710289D01*
X150509394Y-99579179D01*
X150569737Y-99433497D01*
X150600500Y-99278842D01*
X150600500Y-99121158D01*
X150600500Y-99121155D01*
X150600499Y-99121153D01*
X150999500Y-99121153D01*
X150999500Y-99278846D01*
X151030261Y-99433489D01*
X151030264Y-99433501D01*
X151090602Y-99579172D01*
X151090609Y-99579185D01*
X151178210Y-99710288D01*
X151178213Y-99710292D01*
X151289707Y-99821786D01*
X151289711Y-99821789D01*
X151420814Y-99909390D01*
X151420827Y-99909397D01*
X151566498Y-99969735D01*
X151566503Y-99969737D01*
X151671418Y-99990606D01*
X151721153Y-100000499D01*
X151721156Y-100000500D01*
X151721158Y-100000500D01*
X151878844Y-100000500D01*
X151878845Y-100000499D01*
X152033497Y-99969737D01*
X152179179Y-99909394D01*
X152310289Y-99821789D01*
X152421789Y-99710289D01*
X152509394Y-99579179D01*
X152569737Y-99433497D01*
X152600500Y-99278842D01*
X152600500Y-99121158D01*
X152600500Y-99121155D01*
X152600499Y-99121153D01*
X152569738Y-98966510D01*
X152569737Y-98966503D01*
X152556062Y-98933489D01*
X152509397Y-98820827D01*
X152509390Y-98820814D01*
X152421789Y-98689711D01*
X152421786Y-98689707D01*
X152310292Y-98578213D01*
X152310288Y-98578210D01*
X152179185Y-98490609D01*
X152179172Y-98490602D01*
X152033501Y-98430264D01*
X152033489Y-98430261D01*
X151878845Y-98399500D01*
X151878842Y-98399500D01*
X151721158Y-98399500D01*
X151721155Y-98399500D01*
X151566510Y-98430261D01*
X151566498Y-98430264D01*
X151420827Y-98490602D01*
X151420814Y-98490609D01*
X151289711Y-98578210D01*
X151289707Y-98578213D01*
X151178213Y-98689707D01*
X151178210Y-98689711D01*
X151090609Y-98820814D01*
X151090602Y-98820827D01*
X151030264Y-98966498D01*
X151030261Y-98966510D01*
X150999500Y-99121153D01*
X150600499Y-99121153D01*
X150569738Y-98966510D01*
X150569737Y-98966503D01*
X150556062Y-98933489D01*
X150509397Y-98820827D01*
X150509390Y-98820814D01*
X150421789Y-98689711D01*
X150421786Y-98689707D01*
X150310292Y-98578213D01*
X150310288Y-98578210D01*
X150179185Y-98490609D01*
X150179172Y-98490602D01*
X150033501Y-98430264D01*
X150033489Y-98430261D01*
X149878845Y-98399500D01*
X149878842Y-98399500D01*
X149721158Y-98399500D01*
X149721155Y-98399500D01*
X149566510Y-98430261D01*
X149566498Y-98430264D01*
X149420827Y-98490602D01*
X149420814Y-98490609D01*
X149289711Y-98578210D01*
X149289707Y-98578213D01*
X149178213Y-98689707D01*
X149178210Y-98689711D01*
X149090609Y-98820814D01*
X149090602Y-98820827D01*
X149030264Y-98966498D01*
X149030261Y-98966510D01*
X148999500Y-99121153D01*
X144315694Y-99121153D01*
X144350383Y-95121153D01*
X146549500Y-95121153D01*
X146549500Y-95278846D01*
X146580261Y-95433489D01*
X146580264Y-95433501D01*
X146640602Y-95579172D01*
X146640609Y-95579185D01*
X146728210Y-95710288D01*
X146728213Y-95710292D01*
X146839707Y-95821786D01*
X146839711Y-95821789D01*
X146970814Y-95909390D01*
X146970827Y-95909397D01*
X147044013Y-95939711D01*
X147116503Y-95969737D01*
X147210085Y-95988351D01*
X147271994Y-96020735D01*
X147306568Y-96081451D01*
X147302829Y-96151220D01*
X147261963Y-96207892D01*
X147221900Y-96228625D01*
X147216502Y-96230262D01*
X147070827Y-96290602D01*
X147070814Y-96290609D01*
X146939711Y-96378210D01*
X146939707Y-96378213D01*
X146828213Y-96489707D01*
X146828210Y-96489711D01*
X146740609Y-96620814D01*
X146740602Y-96620827D01*
X146680264Y-96766498D01*
X146680261Y-96766510D01*
X146649500Y-96921153D01*
X146649500Y-97078846D01*
X146680261Y-97233489D01*
X146680264Y-97233501D01*
X146740602Y-97379172D01*
X146740609Y-97379185D01*
X146828210Y-97510288D01*
X146828213Y-97510292D01*
X146939707Y-97621786D01*
X146939711Y-97621789D01*
X147070814Y-97709390D01*
X147070827Y-97709397D01*
X147216498Y-97769735D01*
X147216503Y-97769737D01*
X147371153Y-97800499D01*
X147371156Y-97800500D01*
X147371158Y-97800500D01*
X147528844Y-97800500D01*
X147528845Y-97800499D01*
X147683497Y-97769737D01*
X147829179Y-97709394D01*
X147960289Y-97621789D01*
X148071789Y-97510289D01*
X148159394Y-97379179D01*
X148219737Y-97233497D01*
X148250500Y-97078842D01*
X148250500Y-96921158D01*
X148250500Y-96921155D01*
X148250499Y-96921153D01*
X148244422Y-96890602D01*
X148219737Y-96766503D01*
X148204172Y-96728925D01*
X154233956Y-96728925D01*
X154233956Y-96886618D01*
X154264717Y-97041261D01*
X154264720Y-97041273D01*
X154325058Y-97186944D01*
X154325065Y-97186957D01*
X154412666Y-97318060D01*
X154412669Y-97318064D01*
X154524163Y-97429558D01*
X154524167Y-97429561D01*
X154655270Y-97517162D01*
X154655283Y-97517169D01*
X154800954Y-97577507D01*
X154800959Y-97577509D01*
X154955609Y-97608271D01*
X154955612Y-97608272D01*
X154955614Y-97608272D01*
X155113300Y-97608272D01*
X155113301Y-97608271D01*
X155267953Y-97577509D01*
X155384650Y-97529172D01*
X155413628Y-97517169D01*
X155413628Y-97517168D01*
X155413635Y-97517166D01*
X155544745Y-97429561D01*
X155656245Y-97318061D01*
X155664564Y-97305609D01*
X155718175Y-97260805D01*
X155767667Y-97250500D01*
X155828844Y-97250500D01*
X155828845Y-97250499D01*
X155983497Y-97219737D01*
X156129179Y-97159394D01*
X156260289Y-97071789D01*
X156371789Y-96960289D01*
X156459394Y-96829179D01*
X156519737Y-96683497D01*
X156550500Y-96528842D01*
X156550500Y-96371158D01*
X156550500Y-96371155D01*
X156550499Y-96371153D01*
X156546192Y-96349500D01*
X156519737Y-96216503D01*
X156500955Y-96171158D01*
X156459397Y-96070827D01*
X156459390Y-96070814D01*
X156371789Y-95939711D01*
X156371786Y-95939707D01*
X156260292Y-95828213D01*
X156260288Y-95828210D01*
X156129185Y-95740609D01*
X156129172Y-95740602D01*
X155983501Y-95680264D01*
X155983489Y-95680261D01*
X155828845Y-95649500D01*
X155828842Y-95649500D01*
X155671158Y-95649500D01*
X155671155Y-95649500D01*
X155516510Y-95680261D01*
X155516498Y-95680264D01*
X155370827Y-95740602D01*
X155370814Y-95740609D01*
X155239711Y-95828210D01*
X155239707Y-95828213D01*
X155128214Y-95939706D01*
X155128211Y-95939711D01*
X155119891Y-95952162D01*
X155066281Y-95996967D01*
X155016789Y-96007272D01*
X154955611Y-96007272D01*
X154800966Y-96038033D01*
X154800954Y-96038036D01*
X154655283Y-96098374D01*
X154655270Y-96098381D01*
X154524167Y-96185982D01*
X154524163Y-96185985D01*
X154412669Y-96297479D01*
X154412666Y-96297483D01*
X154325065Y-96428586D01*
X154325058Y-96428599D01*
X154264720Y-96574270D01*
X154264717Y-96574282D01*
X154233956Y-96728925D01*
X148204172Y-96728925D01*
X148182530Y-96676676D01*
X148159397Y-96620827D01*
X148159390Y-96620814D01*
X148071789Y-96489711D01*
X148071786Y-96489707D01*
X147960292Y-96378213D01*
X147960288Y-96378210D01*
X147829185Y-96290609D01*
X147829172Y-96290602D01*
X147683501Y-96230264D01*
X147683489Y-96230261D01*
X147589916Y-96211648D01*
X147528005Y-96179263D01*
X147493431Y-96118548D01*
X147497170Y-96048778D01*
X147538037Y-95992106D01*
X147578112Y-95971370D01*
X147583485Y-95969739D01*
X147583497Y-95969737D01*
X147729179Y-95909394D01*
X147860289Y-95821789D01*
X147971789Y-95710289D01*
X148059394Y-95579179D01*
X148119737Y-95433497D01*
X148150500Y-95278842D01*
X148150500Y-95121158D01*
X148150500Y-95121155D01*
X148150499Y-95121153D01*
X148119738Y-94966510D01*
X148119737Y-94966503D01*
X148119735Y-94966498D01*
X148059397Y-94820827D01*
X148059390Y-94820814D01*
X147971789Y-94689711D01*
X147971786Y-94689707D01*
X147860292Y-94578213D01*
X147860288Y-94578210D01*
X147729185Y-94490609D01*
X147729172Y-94490602D01*
X147583501Y-94430264D01*
X147583489Y-94430261D01*
X147428845Y-94399500D01*
X147428842Y-94399500D01*
X147271158Y-94399500D01*
X147271155Y-94399500D01*
X147116510Y-94430261D01*
X147116498Y-94430264D01*
X146970827Y-94490602D01*
X146970814Y-94490609D01*
X146839711Y-94578210D01*
X146839707Y-94578213D01*
X146728213Y-94689707D01*
X146728210Y-94689711D01*
X146640609Y-94820814D01*
X146640602Y-94820827D01*
X146580264Y-94966498D01*
X146580261Y-94966510D01*
X146549500Y-95121153D01*
X144350383Y-95121153D01*
X144367728Y-93121153D01*
X146499500Y-93121153D01*
X146499500Y-93278846D01*
X146530261Y-93433489D01*
X146530264Y-93433501D01*
X146590602Y-93579172D01*
X146590609Y-93579185D01*
X146678210Y-93710288D01*
X146678213Y-93710292D01*
X146789707Y-93821786D01*
X146789711Y-93821789D01*
X146920814Y-93909390D01*
X146920827Y-93909397D01*
X147066498Y-93969735D01*
X147066503Y-93969737D01*
X147221153Y-94000499D01*
X147221156Y-94000500D01*
X147221158Y-94000500D01*
X147378844Y-94000500D01*
X147378845Y-94000499D01*
X147533497Y-93969737D01*
X147679179Y-93909394D01*
X147810289Y-93821789D01*
X147921789Y-93710289D01*
X147948101Y-93670911D01*
X149974803Y-93670911D01*
X149974803Y-93828604D01*
X150005564Y-93983247D01*
X150005567Y-93983259D01*
X150065905Y-94128930D01*
X150065912Y-94128943D01*
X150153513Y-94260046D01*
X150153516Y-94260050D01*
X150265010Y-94371544D01*
X150265014Y-94371547D01*
X150396117Y-94459148D01*
X150396130Y-94459155D01*
X150517427Y-94509397D01*
X150541806Y-94519495D01*
X150696456Y-94550257D01*
X150696459Y-94550258D01*
X150696461Y-94550258D01*
X150854147Y-94550258D01*
X150854148Y-94550257D01*
X151008800Y-94519495D01*
X151154482Y-94459152D01*
X151285592Y-94371547D01*
X151397092Y-94260047D01*
X151484697Y-94128937D01*
X151495265Y-94103422D01*
X151539104Y-94049019D01*
X151585632Y-94029257D01*
X151633497Y-94019737D01*
X151779179Y-93959394D01*
X151910289Y-93871789D01*
X152021789Y-93760289D01*
X152047939Y-93721153D01*
X154199500Y-93721153D01*
X154199500Y-93878846D01*
X154230261Y-94033489D01*
X154230264Y-94033501D01*
X154290602Y-94179172D01*
X154290609Y-94179185D01*
X154378210Y-94310288D01*
X154378213Y-94310292D01*
X154489707Y-94421786D01*
X154489711Y-94421789D01*
X154620814Y-94509390D01*
X154620827Y-94509397D01*
X154766498Y-94569735D01*
X154766503Y-94569737D01*
X154921153Y-94600499D01*
X154921156Y-94600500D01*
X154921158Y-94600500D01*
X155078844Y-94600500D01*
X155078845Y-94600499D01*
X155233497Y-94569737D01*
X155379179Y-94509394D01*
X155510289Y-94421789D01*
X155621789Y-94310289D01*
X155709394Y-94179179D01*
X155769737Y-94033497D01*
X155800500Y-93878842D01*
X155800500Y-93771153D01*
X163399500Y-93771153D01*
X163399500Y-93928846D01*
X163430261Y-94083489D01*
X163430264Y-94083501D01*
X163490602Y-94229172D01*
X163490609Y-94229185D01*
X163578210Y-94360288D01*
X163578213Y-94360292D01*
X163689707Y-94471786D01*
X163689711Y-94471789D01*
X163820814Y-94559390D01*
X163820827Y-94559397D01*
X163920060Y-94600500D01*
X163966503Y-94619737D01*
X164121153Y-94650499D01*
X164121156Y-94650500D01*
X164121158Y-94650500D01*
X164278844Y-94650500D01*
X164278845Y-94650499D01*
X164433497Y-94619737D01*
X164579179Y-94559394D01*
X164710289Y-94471789D01*
X164821789Y-94360289D01*
X164909394Y-94229179D01*
X164969737Y-94083497D01*
X165000500Y-93928842D01*
X165000500Y-93771158D01*
X165000500Y-93771155D01*
X165000499Y-93771153D01*
X164975639Y-93646174D01*
X164969737Y-93616503D01*
X164961217Y-93595933D01*
X164909397Y-93470827D01*
X164909390Y-93470814D01*
X164821789Y-93339711D01*
X164821786Y-93339707D01*
X164710292Y-93228213D01*
X164710288Y-93228210D01*
X164579185Y-93140609D01*
X164579172Y-93140602D01*
X164433501Y-93080264D01*
X164433489Y-93080261D01*
X164278845Y-93049500D01*
X164278842Y-93049500D01*
X164121158Y-93049500D01*
X164121155Y-93049500D01*
X163966510Y-93080261D01*
X163966498Y-93080264D01*
X163820827Y-93140602D01*
X163820814Y-93140609D01*
X163689711Y-93228210D01*
X163689707Y-93228213D01*
X163578213Y-93339707D01*
X163578210Y-93339711D01*
X163490609Y-93470814D01*
X163490602Y-93470827D01*
X163430264Y-93616498D01*
X163430261Y-93616510D01*
X163399500Y-93771153D01*
X155800500Y-93771153D01*
X155800500Y-93721158D01*
X155800500Y-93721155D01*
X155800499Y-93721153D01*
X155785585Y-93646175D01*
X155769737Y-93566503D01*
X155730102Y-93470814D01*
X155709397Y-93420827D01*
X155709390Y-93420814D01*
X155621789Y-93289711D01*
X155621786Y-93289707D01*
X155510292Y-93178213D01*
X155510288Y-93178210D01*
X155379185Y-93090609D01*
X155379172Y-93090602D01*
X155233501Y-93030264D01*
X155233489Y-93030261D01*
X155078845Y-92999500D01*
X155078842Y-92999500D01*
X154921158Y-92999500D01*
X154921155Y-92999500D01*
X154766510Y-93030261D01*
X154766498Y-93030264D01*
X154620827Y-93090602D01*
X154620814Y-93090609D01*
X154489711Y-93178210D01*
X154489707Y-93178213D01*
X154378213Y-93289707D01*
X154378210Y-93289711D01*
X154290609Y-93420814D01*
X154290602Y-93420827D01*
X154230264Y-93566498D01*
X154230261Y-93566510D01*
X154199500Y-93721153D01*
X152047939Y-93721153D01*
X152109394Y-93629179D01*
X152169737Y-93483497D01*
X152200500Y-93328842D01*
X152200500Y-93171158D01*
X152200500Y-93171155D01*
X152200499Y-93171153D01*
X152194422Y-93140602D01*
X152169737Y-93016503D01*
X152169735Y-93016498D01*
X152109397Y-92870827D01*
X152109390Y-92870814D01*
X152021789Y-92739711D01*
X152021786Y-92739707D01*
X151910292Y-92628213D01*
X151910288Y-92628210D01*
X151779185Y-92540609D01*
X151779172Y-92540602D01*
X151633501Y-92480264D01*
X151633489Y-92480261D01*
X151478845Y-92449500D01*
X151478842Y-92449500D01*
X151321158Y-92449500D01*
X151321155Y-92449500D01*
X151166510Y-92480261D01*
X151166498Y-92480264D01*
X151020827Y-92540602D01*
X151020814Y-92540609D01*
X150889711Y-92628210D01*
X150889707Y-92628213D01*
X150778213Y-92739707D01*
X150778210Y-92739711D01*
X150690609Y-92870814D01*
X150690604Y-92870823D01*
X150680035Y-92896339D01*
X150636192Y-92950741D01*
X150589667Y-92970500D01*
X150541811Y-92980019D01*
X150541801Y-92980022D01*
X150396130Y-93040360D01*
X150396117Y-93040367D01*
X150265014Y-93127968D01*
X150265010Y-93127971D01*
X150153516Y-93239465D01*
X150153513Y-93239469D01*
X150065912Y-93370572D01*
X150065905Y-93370585D01*
X150005567Y-93516256D01*
X150005564Y-93516268D01*
X149974803Y-93670911D01*
X147948101Y-93670911D01*
X147975990Y-93629172D01*
X147998200Y-93595933D01*
X148009390Y-93579185D01*
X148009390Y-93579184D01*
X148009394Y-93579179D01*
X148069737Y-93433497D01*
X148100500Y-93278842D01*
X148100500Y-93121158D01*
X148100500Y-93121155D01*
X148100499Y-93121153D01*
X148086246Y-93049500D01*
X148069737Y-92966503D01*
X148046080Y-92909390D01*
X148009397Y-92820827D01*
X148009390Y-92820814D01*
X147921789Y-92689711D01*
X147921786Y-92689707D01*
X147810292Y-92578213D01*
X147810288Y-92578210D01*
X147679185Y-92490609D01*
X147679172Y-92490602D01*
X147533501Y-92430264D01*
X147533489Y-92430261D01*
X147378845Y-92399500D01*
X147378842Y-92399500D01*
X147221158Y-92399500D01*
X147221155Y-92399500D01*
X147066510Y-92430261D01*
X147066498Y-92430264D01*
X146920827Y-92490602D01*
X146920814Y-92490609D01*
X146789711Y-92578210D01*
X146789707Y-92578213D01*
X146678213Y-92689707D01*
X146678210Y-92689711D01*
X146590609Y-92820814D01*
X146590602Y-92820827D01*
X146530264Y-92966498D01*
X146530261Y-92966510D01*
X146499500Y-93121153D01*
X144367728Y-93121153D01*
X144376401Y-92121153D01*
X155799500Y-92121153D01*
X155799500Y-92278846D01*
X155830261Y-92433489D01*
X155830264Y-92433501D01*
X155890602Y-92579172D01*
X155890609Y-92579185D01*
X155978210Y-92710288D01*
X155978213Y-92710292D01*
X156089707Y-92821786D01*
X156089711Y-92821789D01*
X156220814Y-92909390D01*
X156220827Y-92909397D01*
X156320642Y-92950741D01*
X156366503Y-92969737D01*
X156516131Y-92999500D01*
X156521153Y-93000499D01*
X156521156Y-93000500D01*
X156521158Y-93000500D01*
X156678844Y-93000500D01*
X156678845Y-93000499D01*
X156833497Y-92969737D01*
X156979179Y-92909394D01*
X157110289Y-92821789D01*
X157221789Y-92710289D01*
X157309394Y-92579179D01*
X157369737Y-92433497D01*
X157400500Y-92278842D01*
X157400500Y-92121158D01*
X157400500Y-92121155D01*
X157400499Y-92121153D01*
X157369737Y-91966503D01*
X157354138Y-91928844D01*
X157309394Y-91820820D01*
X157276207Y-91771153D01*
X163399500Y-91771153D01*
X163399500Y-91928846D01*
X163430261Y-92083489D01*
X163430264Y-92083501D01*
X163490602Y-92229172D01*
X163490609Y-92229185D01*
X163578210Y-92360288D01*
X163578213Y-92360292D01*
X163689707Y-92471786D01*
X163689711Y-92471789D01*
X163820814Y-92559390D01*
X163820827Y-92559397D01*
X163966498Y-92619735D01*
X163966503Y-92619737D01*
X164121153Y-92650499D01*
X164121156Y-92650500D01*
X164121158Y-92650500D01*
X164278844Y-92650500D01*
X164278845Y-92650499D01*
X164433497Y-92619737D01*
X164579179Y-92559394D01*
X164710289Y-92471789D01*
X164821789Y-92360289D01*
X164909394Y-92229179D01*
X164969737Y-92083497D01*
X165000500Y-91928842D01*
X165000500Y-91771158D01*
X165000500Y-91771155D01*
X165000499Y-91771153D01*
X164969738Y-91616510D01*
X164969737Y-91616503D01*
X164942398Y-91550500D01*
X164909397Y-91470827D01*
X164909390Y-91470814D01*
X164821789Y-91339711D01*
X164821786Y-91339707D01*
X164710292Y-91228213D01*
X164710288Y-91228210D01*
X164579185Y-91140609D01*
X164579172Y-91140602D01*
X164433501Y-91080264D01*
X164433489Y-91080261D01*
X164278845Y-91049500D01*
X164278842Y-91049500D01*
X164121158Y-91049500D01*
X164121155Y-91049500D01*
X163966510Y-91080261D01*
X163966498Y-91080264D01*
X163820827Y-91140602D01*
X163820814Y-91140609D01*
X163689711Y-91228210D01*
X163689707Y-91228213D01*
X163578213Y-91339707D01*
X163578210Y-91339711D01*
X163490609Y-91470814D01*
X163490602Y-91470827D01*
X163430264Y-91616498D01*
X163430261Y-91616510D01*
X163399500Y-91771153D01*
X157276207Y-91771153D01*
X157221789Y-91689711D01*
X157221786Y-91689707D01*
X157110292Y-91578213D01*
X157110288Y-91578210D01*
X156979185Y-91490609D01*
X156979172Y-91490602D01*
X156833501Y-91430264D01*
X156833489Y-91430261D01*
X156678845Y-91399500D01*
X156678842Y-91399500D01*
X156521158Y-91399500D01*
X156521155Y-91399500D01*
X156366510Y-91430261D01*
X156366498Y-91430264D01*
X156220827Y-91490602D01*
X156220814Y-91490609D01*
X156089711Y-91578210D01*
X156089707Y-91578213D01*
X155978213Y-91689707D01*
X155978210Y-91689711D01*
X155890609Y-91820814D01*
X155890602Y-91820827D01*
X155830264Y-91966498D01*
X155830261Y-91966510D01*
X155799500Y-92121153D01*
X144376401Y-92121153D01*
X144388976Y-90671153D01*
X149499500Y-90671153D01*
X149499500Y-90828846D01*
X149530261Y-90983489D01*
X149530264Y-90983501D01*
X149590602Y-91129172D01*
X149590609Y-91129185D01*
X149678210Y-91260288D01*
X149678213Y-91260292D01*
X149789707Y-91371786D01*
X149789711Y-91371789D01*
X149920814Y-91459390D01*
X149920827Y-91459397D01*
X149996181Y-91490609D01*
X150066503Y-91519737D01*
X150221153Y-91550499D01*
X150221156Y-91550500D01*
X150221158Y-91550500D01*
X150378844Y-91550500D01*
X150378845Y-91550499D01*
X150533497Y-91519737D01*
X150651592Y-91470821D01*
X150679172Y-91459397D01*
X150679172Y-91459396D01*
X150679179Y-91459394D01*
X150810289Y-91371789D01*
X150921789Y-91260289D01*
X151009394Y-91129179D01*
X151069737Y-90983497D01*
X151100500Y-90828842D01*
X151100500Y-90671158D01*
X151100500Y-90671155D01*
X151100499Y-90671153D01*
X151069738Y-90516510D01*
X151069737Y-90516503D01*
X151069735Y-90516498D01*
X151009397Y-90370827D01*
X151009390Y-90370814D01*
X150921789Y-90239711D01*
X150921786Y-90239707D01*
X150810292Y-90128213D01*
X150810288Y-90128210D01*
X150679185Y-90040609D01*
X150679172Y-90040602D01*
X150533501Y-89980264D01*
X150533489Y-89980261D01*
X150378845Y-89949500D01*
X150378842Y-89949500D01*
X150221158Y-89949500D01*
X150221155Y-89949500D01*
X150066510Y-89980261D01*
X150066498Y-89980264D01*
X149920827Y-90040602D01*
X149920814Y-90040609D01*
X149789711Y-90128210D01*
X149789707Y-90128213D01*
X149678213Y-90239707D01*
X149678210Y-90239711D01*
X149590609Y-90370814D01*
X149590602Y-90370827D01*
X149530264Y-90516498D01*
X149530261Y-90516510D01*
X149499500Y-90671153D01*
X144388976Y-90671153D01*
X144398943Y-89521825D01*
X144419208Y-89454960D01*
X144472407Y-89409665D01*
X144521824Y-89398907D01*
X152086395Y-89331063D01*
X152153602Y-89350145D01*
X152199829Y-89402536D01*
X152210392Y-89471603D01*
X152181938Y-89535416D01*
X152175183Y-89542737D01*
X152128214Y-89589706D01*
X152128210Y-89589711D01*
X152040609Y-89720814D01*
X152040602Y-89720827D01*
X151980264Y-89866498D01*
X151980261Y-89866510D01*
X151949500Y-90021153D01*
X151949500Y-90178846D01*
X151980261Y-90333489D01*
X151980264Y-90333501D01*
X152040602Y-90479172D01*
X152040609Y-90479185D01*
X152128210Y-90610288D01*
X152128213Y-90610292D01*
X152239707Y-90721786D01*
X152239711Y-90721789D01*
X152370814Y-90809390D01*
X152370827Y-90809397D01*
X152516498Y-90869735D01*
X152516503Y-90869737D01*
X152671153Y-90900499D01*
X152671156Y-90900500D01*
X152671158Y-90900500D01*
X152828844Y-90900500D01*
X152828845Y-90900499D01*
X152983497Y-90869737D01*
X153129179Y-90809394D01*
X153260289Y-90721789D01*
X153371789Y-90610289D01*
X153459394Y-90479179D01*
X153519737Y-90333497D01*
X153550500Y-90178842D01*
X153550500Y-90021158D01*
X153550500Y-90021155D01*
X153550499Y-90021153D01*
X153519738Y-89866510D01*
X153519737Y-89866503D01*
X153492398Y-89800500D01*
X153459397Y-89720827D01*
X153459390Y-89720814D01*
X153371789Y-89589711D01*
X153371786Y-89589707D01*
X153313040Y-89530961D01*
X153279555Y-89469638D01*
X153284539Y-89399946D01*
X153326411Y-89344013D01*
X153391875Y-89319596D01*
X153399576Y-89319286D01*
X156705086Y-89289640D01*
X156772294Y-89308722D01*
X156793874Y-89325953D01*
X156889707Y-89421786D01*
X156889711Y-89421789D01*
X157020814Y-89509390D01*
X157020827Y-89509397D01*
X157120060Y-89550500D01*
X157166503Y-89569737D01*
X157321153Y-89600499D01*
X157321156Y-89600500D01*
X157321158Y-89600500D01*
X157478844Y-89600500D01*
X157478845Y-89600499D01*
X157633497Y-89569737D01*
X157779179Y-89509394D01*
X157910289Y-89421789D01*
X158018682Y-89313395D01*
X158045141Y-89298947D01*
X158070361Y-89282418D01*
X158077377Y-89281344D01*
X158080003Y-89279911D01*
X158105239Y-89277083D01*
X158207530Y-89276165D01*
X158274738Y-89295246D01*
X158277466Y-89297016D01*
X158370821Y-89359394D01*
X158370824Y-89359395D01*
X158370825Y-89359396D01*
X158492187Y-89409665D01*
X158516503Y-89419737D01*
X158671153Y-89450499D01*
X158671156Y-89450500D01*
X158671158Y-89450500D01*
X158828844Y-89450500D01*
X158828845Y-89450499D01*
X158983497Y-89419737D01*
X159129179Y-89359394D01*
X159237202Y-89287214D01*
X159303877Y-89266338D01*
X159304966Y-89266323D01*
X161103211Y-89250195D01*
X161170423Y-89269278D01*
X161216650Y-89321669D01*
X161218883Y-89326736D01*
X161240606Y-89379178D01*
X161240609Y-89379185D01*
X161328210Y-89510288D01*
X161328213Y-89510292D01*
X161439707Y-89621786D01*
X161439711Y-89621789D01*
X161570814Y-89709390D01*
X161570827Y-89709397D01*
X161716498Y-89769735D01*
X161716503Y-89769737D01*
X161871153Y-89800499D01*
X161871156Y-89800500D01*
X161871158Y-89800500D01*
X162028844Y-89800500D01*
X162028845Y-89800499D01*
X162183497Y-89769737D01*
X162301592Y-89720821D01*
X162329172Y-89709397D01*
X162329172Y-89709396D01*
X162329179Y-89709394D01*
X162460289Y-89621789D01*
X162571789Y-89510289D01*
X162659394Y-89379179D01*
X162687422Y-89311511D01*
X162731262Y-89257108D01*
X162797556Y-89235043D01*
X162800813Y-89234970D01*
X165079822Y-89214530D01*
X165110453Y-89218935D01*
X165110530Y-89218549D01*
X165271155Y-89250500D01*
X165271158Y-89250500D01*
X165428844Y-89250500D01*
X165428845Y-89250499D01*
X165480393Y-89240245D01*
X165583489Y-89219739D01*
X165583490Y-89219738D01*
X165583497Y-89219737D01*
X165585224Y-89219021D01*
X165587143Y-89218630D01*
X165589328Y-89217968D01*
X165589390Y-89218173D01*
X165592773Y-89217484D01*
X165596690Y-89214917D01*
X165631569Y-89209582D01*
X165726369Y-89208732D01*
X165793579Y-89227814D01*
G37*
%TD.AperFunction*%
%TD*%
M02*
