%TF.GenerationSoftware,KiCad,Pcbnew,9.0.6-9.0.6~ubuntu24.04.1*%
%TF.CreationDate,2025-12-01T15:53:04+03:00*%
%TF.ProjectId,canfilter_g4,63616e66-696c-4746-9572-5f67342e6b69,rev?*%
%TF.SameCoordinates,Original*%
%TF.FileFunction,Plated,1,4,PTH,Mixed*%
%TF.FilePolarity,Positive*%
%FSLAX46Y46*%
G04 Gerber Fmt 4.6, Leading zero omitted, Abs format (unit mm)*
G04 Created by KiCad (PCBNEW 9.0.6-9.0.6~ubuntu24.04.1) date 2025-12-01 15:53:04*
%MOMM*%
%LPD*%
G01*
G04 APERTURE LIST*
%TA.AperFunction,ViaDrill*%
%ADD10C,0.300000*%
%TD*%
%TA.AperFunction,ComponentDrill*%
%ADD11C,0.500000*%
%TD*%
G04 aperture for slot hole*
%TA.AperFunction,ComponentDrill*%
%ADD12C,0.600000*%
%TD*%
%TA.AperFunction,ComponentDrill*%
%ADD13C,1.000000*%
%TD*%
%TA.AperFunction,ComponentDrill*%
%ADD14C,3.200000*%
%TD*%
G04 APERTURE END LIST*
D10*
X125600000Y-96900000D03*
X126300000Y-91900000D03*
X126750000Y-96900000D03*
X128000000Y-96950000D03*
X128250000Y-88800000D03*
X128750000Y-111250000D03*
X128800000Y-109050000D03*
X128800000Y-109700000D03*
X128800000Y-110500000D03*
X129350000Y-90300000D03*
X129550000Y-86600000D03*
X129600000Y-111750000D03*
X130400000Y-111750000D03*
X130850000Y-101350000D03*
X130925813Y-86009437D03*
X131250000Y-111750000D03*
X131500000Y-101350000D03*
X132150000Y-87000000D03*
X132150000Y-101350000D03*
X132400000Y-94500000D03*
X132400000Y-95500000D03*
X132700000Y-108600000D03*
X133050000Y-100000000D03*
X133400000Y-82700000D03*
X133450000Y-90100000D03*
X133700000Y-94450000D03*
X133700000Y-95450000D03*
X133750000Y-108600000D03*
X134600000Y-90050000D03*
X134700000Y-86050000D03*
X134800000Y-108600000D03*
X135300000Y-103750000D03*
X135450000Y-98800000D03*
X135950000Y-90000000D03*
X136000000Y-85900000D03*
X136000000Y-108550000D03*
X137250000Y-103600000D03*
X137600000Y-89150000D03*
X137600000Y-93750000D03*
X138150000Y-96050000D03*
X138349000Y-98800000D03*
X138700000Y-107850000D03*
X138700000Y-110000000D03*
X138700000Y-111000000D03*
X138750000Y-89150000D03*
X139350000Y-98450000D03*
X139650000Y-100350000D03*
X139850000Y-83750000D03*
X140150000Y-102600000D03*
X141050000Y-110000000D03*
X141100000Y-107850000D03*
X141100000Y-111000000D03*
X141350000Y-103750000D03*
X141450000Y-84975000D03*
X141550000Y-87375000D03*
X142400000Y-91400000D03*
X142500000Y-111400000D03*
X142500000Y-112200000D03*
X143000000Y-105350000D03*
X143200000Y-93450000D03*
X143200000Y-94400000D03*
X143400000Y-97000000D03*
X143550000Y-100700000D03*
X143800000Y-107800000D03*
X143900000Y-109950000D03*
X144950000Y-83800000D03*
X145050000Y-91000000D03*
X145400000Y-102400000D03*
X146550000Y-106450000D03*
X146750000Y-105350000D03*
X146950000Y-84975000D03*
X147300000Y-93200000D03*
X147350000Y-95200000D03*
X147450000Y-97000000D03*
X147650000Y-106450000D03*
X148800000Y-105300000D03*
X148800000Y-106500000D03*
X148800000Y-107400000D03*
X148800000Y-108300000D03*
X149800000Y-99200000D03*
X149925000Y-88000000D03*
X149950000Y-87150000D03*
X150300000Y-90750000D03*
X150450000Y-83800000D03*
X150650000Y-104900000D03*
X150775303Y-93749758D03*
X151400000Y-93250000D03*
X151800000Y-99200000D03*
X152750000Y-90100000D03*
X152750000Y-111650000D03*
X153650000Y-100250000D03*
X153800000Y-91250000D03*
X154050000Y-111650000D03*
X154250000Y-108900000D03*
X154800000Y-82550000D03*
X155000000Y-93800000D03*
X155034456Y-96807772D03*
X155500000Y-111650000D03*
X155550000Y-102550000D03*
X155750000Y-96450000D03*
X156400000Y-101000000D03*
X156600000Y-92200000D03*
X156900000Y-111650000D03*
X157400000Y-88800000D03*
X157950000Y-97150000D03*
X158100000Y-98700000D03*
X158150000Y-111650000D03*
X158750000Y-88650000D03*
X159300000Y-96250000D03*
X159450000Y-100150000D03*
X159550000Y-82750000D03*
X160500000Y-108750000D03*
X161250000Y-82750000D03*
X161900000Y-101800000D03*
X161950000Y-89000000D03*
X162950000Y-82750000D03*
X163450000Y-97600000D03*
X163500000Y-111850000D03*
X164200000Y-91850000D03*
X164200000Y-93850000D03*
X164350000Y-96200000D03*
X164600000Y-82750000D03*
X165350000Y-88450000D03*
X165350000Y-101750000D03*
X165900000Y-111850000D03*
X166450000Y-88750000D03*
X166600000Y-93250000D03*
X168150000Y-104300000D03*
X172900000Y-96250000D03*
X172900000Y-98300000D03*
D11*
%TO.C,H101*%
X121600000Y-85000000D03*
%TO.C,H102*%
X121600000Y-109500000D03*
%TO.C,H101*%
X122302944Y-83302944D03*
X122302944Y-86697056D03*
%TO.C,H102*%
X122302944Y-107802944D03*
X122302944Y-111197056D03*
%TO.C,H101*%
X124000000Y-82600000D03*
X124000000Y-87400000D03*
%TO.C,H102*%
X124000000Y-107100000D03*
X124000000Y-111900000D03*
%TO.C,H101*%
X125697056Y-83302944D03*
X125697056Y-86697056D03*
%TO.C,H102*%
X125697056Y-107802944D03*
X125697056Y-111197056D03*
%TO.C,H101*%
X126400000Y-85000000D03*
%TO.C,H102*%
X126400000Y-109500000D03*
%TO.C,H103*%
X168600000Y-85000000D03*
%TO.C,H104*%
X168600000Y-109500000D03*
%TO.C,H103*%
X169302944Y-83302944D03*
X169302944Y-86697056D03*
%TO.C,H104*%
X169302944Y-107802944D03*
X169302944Y-111197056D03*
%TO.C,H103*%
X171000000Y-82600000D03*
X171000000Y-87400000D03*
%TO.C,H104*%
X171000000Y-107100000D03*
X171000000Y-111900000D03*
%TO.C,H103*%
X172697056Y-83302944D03*
X172697056Y-86697056D03*
%TO.C,H104*%
X172697056Y-107802944D03*
X172697056Y-111197056D03*
%TO.C,H103*%
X173400000Y-85000000D03*
%TO.C,H104*%
X173400000Y-109500000D03*
D12*
%TO.C,J601*%
X157630000Y-82275000D02*
X157630000Y-82875000D01*
X157630000Y-86205000D02*
X157630000Y-87305000D01*
X166270000Y-82275000D02*
X166270000Y-82875000D01*
X166270000Y-86205000D02*
X166270000Y-87305000D01*
D13*
%TO.C,J101*%
X122500000Y-90400000D03*
X122500000Y-92940000D03*
%TO.C,J105*%
X122500000Y-100400000D03*
%TO.C,J104*%
X122500000Y-104000000D03*
%TO.C,J103*%
X172000000Y-90410000D03*
X172000000Y-92950000D03*
%TO.C,J102*%
X172000000Y-101560000D03*
X172000000Y-104100000D03*
D14*
%TO.C,H101*%
X124000000Y-85000000D03*
%TO.C,H102*%
X124000000Y-109500000D03*
%TO.C,H103*%
X171000000Y-85000000D03*
%TO.C,H104*%
X171000000Y-109500000D03*
M02*
