%TF.GenerationSoftware,KiCad,Pcbnew,9.0.6-9.0.6~ubuntu24.04.1*%
%TF.CreationDate,2025-12-01T15:53:01+03:00*%
%TF.ProjectId,canfilter_g4,63616e66-696c-4746-9572-5f67342e6b69,rev?*%
%TF.SameCoordinates,Original*%
%TF.FileFunction,Legend,Top*%
%TF.FilePolarity,Positive*%
%FSLAX46Y46*%
G04 Gerber Fmt 4.6, Leading zero omitted, Abs format (unit mm)*
G04 Created by KiCad (PCBNEW 9.0.6-9.0.6~ubuntu24.04.1) date 2025-12-01 15:53:01*
%MOMM*%
%LPD*%
G01*
G04 APERTURE LIST*
%ADD10C,0.100000*%
%ADD11C,0.120000*%
G04 APERTURE END LIST*
D10*
X132100000Y-89650000D02*
X134750000Y-89650000D01*
X134750000Y-90977500D01*
X132100000Y-90977500D01*
X132100000Y-89650000D01*
G36*
X132100000Y-89650000D02*
G01*
X134750000Y-89650000D01*
X134750000Y-90977500D01*
X132100000Y-90977500D01*
X132100000Y-89650000D01*
G37*
X148137217Y-87548609D02*
X148280074Y-87596228D01*
X148280074Y-87596228D02*
X148327693Y-87643847D01*
X148327693Y-87643847D02*
X148375312Y-87739085D01*
X148375312Y-87739085D02*
X148375312Y-87881942D01*
X148375312Y-87881942D02*
X148327693Y-87977180D01*
X148327693Y-87977180D02*
X148280074Y-88024800D01*
X148280074Y-88024800D02*
X148184836Y-88072419D01*
X148184836Y-88072419D02*
X147803884Y-88072419D01*
X147803884Y-88072419D02*
X147803884Y-87072419D01*
X147803884Y-87072419D02*
X148137217Y-87072419D01*
X148137217Y-87072419D02*
X148232455Y-87120038D01*
X148232455Y-87120038D02*
X148280074Y-87167657D01*
X148280074Y-87167657D02*
X148327693Y-87262895D01*
X148327693Y-87262895D02*
X148327693Y-87358133D01*
X148327693Y-87358133D02*
X148280074Y-87453371D01*
X148280074Y-87453371D02*
X148232455Y-87500990D01*
X148232455Y-87500990D02*
X148137217Y-87548609D01*
X148137217Y-87548609D02*
X147803884Y-87548609D01*
X148946741Y-88072419D02*
X148851503Y-88024800D01*
X148851503Y-88024800D02*
X148803884Y-87977180D01*
X148803884Y-87977180D02*
X148756265Y-87881942D01*
X148756265Y-87881942D02*
X148756265Y-87596228D01*
X148756265Y-87596228D02*
X148803884Y-87500990D01*
X148803884Y-87500990D02*
X148851503Y-87453371D01*
X148851503Y-87453371D02*
X148946741Y-87405752D01*
X148946741Y-87405752D02*
X149089598Y-87405752D01*
X149089598Y-87405752D02*
X149184836Y-87453371D01*
X149184836Y-87453371D02*
X149232455Y-87500990D01*
X149232455Y-87500990D02*
X149280074Y-87596228D01*
X149280074Y-87596228D02*
X149280074Y-87881942D01*
X149280074Y-87881942D02*
X149232455Y-87977180D01*
X149232455Y-87977180D02*
X149184836Y-88024800D01*
X149184836Y-88024800D02*
X149089598Y-88072419D01*
X149089598Y-88072419D02*
X148946741Y-88072419D01*
X149851503Y-88072419D02*
X149756265Y-88024800D01*
X149756265Y-88024800D02*
X149708646Y-87977180D01*
X149708646Y-87977180D02*
X149661027Y-87881942D01*
X149661027Y-87881942D02*
X149661027Y-87596228D01*
X149661027Y-87596228D02*
X149708646Y-87500990D01*
X149708646Y-87500990D02*
X149756265Y-87453371D01*
X149756265Y-87453371D02*
X149851503Y-87405752D01*
X149851503Y-87405752D02*
X149994360Y-87405752D01*
X149994360Y-87405752D02*
X150089598Y-87453371D01*
X150089598Y-87453371D02*
X150137217Y-87500990D01*
X150137217Y-87500990D02*
X150184836Y-87596228D01*
X150184836Y-87596228D02*
X150184836Y-87881942D01*
X150184836Y-87881942D02*
X150137217Y-87977180D01*
X150137217Y-87977180D02*
X150089598Y-88024800D01*
X150089598Y-88024800D02*
X149994360Y-88072419D01*
X149994360Y-88072419D02*
X149851503Y-88072419D01*
X150470551Y-87405752D02*
X150851503Y-87405752D01*
X150613408Y-87072419D02*
X150613408Y-87929561D01*
X150613408Y-87929561D02*
X150661027Y-88024800D01*
X150661027Y-88024800D02*
X150756265Y-88072419D01*
X150756265Y-88072419D02*
X150851503Y-88072419D01*
X151375313Y-87072419D02*
X151470551Y-87072419D01*
X151470551Y-87072419D02*
X151565789Y-87120038D01*
X151565789Y-87120038D02*
X151613408Y-87167657D01*
X151613408Y-87167657D02*
X151661027Y-87262895D01*
X151661027Y-87262895D02*
X151708646Y-87453371D01*
X151708646Y-87453371D02*
X151708646Y-87691466D01*
X151708646Y-87691466D02*
X151661027Y-87881942D01*
X151661027Y-87881942D02*
X151613408Y-87977180D01*
X151613408Y-87977180D02*
X151565789Y-88024800D01*
X151565789Y-88024800D02*
X151470551Y-88072419D01*
X151470551Y-88072419D02*
X151375313Y-88072419D01*
X151375313Y-88072419D02*
X151280075Y-88024800D01*
X151280075Y-88024800D02*
X151232456Y-87977180D01*
X151232456Y-87977180D02*
X151184837Y-87881942D01*
X151184837Y-87881942D02*
X151137218Y-87691466D01*
X151137218Y-87691466D02*
X151137218Y-87453371D01*
X151137218Y-87453371D02*
X151184837Y-87262895D01*
X151184837Y-87262895D02*
X151232456Y-87167657D01*
X151232456Y-87167657D02*
X151280075Y-87120038D01*
X151280075Y-87120038D02*
X151375313Y-87072419D01*
X140380074Y-103872419D02*
X139903884Y-103872419D01*
X139903884Y-103872419D02*
X139856265Y-104348609D01*
X139856265Y-104348609D02*
X139903884Y-104300990D01*
X139903884Y-104300990D02*
X139999122Y-104253371D01*
X139999122Y-104253371D02*
X140237217Y-104253371D01*
X140237217Y-104253371D02*
X140332455Y-104300990D01*
X140332455Y-104300990D02*
X140380074Y-104348609D01*
X140380074Y-104348609D02*
X140427693Y-104443847D01*
X140427693Y-104443847D02*
X140427693Y-104681942D01*
X140427693Y-104681942D02*
X140380074Y-104777180D01*
X140380074Y-104777180D02*
X140332455Y-104824800D01*
X140332455Y-104824800D02*
X140237217Y-104872419D01*
X140237217Y-104872419D02*
X139999122Y-104872419D01*
X139999122Y-104872419D02*
X139903884Y-104824800D01*
X139903884Y-104824800D02*
X139856265Y-104777180D01*
X140713408Y-103872419D02*
X141046741Y-104872419D01*
X141046741Y-104872419D02*
X141380074Y-103872419D01*
X143508646Y-105572419D02*
X144127693Y-105572419D01*
X144127693Y-105572419D02*
X143794360Y-105953371D01*
X143794360Y-105953371D02*
X143937217Y-105953371D01*
X143937217Y-105953371D02*
X144032455Y-106000990D01*
X144032455Y-106000990D02*
X144080074Y-106048609D01*
X144080074Y-106048609D02*
X144127693Y-106143847D01*
X144127693Y-106143847D02*
X144127693Y-106381942D01*
X144127693Y-106381942D02*
X144080074Y-106477180D01*
X144080074Y-106477180D02*
X144032455Y-106524800D01*
X144032455Y-106524800D02*
X143937217Y-106572419D01*
X143937217Y-106572419D02*
X143651503Y-106572419D01*
X143651503Y-106572419D02*
X143556265Y-106524800D01*
X143556265Y-106524800D02*
X143508646Y-106477180D01*
X144413408Y-105572419D02*
X144746741Y-106572419D01*
X144746741Y-106572419D02*
X145080074Y-105572419D01*
X145318170Y-105572419D02*
X145937217Y-105572419D01*
X145937217Y-105572419D02*
X145603884Y-105953371D01*
X145603884Y-105953371D02*
X145746741Y-105953371D01*
X145746741Y-105953371D02*
X145841979Y-106000990D01*
X145841979Y-106000990D02*
X145889598Y-106048609D01*
X145889598Y-106048609D02*
X145937217Y-106143847D01*
X145937217Y-106143847D02*
X145937217Y-106381942D01*
X145937217Y-106381942D02*
X145889598Y-106477180D01*
X145889598Y-106477180D02*
X145841979Y-106524800D01*
X145841979Y-106524800D02*
X145746741Y-106572419D01*
X145746741Y-106572419D02*
X145461027Y-106572419D01*
X145461027Y-106572419D02*
X145365789Y-106524800D01*
X145365789Y-106524800D02*
X145318170Y-106477180D01*
D11*
%TO.C,R105*%
X141412258Y-99627500D02*
X140937742Y-99627500D01*
X141412258Y-100672500D02*
X140937742Y-100672500D01*
%TO.C,R501*%
X168437742Y-94327500D02*
X168912258Y-94327500D01*
X168437742Y-95372500D02*
X168912258Y-95372500D01*
%TO.C,R401*%
X164827500Y-104087742D02*
X164827500Y-104562258D01*
X165872500Y-104087742D02*
X165872500Y-104562258D01*
%TO.C,JP501*%
X169150000Y-98000000D02*
X169150000Y-96600000D01*
X169850000Y-95900000D02*
X170450000Y-95900000D01*
X170450000Y-98700000D02*
X169850000Y-98700000D01*
X171150000Y-96600000D02*
X171150000Y-98000000D01*
X169150000Y-96600000D02*
G75*
G02*
X169850000Y-95900000I699999J1D01*
G01*
X169850000Y-98700000D02*
G75*
G02*
X169150000Y-98000000I0J700000D01*
G01*
X170450000Y-95900000D02*
G75*
G02*
X171150000Y-96600000I1J-699999D01*
G01*
X171150000Y-98000000D02*
G75*
G02*
X170450000Y-98700000I-700000J0D01*
G01*
%TO.C,R106*%
X130687742Y-91227500D02*
X131162258Y-91227500D01*
X130687742Y-92272500D02*
X131162258Y-92272500D01*
%TO.C,R604*%
X156837742Y-93327500D02*
X157312258Y-93327500D01*
X156837742Y-94372500D02*
X157312258Y-94372500D01*
%TO.C,L201*%
D10*
X137299201Y-111150000D02*
X132299201Y-111150000D01*
X132299201Y-106150000D01*
X137299201Y-106150000D01*
X137299201Y-111150000D01*
D11*
%TO.C,C401*%
X154710000Y-108365580D02*
X154710000Y-108084420D01*
X155730000Y-108365580D02*
X155730000Y-108084420D01*
%TO.C,C203*%
X140190000Y-109663748D02*
X140190000Y-111086252D01*
X142010000Y-109663748D02*
X142010000Y-111086252D01*
%TO.C,C602*%
X152965580Y-88340000D02*
X152684420Y-88340000D01*
X152965580Y-89360000D02*
X152684420Y-89360000D01*
%TO.C,SW101*%
X142780000Y-86030000D02*
X146920000Y-86030000D01*
X142780000Y-86330000D02*
X142780000Y-86030000D01*
X142780000Y-89170000D02*
X142780000Y-88870000D01*
X146920000Y-86030000D02*
X146920000Y-86330000D01*
X146920000Y-88870000D02*
X146920000Y-89170000D01*
X146920000Y-89170000D02*
X142780000Y-89170000D01*
%TO.C,C116*%
X150190000Y-103034420D02*
X150190000Y-103315580D01*
X151210000Y-103034420D02*
X151210000Y-103315580D01*
%TO.C,C104*%
X150813748Y-108590000D02*
X152236252Y-108590000D01*
X150813748Y-110410000D02*
X152236252Y-110410000D01*
%TO.C,C201*%
X130590000Y-102611252D02*
X130590000Y-101188748D01*
X132410000Y-102611252D02*
X132410000Y-101188748D01*
%TO.C,FB601*%
X154690000Y-89187122D02*
X154690000Y-88387878D01*
X155810000Y-89187122D02*
X155810000Y-88387878D01*
%TO.C,C115*%
X151765000Y-103138748D02*
X151765000Y-103661252D01*
X153235000Y-103138748D02*
X153235000Y-103661252D01*
%TO.C,C108*%
X154709420Y-91740000D02*
X154990580Y-91740000D01*
X154709420Y-92760000D02*
X154990580Y-92760000D01*
%TO.C,J106*%
X130145000Y-84585000D02*
X130210000Y-84585000D01*
X130145000Y-88215000D02*
X130145000Y-84585000D01*
X130145000Y-88215000D02*
X130210000Y-88215000D01*
X130210000Y-89490000D02*
X130210000Y-88215000D01*
X136650000Y-84585000D02*
X136715000Y-84585000D01*
X136650000Y-88215000D02*
X136715000Y-88215000D01*
X136715000Y-88215000D02*
X136715000Y-84585000D01*
%TO.C,D101*%
X124387500Y-104110000D02*
X124387500Y-101450000D01*
X124387500Y-104110000D02*
X126087500Y-104110000D01*
X126087500Y-104110000D02*
X126087500Y-101450000D01*
%TO.C,C301*%
X137040000Y-95059420D02*
X137040000Y-95340580D01*
X138060000Y-95059420D02*
X138060000Y-95340580D01*
%TO.C,C601*%
X154840000Y-85615580D02*
X154840000Y-85334420D01*
X155860000Y-85615580D02*
X155860000Y-85334420D01*
%TO.C,U102*%
X145940000Y-92627500D02*
X146390000Y-92627500D01*
X145940000Y-93077500D02*
X145940000Y-92627500D01*
X145940000Y-99847500D02*
X145940000Y-99397500D01*
X146390000Y-99847500D02*
X145940000Y-99847500D01*
X152710000Y-92627500D02*
X153160000Y-92627500D01*
X153160000Y-92627500D02*
X153160000Y-93077500D01*
X153160000Y-99397500D02*
X153160000Y-99847500D01*
X153160000Y-99847500D02*
X152710000Y-99847500D01*
X145300000Y-93077500D02*
X144960000Y-92607500D01*
X145640000Y-92607500D01*
X145300000Y-93077500D01*
G36*
X145300000Y-93077500D02*
G01*
X144960000Y-92607500D01*
X145640000Y-92607500D01*
X145300000Y-93077500D01*
G37*
%TO.C,U601*%
X160352500Y-90240000D02*
X160402500Y-90240000D01*
X160352500Y-92060000D02*
X160352500Y-90240000D01*
X160402500Y-92060000D02*
X160352500Y-92060000D01*
X163422500Y-90240000D02*
X163472500Y-90240000D01*
X163472500Y-90240000D02*
X163472500Y-92060000D01*
X163472500Y-92060000D02*
X163422500Y-92060000D01*
X163752500Y-89940000D02*
X163422500Y-89700000D01*
X163752500Y-89460000D01*
X163752500Y-89940000D01*
G36*
X163752500Y-89940000D02*
G01*
X163422500Y-89700000D01*
X163752500Y-89460000D01*
X163752500Y-89940000D01*
G37*
%TO.C,J105*%
X121120000Y-99130000D02*
X121120000Y-99020000D01*
X123880000Y-99020000D02*
X121120000Y-99020000D01*
X123880000Y-99130000D02*
X121120000Y-99130000D01*
X123880000Y-99130000D02*
X123880000Y-99020000D01*
X123880000Y-100400000D02*
X123880000Y-101780000D01*
X123880000Y-101780000D02*
X122500000Y-101780000D01*
%TO.C,R201*%
X133962742Y-100727500D02*
X134437258Y-100727500D01*
X133962742Y-101772500D02*
X134437258Y-101772500D01*
%TO.C,C110*%
X146065000Y-103088748D02*
X146065000Y-103611252D01*
X147535000Y-103088748D02*
X147535000Y-103611252D01*
%TO.C,C113*%
X145959420Y-89790000D02*
X146240580Y-89790000D01*
X145959420Y-90810000D02*
X146240580Y-90810000D01*
%TO.C,Y101*%
X139466776Y-97581142D02*
X142886778Y-97581142D01*
X142886778Y-97581142D02*
X142886778Y-93461142D01*
%TO.C,U401*%
X157665000Y-105495000D02*
X161785000Y-105495000D01*
X157665000Y-105590000D02*
X157665000Y-105495000D01*
X157665000Y-110615000D02*
X157665000Y-110520000D01*
X161785000Y-105495000D02*
X161785000Y-105590000D01*
X161785000Y-110520000D02*
X161785000Y-110615000D01*
X161785000Y-110615000D02*
X157665000Y-110615000D01*
X157125000Y-105585000D02*
X156885000Y-105255000D01*
X157365000Y-105255000D01*
X157125000Y-105585000D01*
G36*
X157125000Y-105585000D02*
G01*
X156885000Y-105255000D01*
X157365000Y-105255000D01*
X157125000Y-105585000D01*
G37*
%TO.C,C109*%
X142990000Y-99034420D02*
X142990000Y-99315580D01*
X144010000Y-99034420D02*
X144010000Y-99315580D01*
%TO.C,J601*%
X157370000Y-79865000D02*
X166530000Y-79865000D01*
X157370000Y-81570000D02*
X157370000Y-79865000D01*
X157370000Y-83580000D02*
X157370000Y-85500000D01*
X166530000Y-79865000D02*
X166530000Y-81570000D01*
X166530000Y-85500000D02*
X166530000Y-83580000D01*
%TO.C,R602*%
X157987742Y-89277500D02*
X158462258Y-89277500D01*
X157987742Y-90322500D02*
X158462258Y-90322500D01*
%TO.C,C204*%
X137790000Y-109663748D02*
X137790000Y-111086252D01*
X139610000Y-109663748D02*
X139610000Y-111086252D01*
%TO.C,JP401*%
X164500000Y-108750000D02*
X164500000Y-107350000D01*
X165200000Y-106650000D02*
X165800000Y-106650000D01*
X165800000Y-109450000D02*
X165200000Y-109450000D01*
X166500000Y-107350000D02*
X166500000Y-108750000D01*
X164500000Y-107350000D02*
G75*
G02*
X165200000Y-106650000I699999J1D01*
G01*
X165200000Y-109450000D02*
G75*
G02*
X164500000Y-108750000I0J700000D01*
G01*
X165800000Y-106650000D02*
G75*
G02*
X166500000Y-107350000I1J-699999D01*
G01*
X166500000Y-108750000D02*
G75*
G02*
X165800000Y-109450000I-700000J0D01*
G01*
%TO.C,JP301*%
X121450000Y-96450000D02*
X121450000Y-95850000D01*
X122150000Y-95150000D02*
X123550000Y-95150000D01*
X123550000Y-97150000D02*
X122150000Y-97150000D01*
X124250000Y-95850000D02*
X124250000Y-96450000D01*
X121450000Y-95850000D02*
G75*
G02*
X122150000Y-95150000I700000J0D01*
G01*
X122150000Y-97150000D02*
G75*
G02*
X121450000Y-96450000I0J700000D01*
G01*
X123550000Y-95150000D02*
G75*
G02*
X124250000Y-95850000I1J-699999D01*
G01*
X124250000Y-96450000D02*
G75*
G02*
X123550000Y-97150000I-699999J-1D01*
G01*
%TO.C,R101*%
X127150242Y-99577500D02*
X127624758Y-99577500D01*
X127150242Y-100622500D02*
X127624758Y-100622500D01*
%TO.C,D104*%
X145300000Y-84350000D02*
X145300000Y-82350000D01*
X145300000Y-84350000D02*
X148500000Y-84350000D01*
X145600000Y-82050000D02*
X145300000Y-82350000D01*
X145600000Y-82050000D02*
X148500000Y-82050000D01*
X148500000Y-82050000D02*
X148500000Y-84350000D01*
%TO.C,R102*%
X130187742Y-98277500D02*
X130662258Y-98277500D01*
X130187742Y-99322500D02*
X130662258Y-99322500D01*
%TO.C,R203*%
X136027500Y-100712258D02*
X136027500Y-100237742D01*
X137072500Y-100712258D02*
X137072500Y-100237742D01*
%TO.C,U101*%
X146190000Y-109240000D02*
X148010000Y-109240000D01*
X146190000Y-109290000D02*
X146190000Y-109240000D01*
X146190000Y-112360000D02*
X146190000Y-112310000D01*
X148010000Y-109240000D02*
X148010000Y-109290000D01*
X148010000Y-110410000D02*
X148010000Y-111190000D01*
X148010000Y-112310000D02*
X148010000Y-112360000D01*
X148010000Y-112360000D02*
X146190000Y-112360000D01*
X145650000Y-109290000D02*
X145410000Y-108960000D01*
X145890000Y-108960000D01*
X145650000Y-109290000D01*
G36*
X145650000Y-109290000D02*
G01*
X145410000Y-108960000D01*
X145890000Y-108960000D01*
X145650000Y-109290000D01*
G37*
%TO.C,D501*%
X167390000Y-90740000D02*
X168910000Y-90740000D01*
X167390000Y-91740000D02*
X167390000Y-90740000D01*
X167390000Y-93860000D02*
X167390000Y-92860000D01*
X168910000Y-90740000D02*
X168910000Y-90790000D01*
X168910000Y-91910000D02*
X168910000Y-92690000D01*
X168910000Y-93810000D02*
X168910000Y-93860000D01*
X168910000Y-93860000D02*
X167390000Y-93860000D01*
X169450000Y-92680000D02*
X169210000Y-92350000D01*
X169690000Y-92350000D01*
X169450000Y-92680000D01*
G36*
X169450000Y-92680000D02*
G01*
X169210000Y-92350000D01*
X169690000Y-92350000D01*
X169450000Y-92680000D01*
G37*
%TO.C,C106*%
X140984419Y-97990000D02*
X141265581Y-97990000D01*
X140984419Y-99010000D02*
X141265581Y-99010000D01*
%TO.C,J102*%
X170620000Y-102830000D02*
X170620000Y-100180000D01*
X173380000Y-100180000D02*
X170620000Y-100180000D01*
X173380000Y-102830000D02*
X170620000Y-102830000D01*
X173380000Y-102830000D02*
X173380000Y-100180000D01*
X173380000Y-104100000D02*
X173380000Y-105480000D01*
X173380000Y-105480000D02*
X172000000Y-105480000D01*
%TO.C,C114*%
X144465580Y-91390000D02*
X144184420Y-91390000D01*
X144465580Y-92410000D02*
X144184420Y-92410000D01*
%TO.C,J101*%
X121120000Y-89020000D02*
X122500000Y-89020000D01*
X121120000Y-90400000D02*
X121120000Y-89020000D01*
X121120000Y-91670000D02*
X121120000Y-94320000D01*
X121120000Y-91670000D02*
X123880000Y-91670000D01*
X121120000Y-94320000D02*
X123880000Y-94320000D01*
X123880000Y-91670000D02*
X123880000Y-94320000D01*
%TO.C,C112*%
X148065000Y-103088748D02*
X148065000Y-103611252D01*
X149535000Y-103088748D02*
X149535000Y-103611252D01*
%TO.C,C202*%
X137715000Y-105488748D02*
X137715000Y-106011252D01*
X139185000Y-105488748D02*
X139185000Y-106011252D01*
%TO.C,D401*%
X167352500Y-102740000D02*
X168872500Y-102740000D01*
X167352500Y-103740000D02*
X167352500Y-102740000D01*
X167352500Y-105860000D02*
X167352500Y-104860000D01*
X168872500Y-102740000D02*
X168872500Y-102790000D01*
X168872500Y-103910000D02*
X168872500Y-104690000D01*
X168872500Y-105810000D02*
X168872500Y-105860000D01*
X168872500Y-105860000D02*
X167352500Y-105860000D01*
X169412500Y-104680000D02*
X169172500Y-104350000D01*
X169652500Y-104350000D01*
X169412500Y-104680000D01*
G36*
X169412500Y-104680000D02*
G01*
X169172500Y-104350000D01*
X169652500Y-104350000D01*
X169412500Y-104680000D01*
G37*
%TO.C,D105*%
X142390000Y-102352500D02*
X143390000Y-102352500D01*
X142390000Y-103872500D02*
X142390000Y-102352500D01*
X142440000Y-103872500D02*
X142390000Y-103872500D01*
X144340000Y-103872500D02*
X143560000Y-103872500D01*
X144510000Y-102352500D02*
X145510000Y-102352500D01*
X145510000Y-102352500D02*
X145510000Y-103872500D01*
X145510000Y-103872500D02*
X145460000Y-103872500D01*
X143900000Y-104652500D02*
X143570000Y-104412500D01*
X143900000Y-104172500D01*
X143900000Y-104652500D01*
G36*
X143900000Y-104652500D02*
G01*
X143570000Y-104412500D01*
X143900000Y-104172500D01*
X143900000Y-104652500D01*
G37*
%TO.C,C111*%
X154159420Y-100290000D02*
X154440580Y-100290000D01*
X154159420Y-101310000D02*
X154440580Y-101310000D01*
%TO.C,J104*%
X121120000Y-102730000D02*
X121120000Y-102620000D01*
X123880000Y-102620000D02*
X121120000Y-102620000D01*
X123880000Y-102730000D02*
X121120000Y-102730000D01*
X123880000Y-102730000D02*
X123880000Y-102620000D01*
X123880000Y-104000000D02*
X123880000Y-105380000D01*
X123880000Y-105380000D02*
X122500000Y-105380000D01*
%TO.C,C105*%
X141415581Y-92090000D02*
X141134419Y-92090000D01*
X141415581Y-93110000D02*
X141134419Y-93110000D01*
%TO.C,R601*%
X165862258Y-89227500D02*
X165387742Y-89227500D01*
X165862258Y-90272500D02*
X165387742Y-90272500D01*
%TO.C,L101*%
X155737122Y-102040000D02*
X154937878Y-102040000D01*
X155737122Y-103160000D02*
X154937878Y-103160000D01*
%TO.C,TP102*%
X145850000Y-107250000D02*
X147250000Y-107250000D01*
X145850000Y-108650000D02*
X145850000Y-107250000D01*
X147250000Y-107250000D02*
X147250000Y-108650000D01*
X147250000Y-108650000D02*
X145850000Y-108650000D01*
%TO.C,U301*%
X130990000Y-92715000D02*
X135110000Y-92715000D01*
X130990000Y-92810000D02*
X130990000Y-92715000D01*
X130990000Y-97835000D02*
X130990000Y-97740000D01*
X135110000Y-92715000D02*
X135110000Y-92810000D01*
X135110000Y-97740000D02*
X135110000Y-97835000D01*
X135110000Y-97835000D02*
X130990000Y-97835000D01*
X135890000Y-98075000D02*
X135410000Y-98075000D01*
X135650000Y-97745000D01*
X135890000Y-98075000D01*
G36*
X135890000Y-98075000D02*
G01*
X135410000Y-98075000D01*
X135650000Y-97745000D01*
X135890000Y-98075000D01*
G37*
%TO.C,C502*%
X163690580Y-101235000D02*
X163409420Y-101235000D01*
X163690580Y-102255000D02*
X163409420Y-102255000D01*
%TO.C,U201*%
X134040000Y-102190000D02*
X135860000Y-102190000D01*
X134040000Y-102240000D02*
X134040000Y-102190000D01*
X134040000Y-105310000D02*
X134040000Y-105260000D01*
X135860000Y-102190000D02*
X135860000Y-102240000D01*
X135860000Y-105260000D02*
X135860000Y-105310000D01*
X135860000Y-105310000D02*
X134040000Y-105310000D01*
X136640000Y-105590000D02*
X136160000Y-105590000D01*
X136400000Y-105260000D01*
X136640000Y-105590000D01*
G36*
X136640000Y-105590000D02*
G01*
X136160000Y-105590000D01*
X136400000Y-105260000D01*
X136640000Y-105590000D01*
G37*
%TO.C,C501*%
X158465000Y-98285580D02*
X158465000Y-98004420D01*
X159485000Y-98285580D02*
X159485000Y-98004420D01*
%TO.C,Q101*%
X127440000Y-101040000D02*
X128960000Y-101040000D01*
X127440000Y-101090000D02*
X127440000Y-101040000D01*
X127440000Y-102990000D02*
X127440000Y-102210000D01*
X127440000Y-104160000D02*
X127440000Y-104110000D01*
X128960000Y-101040000D02*
X128960000Y-102040000D01*
X128960000Y-103160000D02*
X128960000Y-104160000D01*
X128960000Y-104160000D02*
X127440000Y-104160000D01*
X127140000Y-102550000D02*
X126660000Y-102550000D01*
X126900000Y-102220000D01*
X127140000Y-102550000D01*
G36*
X127140000Y-102550000D02*
G01*
X126660000Y-102550000D01*
X126900000Y-102220000D01*
X127140000Y-102550000D01*
G37*
%TO.C,C102*%
X124577500Y-99490580D02*
X124577500Y-99209420D01*
X125597500Y-99490580D02*
X125597500Y-99209420D01*
%TO.C,C402*%
X160015580Y-111090000D02*
X159734420Y-111090000D01*
X160015580Y-112110000D02*
X159734420Y-112110000D01*
%TO.C,C101*%
X142940000Y-109638748D02*
X142940000Y-111061252D01*
X144760000Y-109638748D02*
X144760000Y-111061252D01*
%TO.C,D107*%
X152550000Y-84790000D02*
X152550000Y-87450000D01*
X154250000Y-84790000D02*
X152550000Y-84790000D01*
X154250000Y-84790000D02*
X154250000Y-87450000D01*
%TO.C,R103*%
X133287742Y-98277500D02*
X133762258Y-98277500D01*
X133287742Y-99322500D02*
X133762258Y-99322500D01*
%TO.C,R104*%
X136937742Y-90977500D02*
X137412258Y-90977500D01*
X136937742Y-92022500D02*
X137412258Y-92022500D01*
%TO.C,D202*%
X128650000Y-104440000D02*
X128650000Y-109950000D01*
X131950000Y-104440000D02*
X128650000Y-104440000D01*
X131950000Y-104440000D02*
X131950000Y-109950000D01*
%TO.C,R202*%
X137527500Y-100237742D02*
X137527500Y-100712258D01*
X138572500Y-100237742D02*
X138572500Y-100712258D01*
%TO.C,D102*%
X150700000Y-84350000D02*
X150700000Y-82350000D01*
X150700000Y-84350000D02*
X153900000Y-84350000D01*
X151000000Y-82050000D02*
X150700000Y-82350000D01*
X151000000Y-82050000D02*
X153900000Y-82050000D01*
X153900000Y-82050000D02*
X153900000Y-84350000D01*
%TO.C,C302*%
X133784420Y-91270000D02*
X134065580Y-91270000D01*
X133784420Y-92290000D02*
X134065580Y-92290000D01*
%TO.C,J103*%
X170620000Y-91680000D02*
X170620000Y-89030000D01*
X173380000Y-89030000D02*
X170620000Y-89030000D01*
X173380000Y-91680000D02*
X170620000Y-91680000D01*
X173380000Y-91680000D02*
X173380000Y-89030000D01*
X173380000Y-92950000D02*
X173380000Y-94330000D01*
X173380000Y-94330000D02*
X172000000Y-94330000D01*
%TO.C,TP101*%
X139900000Y-105600000D02*
X141300000Y-105600000D01*
X139900000Y-107000000D02*
X139900000Y-105600000D01*
X141300000Y-105600000D02*
X141300000Y-107000000D01*
X141300000Y-107000000D02*
X139900000Y-107000000D01*
%TO.C,C103*%
X150584420Y-111090000D02*
X150865580Y-111090000D01*
X150584420Y-112110000D02*
X150865580Y-112110000D01*
%TO.C,R301*%
X127137258Y-94077500D02*
X126662742Y-94077500D01*
X127137258Y-95122500D02*
X126662742Y-95122500D01*
%TO.C,U501*%
X161515000Y-95635000D02*
X165635000Y-95635000D01*
X161515000Y-95730000D02*
X161515000Y-95635000D01*
X161515000Y-100755000D02*
X161515000Y-100660000D01*
X165635000Y-95635000D02*
X165635000Y-95730000D01*
X165635000Y-100660000D02*
X165635000Y-100755000D01*
X165635000Y-100755000D02*
X161515000Y-100755000D01*
X160975000Y-95725000D02*
X160735000Y-95395000D01*
X161215000Y-95395000D01*
X160975000Y-95725000D01*
G36*
X160975000Y-95725000D02*
G01*
X160735000Y-95395000D01*
X161215000Y-95395000D01*
X160975000Y-95725000D01*
G37*
%TO.C,D106*%
X139900000Y-84350000D02*
X139900000Y-82350000D01*
X139900000Y-84350000D02*
X143100000Y-84350000D01*
X140200000Y-82050000D02*
X139900000Y-82350000D01*
X140200000Y-82050000D02*
X143100000Y-82050000D01*
X143100000Y-82050000D02*
X143100000Y-84350000D01*
%TO.C,R603*%
X156837742Y-94977500D02*
X157312258Y-94977500D01*
X156837742Y-96022500D02*
X157312258Y-96022500D01*
%TO.C,C107*%
X150838748Y-106190000D02*
X152261252Y-106190000D01*
X150838748Y-108010000D02*
X152261252Y-108010000D01*
%TO.C,D301*%
X125502500Y-90340000D02*
X127022500Y-90340000D01*
X125502500Y-90390000D02*
X125502500Y-90340000D01*
X125502500Y-92290000D02*
X125502500Y-91510000D01*
X125502500Y-93460000D02*
X125502500Y-93410000D01*
X127022500Y-90340000D02*
X127022500Y-91340000D01*
X127022500Y-92460000D02*
X127022500Y-93460000D01*
X127022500Y-93460000D02*
X125502500Y-93460000D01*
X125202500Y-91850000D02*
X124722500Y-91850000D01*
X124962500Y-91520000D01*
X125202500Y-91850000D01*
G36*
X125202500Y-91850000D02*
G01*
X124722500Y-91850000D01*
X124962500Y-91520000D01*
X125202500Y-91850000D01*
G37*
%TD*%
M02*
